{"glyphs":{"0":{"ha":926,"x_min":57,"x_max":869,"o":"m 464 972 q 661 937 583 972 q 785 836 739 901 q 850 680 831 771 q 869 478 869 589 q 850 276 869 367 q 785 119 831 184 q 661 19 739 54 q 464 -17 583 -17 q 267 19 345 -17 q 142 119 189 54 q 76 276 95 184 q 57 478 57 367 q 76 680 57 589 q 142 836 95 771 q 267 937 189 901 q 464 972 345 972 m 464 785 q 402 771 427 785 q 360 729 376 758 q 337 655 345 701 q 330 547 330 610 l 330 410 q 337 301 330 347 q 360 227 345 256 q 402 184 376 198 q 464 171 427 171 q 525 184 500 171 q 566 227 550 198 q 588 301 581 256 q 595 410 595 347 l 595 547 q 588 655 595 610 q 566 729 581 701 q 525 771 550 758 q 464 785 500 785 z "},"1":{"ha":926,"x_min":146,"x_max":867,"o":"m 648 214 l 867 214 l 867 0 l 146 0 l 146 214 l 372 214 l 372 646 l 146 646 l 146 807 q 249 824 195 810 q 358 859 304 838 q 464 905 413 880 q 555 957 515 930 l 648 957 l 648 214 z "},"2":{"ha":926,"x_min":68,"x_max":860,"o":"m 481 972 q 633 952 566 972 q 749 893 701 931 q 823 803 797 856 q 848 685 848 750 q 832 590 848 633 q 787 508 816 546 q 719 435 758 469 q 635 369 680 401 q 540 303 589 336 q 441 235 491 270 l 860 235 l 860 0 l 68 0 l 68 66 q 78 139 68 106 q 105 203 87 173 q 148 260 123 233 q 201 314 172 288 q 351 439 283 387 q 469 533 419 492 q 546 608 518 574 q 574 675 574 641 q 567 713 574 694 q 546 745 560 731 q 509 768 532 760 q 454 777 486 777 q 397 767 422 777 q 354 739 372 757 q 328 698 337 722 q 319 646 319 674 l 319 618 l 72 618 q 71 634 71 627 q 71 648 71 641 q 96 782 71 722 q 173 884 121 842 q 301 949 224 926 q 481 972 378 972 z "},"3":{"ha":926,"x_min":58,"x_max":868,"o":"m 471 972 q 628 952 559 972 q 744 896 696 931 q 816 813 791 861 q 840 713 840 766 q 830 644 840 677 q 802 583 820 610 q 758 534 783 555 q 701 501 732 513 l 701 496 q 825 409 781 471 q 868 260 868 348 q 841 152 865 203 q 767 64 817 102 q 643 5 718 26 q 465 -17 568 -17 q 283 5 360 -17 q 157 64 207 26 q 83 152 107 102 q 58 258 58 201 l 58 288 l 302 288 q 310 243 302 264 q 333 207 317 222 q 378 183 350 192 q 447 174 406 174 q 515 183 487 174 q 559 210 543 193 q 584 250 576 227 q 591 301 591 273 q 584 346 591 327 q 563 377 576 365 q 532 395 550 389 q 494 401 515 401 l 393 401 l 393 572 l 472 572 q 510 578 492 572 q 541 597 528 585 q 562 628 554 609 q 570 672 570 646 q 562 713 570 693 q 538 748 553 733 q 499 773 522 764 q 447 782 477 782 q 392 773 416 782 q 353 750 369 765 q 329 716 337 736 q 321 676 321 697 l 89 676 l 89 711 q 114 812 89 765 q 188 896 140 860 q 308 952 237 931 q 471 972 379 972 z "},"4":{"ha":926,"x_min":32,"x_max":895,"o":"m 571 972 q 547 887 566 935 q 500 786 528 839 q 438 680 473 734 q 367 574 404 625 q 292 478 330 524 q 222 400 255 433 l 497 400 l 497 599 q 537 660 515 624 q 581 735 559 696 q 618 812 602 774 q 643 880 635 850 l 761 880 l 761 400 l 895 400 l 895 196 l 761 196 l 761 0 l 497 0 l 497 196 l 32 196 l 32 403 q 103 517 66 452 q 175 655 140 581 q 243 810 211 729 q 298 972 275 890 l 571 972 z "},"5":{"ha":926,"x_min":54,"x_max":868,"o":"m 798 720 l 343 720 l 332 575 q 385 606 354 593 q 450 628 412 618 q 536 637 488 637 q 674 615 612 637 q 778 551 735 593 q 845 449 821 509 q 868 313 868 389 q 841 184 868 244 q 762 79 813 124 q 639 9 711 35 q 476 -17 566 -17 q 293 6 372 -17 q 161 73 214 30 q 81 175 108 115 q 54 309 54 235 l 298 309 q 308 257 298 281 q 336 214 317 233 q 382 185 355 196 q 447 175 410 175 q 511 186 484 175 q 557 216 539 197 q 585 260 576 235 q 595 317 595 286 q 585 374 595 347 q 557 419 576 400 q 511 449 538 438 q 449 460 484 460 q 391 451 414 460 q 353 432 368 443 q 329 409 338 420 q 315 390 321 397 l 96 421 l 136 956 l 798 956 l 798 720 z "},"6":{"ha":926,"x_min":57,"x_max":876,"o":"m 471 972 q 626 952 555 972 q 746 890 696 931 q 825 789 797 850 q 852 650 852 729 l 606 650 l 606 660 q 598 708 606 685 q 574 748 590 730 q 533 775 557 765 q 475 785 508 785 q 416 773 441 785 q 372 739 390 761 q 346 686 355 717 q 336 618 336 655 l 336 538 q 383 570 357 557 q 436 593 409 584 q 489 606 463 602 q 538 610 515 610 q 670 591 608 610 q 778 535 732 572 q 850 443 823 498 q 876 317 876 388 q 848 175 876 237 q 766 70 819 113 q 638 5 713 27 q 471 -17 564 -17 q 289 11 367 -17 q 160 97 212 39 q 83 244 109 155 q 57 454 57 333 q 83 692 57 593 q 160 852 109 790 q 289 944 212 915 q 471 972 367 972 m 472 443 q 371 408 406 443 q 336 307 336 373 q 371 206 336 241 q 471 171 405 171 q 572 204 536 171 q 608 304 608 238 q 573 407 608 370 q 472 443 538 443 z "},"7":{"ha":926,"x_min":62,"x_max":868,"o":"m 868 829 q 740 660 802 747 q 632 480 679 573 q 556 287 585 387 q 528 82 528 188 l 528 0 l 220 0 q 242 195 220 99 q 305 381 265 291 q 400 556 345 472 q 521 717 456 641 l 62 717 l 62 956 l 868 956 l 868 829 z "},"8":{"ha":926,"x_min":57,"x_max":869,"o":"m 461 972 q 606 954 538 972 q 725 900 674 935 q 804 811 775 864 q 833 690 833 758 q 825 621 833 650 q 800 567 816 591 q 763 525 785 544 q 717 489 742 507 l 717 484 q 780 443 751 464 q 828 396 808 422 q 859 338 848 370 q 869 262 869 305 q 840 142 869 194 q 758 55 811 90 q 629 1 705 19 q 461 -17 553 -17 q 294 1 368 -17 q 166 55 219 19 q 85 142 114 90 q 57 262 57 194 q 68 338 57 305 q 98 396 79 370 q 146 443 118 422 q 208 484 174 464 l 208 489 q 162 525 183 507 q 125 567 140 544 q 100 621 109 591 q 92 690 92 650 q 120 811 92 758 q 199 900 149 864 q 317 954 250 935 q 461 972 384 972 m 461 399 q 412 391 435 399 q 371 370 389 384 q 344 334 354 355 q 334 285 334 313 q 343 235 334 256 q 369 199 353 214 q 409 178 386 185 q 461 171 433 171 q 514 178 490 171 q 555 199 538 185 q 583 235 573 214 q 593 285 593 256 q 582 334 593 313 q 553 370 571 355 q 511 391 534 384 q 461 399 487 399 m 461 785 q 409 779 433 785 q 369 760 386 772 q 343 727 353 747 q 334 679 334 707 q 344 631 334 651 q 371 599 354 612 q 412 581 389 587 q 461 575 435 575 q 511 581 487 575 q 553 599 534 587 q 582 631 571 612 q 593 679 593 651 q 583 727 593 707 q 555 760 573 747 q 514 779 538 772 q 461 785 490 785 z "},"9":{"ha":926,"x_min":50,"x_max":869,"o":"m 456 972 q 637 944 559 972 q 766 858 715 916 q 844 711 818 800 q 869 501 869 623 q 844 264 869 362 q 766 103 818 165 q 637 12 715 41 q 456 -17 559 -17 q 300 4 371 -17 q 180 65 230 24 q 102 166 130 106 q 74 306 74 227 l 321 306 l 321 296 q 329 248 321 270 q 353 208 336 225 q 394 181 369 191 q 452 171 418 171 q 511 183 485 171 q 554 217 536 195 q 581 269 572 239 q 590 338 590 300 l 590 418 q 543 385 568 399 q 491 363 517 372 q 437 350 464 354 q 389 346 411 346 q 256 365 318 346 q 149 421 195 384 q 77 513 103 458 q 50 639 50 568 q 79 781 50 719 q 160 886 107 843 q 288 950 213 928 q 456 972 363 972 m 454 785 q 353 749 389 785 q 318 648 318 714 q 353 548 318 583 q 453 513 387 513 q 554 546 519 513 q 590 646 590 580 q 555 748 590 711 q 454 785 520 785 z "},"\r":{"ha":463,"x_min":0,"x_max":0,"o":""}," ":{"ha":463,"x_min":0,"x_max":0,"o":""},"!":{"ha":463,"x_min":65,"x_max":397,"o":"m 318 342 l 142 342 l 65 956 l 397 956 l 318 342 m 368 0 l 93 0 l 93 257 l 368 257 l 368 0 z "},"\"":{"ha":694,"x_min":82,"x_max":612,"o":"m 612 751 l 546 553 l 452 553 l 386 751 l 386 956 l 612 956 l 612 751 m 309 751 l 243 553 l 147 553 l 82 751 l 82 956 l 309 956 l 309 751 z "},"#":{"ha":917,"x_min":28,"x_max":888,"o":"m 758 697 l 888 697 l 888 543 l 730 543 l 694 372 l 842 372 l 842 221 l 656 221 l 604 -16 l 441 -16 l 493 221 l 334 221 l 283 -16 l 117 -16 l 167 221 l 28 221 l 28 372 l 203 372 l 241 543 l 92 543 l 92 697 l 272 697 l 334 972 l 503 972 l 440 697 l 595 697 l 656 972 l 822 972 l 758 697 m 406 542 l 368 371 l 526 371 l 567 542 l 406 542 z "},"$":{"ha":926,"x_min":96,"x_max":852,"o":"m 541 860 q 651 840 598 855 q 745 796 705 824 q 810 726 786 768 q 835 627 835 684 l 578 627 q 567 662 577 648 q 542 684 557 676 q 511 694 528 692 q 479 697 494 697 q 454 696 471 697 q 420 691 437 696 q 391 677 404 687 q 379 650 379 667 q 399 619 379 630 q 453 602 420 608 q 529 589 486 595 q 616 575 572 584 q 703 552 660 566 q 779 513 745 538 q 832 450 812 488 q 852 355 852 412 q 828 241 852 288 q 761 164 804 195 q 662 118 719 134 q 541 97 605 102 l 551 -93 l 395 -93 l 404 98 q 288 122 344 104 q 190 171 233 140 q 121 246 147 201 q 96 351 96 291 l 353 351 l 353 346 q 367 303 353 319 q 398 277 380 286 q 438 264 417 268 q 473 261 458 261 q 508 262 488 261 q 546 269 528 264 q 576 285 564 274 q 589 315 589 296 q 568 348 589 336 q 515 368 548 360 q 439 382 481 376 q 352 397 396 388 q 265 421 308 407 q 189 461 222 436 q 136 523 156 486 q 115 614 115 559 q 138 720 115 676 q 200 793 161 764 q 291 838 239 823 q 404 859 344 853 l 395 1050 l 551 1050 l 541 860 z "},"%":{"ha":1389,"x_min":64,"x_max":1312,"o":"m 475 0 l 321 0 l 903 954 l 1054 954 l 475 0 m 319 972 q 435 955 387 972 q 514 904 484 937 q 559 825 545 871 q 574 722 574 779 q 559 622 574 667 q 514 543 545 576 q 435 493 484 511 q 319 475 387 475 q 203 493 252 475 q 124 543 155 511 q 78 622 93 576 q 64 722 64 667 q 78 825 64 779 q 124 904 93 871 q 203 955 155 937 q 319 972 252 972 m 319 867 q 281 858 297 867 q 255 832 265 848 q 241 794 245 816 q 236 746 236 772 l 236 701 q 241 653 236 675 q 255 615 245 631 q 281 590 265 599 q 319 581 297 581 q 358 590 342 581 q 383 615 374 599 q 397 653 393 631 q 401 701 401 675 l 401 746 q 397 794 401 772 q 383 832 393 816 q 358 858 374 848 q 319 867 342 867 m 1059 481 q 1175 463 1126 481 q 1253 412 1223 445 q 1298 333 1284 379 q 1312 231 1312 287 q 1298 130 1312 176 q 1253 52 1284 84 q 1175 1 1223 19 q 1059 -17 1126 -17 q 942 1 991 -17 q 863 52 894 19 q 818 130 832 84 q 803 231 803 176 q 818 333 803 287 q 863 412 832 379 q 942 463 894 445 q 1059 481 991 481 m 1059 375 q 1020 366 1036 375 q 995 340 1004 357 q 980 302 985 324 q 975 254 975 280 l 975 210 q 980 162 975 184 q 995 123 985 140 q 1020 98 1004 107 q 1059 89 1036 89 q 1097 98 1082 89 q 1122 123 1113 107 q 1136 162 1132 140 q 1140 210 1140 184 l 1140 254 q 1136 302 1140 280 q 1122 340 1132 324 q 1097 366 1113 357 q 1059 375 1082 375 z "},"&":{"ha":1235,"x_min":104,"x_max":1234,"o":"m 579 972 q 774 952 688 972 q 919 896 860 931 q 1009 812 978 860 q 1040 711 1040 765 l 1040 676 l 794 676 q 782 715 794 696 q 746 747 770 733 q 685 768 722 760 q 597 777 648 777 q 515 766 550 777 q 458 740 481 756 q 426 703 436 724 q 415 660 415 682 q 423 620 415 637 q 445 593 431 604 q 477 577 459 583 q 514 572 494 572 l 659 572 l 659 401 l 484 401 q 445 395 463 401 q 414 377 427 389 q 393 346 401 365 q 386 301 386 327 q 397 252 386 275 q 431 214 408 230 q 493 188 455 197 q 586 179 531 179 q 687 189 647 179 q 751 215 727 199 q 785 254 775 232 q 794 302 794 277 l 794 572 l 1234 572 l 1234 401 l 1044 401 l 1044 308 q 1018 173 1044 233 q 938 71 993 113 q 796 6 882 28 q 587 -17 709 -17 q 370 5 461 -17 q 220 64 279 26 q 133 154 161 102 q 104 267 104 206 q 149 411 104 351 q 271 496 193 471 l 271 501 q 216 532 241 512 q 173 577 191 551 q 143 634 154 603 q 132 699 132 665 q 160 803 132 753 q 244 891 189 853 q 384 950 300 928 q 579 972 468 972 z "},"'":{"ha":386,"x_min":79,"x_max":306,"o":"m 306 751 l 239 553 l 144 553 l 79 751 l 79 956 l 306 956 l 306 751 z "},"(":{"ha":541,"x_min":77,"x_max":493,"o":"m 493 1023 q 418 881 452 959 q 359 721 384 804 q 322 556 335 639 q 309 400 309 473 q 322 244 309 326 q 359 79 335 161 q 418 -81 384 -3 q 493 -222 452 -159 l 326 -222 q 220 -85 267 -159 q 142 68 174 -12 q 93 231 110 147 q 77 400 77 315 q 93 570 77 486 q 142 733 110 654 q 220 886 174 812 q 326 1023 267 959 l 493 1023 z "},")":{"ha":541,"x_min":47,"x_max":464,"o":"m 214 1023 q 320 886 273 959 q 399 733 367 812 q 447 570 431 654 q 464 400 464 486 q 447 231 464 315 q 399 68 431 147 q 320 -85 367 -12 q 214 -222 273 -159 l 47 -222 q 122 -81 88 -159 q 180 79 156 -3 q 218 244 205 161 q 232 400 232 326 q 218 556 232 473 q 180 721 205 639 q 122 881 156 804 q 47 1023 88 959 l 214 1023 z "},"*":{"ha":772,"x_min":132,"x_max":639,"o":"m 433 787 l 574 885 l 639 774 l 484 701 l 639 631 l 574 518 l 433 616 l 450 447 l 321 447 l 338 616 l 197 518 l 132 631 l 288 701 l 132 774 l 197 885 l 338 786 l 321 956 l 450 956 l 433 787 z "},"+":{"ha":917,"x_min":92,"x_max":825,"o":"m 550 458 l 825 458 l 825 275 l 550 275 l 550 0 l 367 0 l 367 275 l 92 275 l 92 458 l 367 458 l 367 733 l 550 733 l 550 458 z "},",":{"ha":463,"x_min":83,"x_max":379,"o":"m 379 16 l 233 -254 l 83 -254 l 197 0 l 85 0 l 85 277 l 379 277 l 379 16 z "},"-":{"ha":463,"x_min":54,"x_max":408,"o":"m 408 272 l 54 272 l 54 492 l 408 492 l 408 272 z "},".":{"ha":463,"x_min":85,"x_max":379,"o":"m 379 0 l 85 0 l 85 277 l 379 277 l 379 0 z "},"/":{"ha":386,"x_min":-3,"x_max":387,"o":"m 167 -66 l -3 -66 l 220 1022 l 387 1022 l 167 -66 z "},":":{"ha":463,"x_min":85,"x_max":379,"o":"m 379 456 l 85 456 l 85 733 l 379 733 l 379 456 m 379 0 l 85 0 l 85 277 l 379 277 l 379 0 z "},";":{"ha":463,"x_min":83,"x_max":379,"o":"m 379 16 l 233 -254 l 83 -254 l 197 0 l 85 0 l 85 277 l 379 277 l 379 16 m 379 456 l 85 456 l 85 733 l 379 733 l 379 456 z "},"<":{"ha":917,"x_min":93,"x_max":822,"o":"m 822 545 l 323 361 l 822 179 l 822 -18 l 93 262 l 93 461 l 822 743 l 822 545 z "},"=":{"ha":917,"x_min":92,"x_max":825,"o":"m 825 432 l 92 432 l 92 615 l 825 615 l 825 432 m 825 118 l 92 118 l 92 301 l 825 301 l 825 118 z "},">":{"ha":917,"x_min":94,"x_max":823,"o":"m 823 461 l 823 262 l 94 -18 l 94 179 l 593 361 l 94 545 l 94 743 l 823 461 z "},"?":{"ha":848,"x_min":52,"x_max":786,"o":"m 431 972 q 575 952 510 972 q 688 896 641 932 q 760 806 734 859 q 786 689 786 753 q 768 605 786 642 q 724 539 751 568 q 667 486 698 509 q 610 444 637 463 q 566 407 584 425 q 549 371 549 389 l 549 342 l 311 342 l 311 411 q 325 458 311 436 q 358 502 338 481 q 401 543 378 523 q 445 586 425 564 q 478 631 465 608 q 492 684 492 655 q 486 720 492 703 q 468 751 479 738 q 439 772 456 764 q 400 781 422 781 q 354 770 372 781 q 327 744 336 760 q 313 707 317 728 q 310 664 310 686 q 310 645 310 654 q 311 627 310 636 l 56 627 q 53 653 54 640 q 52 679 52 665 q 80 801 52 747 q 159 893 109 855 q 279 952 210 932 q 431 972 349 972 m 570 0 l 294 0 l 294 257 l 570 257 l 570 0 z "},"@":{"ha":1028,"x_min":28,"x_max":1000,"o":"m 529 972 q 716 943 630 972 q 866 850 803 913 q 965 687 929 787 q 1000 449 1000 588 q 990 320 1000 376 q 962 222 980 264 q 921 151 945 180 q 870 104 897 122 q 815 78 844 86 q 758 71 786 71 q 703 76 727 71 q 661 92 679 82 q 629 115 642 102 q 607 144 616 129 q 573 117 591 130 q 532 93 555 103 q 482 77 509 83 q 421 71 454 71 q 341 79 377 71 q 279 105 304 87 q 238 155 253 124 q 224 229 224 185 q 248 331 224 292 q 317 392 271 370 q 430 422 363 414 q 583 429 496 429 l 583 457 q 564 508 583 490 q 517 525 545 525 q 492 523 505 525 q 470 514 480 520 q 453 497 460 508 q 447 471 447 487 l 240 471 q 239 478 239 475 q 239 485 239 481 q 257 555 239 524 q 310 610 275 587 q 398 646 346 633 q 519 659 451 659 q 624 649 574 659 q 712 619 674 640 q 773 563 751 597 q 796 476 796 528 l 796 256 q 808 222 796 231 q 836 214 821 214 q 855 221 844 214 q 878 253 867 228 q 897 324 889 277 q 905 450 905 371 q 878 649 905 566 q 800 785 850 732 q 681 863 750 838 q 528 888 611 888 q 226 759 330 888 q 122 368 122 631 q 211 1 122 124 q 486 -122 300 -122 q 535 -119 507 -122 q 592 -110 564 -115 q 645 -96 620 -104 q 688 -78 671 -87 l 688 -170 q 642 -185 668 -178 q 587 -197 615 -192 q 533 -204 559 -201 q 486 -207 506 -207 q 295 -173 380 -207 q 151 -69 210 -140 q 60 110 92 1 q 28 370 28 219 q 45 567 28 479 q 94 722 62 654 q 172 836 126 789 q 273 914 217 884 q 393 958 328 944 q 529 972 458 972 m 583 328 q 469 307 505 328 q 433 256 433 287 q 438 228 433 239 q 452 212 444 218 q 471 203 460 205 q 492 201 481 201 q 527 207 511 201 q 556 224 544 213 q 576 249 569 235 q 583 281 583 263 l 583 328 z "},"A":{"ha":1080,"x_min":14,"x_max":1068,"o":"m 1068 0 l 743 0 l 703 135 l 368 135 l 328 0 l 14 0 l 363 956 l 720 956 l 1068 0 m 533 689 l 432 349 l 639 349 l 539 689 l 533 689 z "},"B":{"ha":1080,"x_min":103,"x_max":1025,"o":"m 739 956 q 841 938 793 956 q 925 890 889 921 q 982 815 961 859 q 1003 721 1003 772 q 990 631 1003 669 q 955 567 977 593 q 904 524 933 541 q 843 498 876 508 l 843 493 q 913 468 880 485 q 971 422 946 451 q 1010 353 996 394 q 1025 254 1025 311 q 1003 150 1025 197 q 944 70 981 103 q 856 18 906 37 q 747 0 805 0 l 103 0 l 103 956 l 739 956 m 410 386 l 410 222 l 643 222 q 671 228 658 222 q 694 244 684 234 q 709 267 703 254 q 714 297 714 281 l 714 311 q 709 340 714 327 q 694 364 703 354 q 671 380 684 374 q 643 386 658 386 l 410 386 m 410 746 l 410 583 l 621 583 q 649 589 635 583 q 671 605 662 595 q 686 629 681 615 q 692 659 692 643 l 692 672 q 686 701 692 687 q 671 724 680 714 q 648 740 661 734 q 621 746 635 746 l 410 746 z "},"C":{"ha":1080,"x_min":62,"x_max":1018,"o":"m 558 972 q 747 946 663 972 q 892 868 832 920 q 985 739 952 816 q 1018 562 1018 663 l 725 562 q 714 637 725 604 q 682 694 703 670 q 629 730 661 718 q 557 743 598 743 q 474 727 508 743 q 418 682 439 711 q 386 612 396 652 q 376 522 376 571 l 376 433 q 387 344 376 385 q 418 274 397 303 q 474 229 440 245 q 554 212 507 212 q 690 259 645 212 q 734 387 734 305 l 1018 387 q 987 213 1018 289 q 897 86 956 138 q 753 9 838 35 q 558 -17 667 -17 q 188 108 313 -17 q 62 478 62 233 q 188 848 62 723 q 558 972 313 972 z "},"D":{"ha":1080,"x_min":103,"x_max":1018,"o":"m 517 956 q 732 927 639 956 q 889 839 826 898 q 985 690 953 780 q 1018 478 1018 600 q 985 266 1018 355 q 889 117 953 176 q 732 29 826 58 q 517 0 639 0 l 103 0 l 103 956 l 517 956 m 410 726 l 410 229 l 511 229 q 598 243 562 229 q 658 284 635 257 q 693 349 682 311 q 704 436 704 387 l 704 519 q 693 607 704 568 q 658 672 682 645 q 598 712 635 699 q 511 726 562 726 l 410 726 z "},"E":{"ha":1003,"x_min":103,"x_max":939,"o":"m 103 0 l 103 956 l 929 956 l 929 726 l 410 726 l 410 595 l 854 595 l 854 375 l 410 375 l 410 229 l 939 229 l 939 0 l 103 0 z "},"F":{"ha":926,"x_min":103,"x_max":875,"o":"m 103 0 l 103 956 l 875 956 l 875 726 l 410 726 l 410 562 l 810 562 l 810 343 l 410 343 l 410 0 l 103 0 z "},"G":{"ha":1157,"x_min":62,"x_max":1069,"o":"m 583 972 q 772 949 684 972 q 927 881 861 926 q 1031 768 993 836 q 1069 610 1069 700 l 777 610 q 762 665 777 640 q 723 707 747 690 q 665 734 698 724 q 596 743 633 743 q 432 685 487 743 q 376 522 376 627 l 376 433 q 432 271 376 329 q 596 212 487 212 q 665 221 633 212 q 723 247 698 231 q 762 287 747 264 q 777 339 777 311 l 559 339 l 559 533 l 1069 533 l 1069 0 l 911 0 l 880 94 q 732 11 815 39 q 539 -17 649 -17 q 181 108 300 -17 q 62 478 62 233 q 97 693 62 600 q 199 847 132 785 q 362 941 266 909 q 583 972 459 972 z "},"H":{"ha":1157,"x_min":103,"x_max":1054,"o":"m 1054 0 l 747 0 l 747 363 l 410 363 l 410 0 l 103 0 l 103 956 l 410 956 l 410 607 l 747 607 l 747 956 l 1054 956 l 1054 0 z "},"I":{"ha":541,"x_min":117,"x_max":424,"o":"m 424 0 l 117 0 l 117 956 l 424 956 l 424 0 z "},"J":{"ha":926,"x_min":32,"x_max":823,"o":"m 823 332 q 796 174 823 240 q 718 66 769 109 q 594 3 667 23 q 428 -17 520 -17 q 261 3 335 -17 q 137 66 188 23 q 59 174 86 109 q 32 332 32 240 l 32 345 l 319 345 l 319 334 q 344 239 319 267 q 418 212 369 212 q 492 239 467 212 q 517 334 517 267 l 517 956 l 823 956 l 823 332 z "},"K":{"ha":1157,"x_min":103,"x_max":1137,"o":"m 410 547 l 750 956 l 1131 956 l 787 562 l 1137 0 l 775 0 l 576 350 l 410 214 l 410 0 l 103 0 l 103 956 l 410 956 l 410 547 z "},"L":{"ha":926,"x_min":103,"x_max":900,"o":"m 103 0 l 103 956 l 410 956 l 410 244 l 900 244 l 900 0 l 103 0 z "},"M":{"ha":1311,"x_min":83,"x_max":1227,"o":"m 1227 0 l 924 0 l 924 345 q 927 453 924 399 q 935 550 930 507 q 946 647 939 601 l 940 647 l 764 0 l 524 0 l 346 646 l 340 646 q 353 549 347 600 q 361 453 357 507 q 366 345 366 399 l 366 0 l 83 0 l 83 956 l 517 956 l 661 404 l 667 404 l 810 956 l 1227 956 l 1227 0 z "},"N":{"ha":1157,"x_min":103,"x_max":1054,"o":"m 1054 0 l 786 0 l 385 464 l 385 0 l 103 0 l 103 956 l 371 956 l 772 485 l 772 956 l 1054 956 l 1054 0 z "},"O":{"ha":1157,"x_min":62,"x_max":1095,"o":"m 578 972 q 796 941 700 972 q 959 847 892 909 q 1060 693 1025 785 q 1095 478 1095 600 q 1060 263 1095 355 q 959 108 1025 170 q 796 15 892 46 q 578 -17 700 -17 q 360 15 456 -17 q 198 108 264 46 q 97 263 132 170 q 62 478 62 355 q 97 693 62 600 q 198 847 132 785 q 360 941 264 909 q 578 972 456 972 m 578 743 q 489 727 527 743 q 427 682 452 711 q 389 612 401 652 q 376 522 376 571 l 376 433 q 389 344 376 385 q 427 274 401 303 q 489 229 452 245 q 578 212 527 212 q 667 229 629 212 q 730 274 705 245 q 768 344 755 303 q 781 433 781 385 l 781 522 q 768 612 781 571 q 730 682 755 652 q 667 727 705 711 q 578 743 629 743 z "},"P":{"ha":1003,"x_min":103,"x_max":945,"o":"m 639 956 q 763 932 707 956 q 860 866 819 908 q 922 767 900 824 q 945 642 945 709 l 945 624 q 922 498 945 556 q 860 398 900 441 q 763 332 819 356 q 639 309 707 309 l 410 309 l 410 0 l 103 0 l 103 956 l 639 956 m 410 729 l 410 532 l 536 532 q 609 557 585 532 q 633 625 633 583 l 633 636 q 610 704 633 679 q 536 729 587 729 l 410 729 z "},"Q":{"ha":1157,"x_min":62,"x_max":1095,"o":"m 62 478 q 97 693 62 600 q 198 847 132 785 q 360 941 264 909 q 578 972 456 972 q 796 941 700 972 q 959 847 892 909 q 1060 693 1025 785 q 1095 478 1095 600 q 1034 205 1095 315 q 859 39 972 96 l 1076 -182 l 711 -182 l 564 -17 q 351 17 444 -15 q 194 112 258 50 q 96 265 130 174 q 62 478 62 357 m 781 522 q 768 612 781 571 q 730 682 755 652 q 667 727 705 711 q 578 743 629 743 q 489 727 527 743 q 427 682 452 711 q 389 612 401 652 q 376 522 376 571 l 376 433 q 389 344 376 385 q 427 274 401 303 q 489 229 452 245 q 578 212 527 212 q 667 229 629 212 q 730 274 705 245 q 768 344 755 303 q 781 433 781 385 l 781 522 z "},"R":{"ha":1080,"x_min":103,"x_max":1038,"o":"m 1010 663 q 998 581 1010 621 q 964 507 987 541 q 906 445 941 472 q 825 400 871 417 l 1038 0 l 693 0 l 524 349 l 410 349 l 410 0 l 103 0 l 103 956 l 688 956 q 827 931 767 956 q 928 867 888 907 q 989 774 969 827 q 1010 663 1010 721 m 697 650 q 690 685 697 669 q 672 713 684 701 q 644 731 660 724 q 611 737 629 737 l 410 737 l 410 561 l 611 561 q 644 568 629 561 q 672 586 660 574 q 690 614 684 598 q 697 650 697 631 z "},"S":{"ha":1003,"x_min":60,"x_max":953,"o":"m 504 972 q 666 955 590 972 q 800 902 743 938 q 891 810 857 865 q 926 677 925 754 l 926 661 l 639 661 l 639 667 q 632 703 639 686 q 610 734 625 720 q 572 755 595 747 q 515 764 549 764 q 420 745 452 764 q 389 701 389 726 q 413 658 389 674 q 476 630 437 642 q 566 610 515 619 q 668 588 616 601 q 771 556 721 575 q 862 506 822 537 q 927 429 902 475 q 953 317 951 383 q 921 164 953 228 q 832 61 889 101 q 699 2 776 20 q 532 -17 622 -17 q 345 -2 431 -17 q 195 51 258 13 q 96 156 132 90 q 60 323 60 222 l 350 323 q 361 261 350 285 q 392 225 372 238 q 440 207 412 212 q 504 203 469 203 q 549 204 525 203 q 592 212 572 206 q 626 231 612 218 q 639 267 639 244 q 615 308 639 292 q 551 335 591 323 q 460 355 511 346 q 357 378 410 365 q 254 413 304 392 q 163 467 203 433 q 99 548 123 500 q 75 667 75 597 q 111 808 75 750 q 205 903 146 867 q 341 956 264 939 q 504 972 419 972 z "},"T":{"ha":1003,"x_min":32,"x_max":965,"o":"m 965 711 l 653 711 l 653 0 l 346 0 l 346 711 l 32 711 l 32 956 l 965 956 l 965 711 z "},"U":{"ha":1157,"x_min":103,"x_max":1054,"o":"m 1054 385 q 1022 211 1054 286 q 929 85 990 136 q 780 9 868 35 q 579 -17 692 -17 q 378 9 467 -17 q 229 85 290 35 q 135 211 168 136 q 103 385 103 286 l 103 956 l 410 956 l 410 389 q 420 318 410 350 q 452 262 431 286 q 504 225 473 239 q 578 212 536 212 q 652 225 620 212 q 705 262 684 239 q 737 318 726 286 q 747 389 747 350 l 747 956 l 1054 956 l 1054 385 z "},"V":{"ha":1080,"x_min":24,"x_max":1055,"o":"m 718 0 l 363 0 l 24 956 l 351 956 l 543 317 l 549 317 l 742 956 l 1055 956 l 718 0 z "},"W":{"ha":1389,"x_min":7,"x_max":1382,"o":"m 1158 0 l 821 0 l 697 582 l 692 582 l 568 0 l 231 0 l 7 956 l 326 956 l 436 414 l 441 414 l 550 956 l 852 956 l 968 414 l 974 414 l 1076 956 l 1382 956 l 1158 0 z "},"X":{"ha":1080,"x_min":5,"x_max":1080,"o":"m 739 504 l 1080 0 l 708 0 l 532 297 l 526 297 l 350 0 l 5 0 l 347 505 l 39 956 l 410 956 l 554 711 l 559 711 l 705 956 l 1048 956 l 739 504 z "},"Y":{"ha":1080,"x_min":9,"x_max":1069,"o":"m 696 371 l 696 0 l 389 0 l 389 371 l 9 956 l 363 956 l 546 637 l 551 637 l 734 956 l 1069 956 l 696 371 z "},"Z":{"ha":1003,"x_min":33,"x_max":960,"o":"m 949 857 l 505 229 l 960 229 l 960 0 l 33 0 l 33 98 l 476 726 l 66 726 l 66 956 l 949 956 l 949 857 z "},"[":{"ha":541,"x_min":92,"x_max":471,"o":"m 471 880 l 313 880 l 313 -79 l 471 -79 l 471 -222 l 92 -222 l 92 1023 l 471 1023 l 471 880 z "},"\\":{"ha":386,"x_min":-3,"x_max":387,"o":"m 387 -66 l 218 -66 l -3 1022 l 165 1022 l 387 -66 z "},"]":{"ha":541,"x_min":92,"x_max":471,"o":"m 471 -222 l 92 -222 l 92 -79 l 250 -79 l 250 880 l 92 880 l 92 1023 l 471 1023 l 471 -222 z "},"^":{"ha":917,"x_min":77,"x_max":839,"o":"m 839 468 l 642 468 l 460 762 l 277 468 l 77 468 l 358 956 l 557 956 l 839 468 z "},"_":{"ha":694,"x_min":0,"x_max":694,"o":"m 694 -175 l 0 -175 l 0 -89 l 694 -89 l 694 -175 z "},"`":{"ha":463,"x_min":32,"x_max":431,"o":"m 431 822 l 254 822 l 32 1002 l 35 1007 l 302 1007 l 431 822 z "},"a":{"ha":926,"x_min":41,"x_max":920,"o":"m 446 750 q 590 738 521 750 q 711 699 659 726 q 794 625 764 671 q 825 511 825 579 l 825 225 q 836 186 825 202 q 869 171 846 171 l 920 171 l 920 11 q 882 -3 904 3 q 837 -13 864 -9 q 775 -17 810 -17 q 641 8 691 -17 q 571 75 590 33 q 521 40 548 57 q 460 11 494 24 q 388 -9 427 -2 q 300 -17 348 -17 q 195 -6 243 -17 q 113 28 147 4 q 60 92 79 53 q 41 189 41 132 q 76 322 41 271 q 175 402 110 374 q 334 440 240 431 q 549 450 429 450 l 549 486 q 540 525 549 509 q 517 552 532 542 q 484 568 503 563 q 441 574 464 574 q 405 571 423 574 q 371 560 386 568 q 346 541 355 553 q 336 510 336 528 l 336 504 l 64 504 q 62 514 62 509 q 62 524 62 518 q 87 616 62 574 q 160 688 111 658 q 280 734 208 718 q 446 750 351 750 m 549 319 q 443 312 487 319 q 372 293 399 305 q 331 263 344 280 q 318 225 318 245 q 326 190 318 203 q 348 169 334 176 q 378 158 361 161 q 412 155 395 155 q 464 163 439 155 q 507 184 488 170 q 537 216 526 197 q 549 257 549 235 l 549 319 z "},"b":{"ha":926,"x_min":85,"x_max":876,"o":"m 361 665 q 452 729 401 708 q 567 750 504 750 q 697 726 640 750 q 794 655 755 703 q 855 536 834 608 q 876 368 876 464 q 855 199 876 271 q 794 79 834 127 q 697 7 755 31 q 567 -17 640 -17 q 433 13 492 -17 q 334 104 374 43 l 310 0 l 85 0 l 85 1007 l 361 1007 l 361 665 m 481 546 q 425 533 448 546 q 387 499 402 521 q 365 450 372 478 q 358 389 358 421 l 358 343 q 365 282 358 311 q 387 233 372 254 q 425 199 402 212 q 481 187 448 187 q 536 197 513 187 q 573 226 559 208 q 594 270 587 244 q 600 329 600 296 l 600 403 q 594 461 600 435 q 573 507 587 488 q 536 536 559 526 q 481 546 513 546 z "},"c":{"ha":926,"x_min":50,"x_max":867,"o":"m 463 750 q 620 733 547 750 q 749 678 694 715 q 835 581 804 640 q 867 437 867 522 l 599 437 q 563 532 599 503 q 463 562 528 562 q 400 551 426 562 q 358 520 374 541 q 334 471 342 500 q 326 406 326 442 l 326 326 q 359 212 326 254 q 468 171 392 171 q 573 201 536 171 q 610 298 610 231 l 867 298 q 835 155 867 215 q 749 57 804 95 q 620 1 694 19 q 463 -17 547 -17 q 293 7 369 -17 q 162 78 216 31 q 79 198 109 126 q 50 367 50 271 q 79 535 50 463 q 162 655 109 607 q 293 726 216 703 q 463 750 369 750 z "},"d":{"ha":926,"x_min":50,"x_max":842,"o":"m 842 0 l 616 0 l 593 104 q 493 13 552 43 q 359 -17 434 -17 q 229 7 287 -17 q 132 79 172 31 q 71 199 92 127 q 50 368 50 271 q 71 536 50 464 q 132 655 92 608 q 229 726 172 703 q 359 750 287 750 q 473 729 421 750 q 566 665 526 708 l 566 1007 l 842 1007 l 842 0 m 446 546 q 390 536 413 546 q 353 507 368 526 q 333 461 339 488 q 326 403 326 435 l 326 329 q 333 270 326 296 q 353 226 339 244 q 390 197 368 208 q 446 187 413 187 q 501 199 478 187 q 539 233 524 212 q 561 282 554 254 q 568 343 568 311 l 568 389 q 561 450 568 421 q 539 499 554 478 q 501 533 524 521 q 446 546 478 546 z "},"e":{"ha":926,"x_min":50,"x_max":876,"o":"m 463 750 q 638 727 562 750 q 768 657 715 705 q 849 538 821 610 q 876 367 876 466 l 876 319 l 326 319 q 360 202 326 243 q 473 160 395 160 q 536 168 511 160 q 578 191 562 176 q 601 225 594 205 q 608 267 608 244 l 876 267 q 851 148 876 201 q 777 59 827 96 q 653 3 727 22 q 479 -17 578 -17 q 301 6 380 -17 q 165 76 221 28 q 80 196 110 123 q 50 367 50 268 q 79 535 50 463 q 162 655 109 607 q 293 726 216 703 q 463 750 369 750 m 473 574 q 369 541 404 574 q 328 450 335 507 l 597 450 q 565 541 597 508 q 473 574 532 574 z "},"f":{"ha":541,"x_min":11,"x_max":532,"o":"m 382 1023 q 417 1021 397 1023 q 458 1016 437 1019 q 498 1008 479 1013 q 532 999 517 1004 l 532 836 l 468 836 q 430 832 445 836 q 406 819 415 827 q 394 795 397 810 q 390 762 390 781 l 390 733 l 532 733 l 532 546 l 390 546 l 390 0 l 114 0 l 114 546 l 11 546 l 11 733 l 114 733 l 114 764 q 134 889 114 839 q 189 968 153 939 q 273 1011 224 998 q 382 1023 323 1023 z "},"g":{"ha":926,"x_min":7,"x_max":908,"o":"m 908 871 q 897 793 908 826 q 863 737 885 760 q 810 698 841 713 q 739 672 779 682 q 803 601 780 642 q 825 514 825 560 q 800 408 825 452 q 733 335 775 363 q 634 292 690 306 q 517 278 578 278 l 411 278 q 343 267 363 278 q 323 237 323 255 q 327 221 323 229 q 341 207 331 213 q 368 198 351 201 q 411 195 385 195 l 661 195 q 771 177 725 195 q 848 128 818 159 q 893 54 879 97 q 908 -40 908 11 q 883 -149 908 -102 q 815 -227 858 -195 q 717 -275 773 -259 q 600 -292 661 -292 l 192 -292 q 120 -278 154 -292 q 61 -240 86 -264 q 21 -183 36 -216 q 7 -113 7 -151 q 16 -59 7 -84 q 42 -12 26 -33 q 79 25 58 9 q 123 52 100 41 q 71 107 90 75 q 52 180 52 140 q 62 233 52 208 q 92 279 73 258 q 137 315 111 300 q 192 338 163 330 q 145 373 167 354 q 108 415 123 393 q 83 461 92 437 q 74 513 74 486 q 104 626 74 581 q 185 700 134 672 q 306 739 237 727 q 452 750 374 750 q 522 748 494 750 q 572 742 549 746 q 636 791 614 768 q 668 831 658 814 q 681 871 680 852 l 908 871 m 342 0 q 290 -17 311 0 q 269 -66 269 -34 q 290 -118 269 -99 q 342 -138 311 -138 l 558 -138 q 610 -119 589 -138 q 632 -68 632 -100 q 610 -18 632 -35 q 558 0 589 0 l 342 0 m 449 606 q 408 600 427 606 q 375 583 389 595 q 353 554 361 572 q 345 514 345 537 q 372 445 345 467 q 449 422 399 422 q 527 445 498 422 q 555 514 555 467 q 527 583 555 561 q 449 606 498 606 z "},"h":{"ha":926,"x_min":83,"x_max":844,"o":"m 359 657 q 463 726 404 701 q 589 750 523 750 q 702 731 654 750 q 782 677 750 713 q 829 591 813 642 q 844 475 844 540 l 844 0 l 568 0 l 568 441 q 545 517 568 488 q 475 546 522 546 q 428 537 449 546 q 391 512 406 528 q 368 475 376 496 q 359 431 359 454 l 359 0 l 83 0 l 83 1007 l 359 1007 l 359 657 z "},"i":{"ha":463,"x_min":93,"x_max":370,"o":"m 370 0 l 93 0 l 93 733 l 370 733 l 370 0 m 370 819 l 93 819 l 93 1007 l 370 1007 l 370 819 z "},"j":{"ha":463,"x_min":-57,"x_max":370,"o":"m 370 -40 q 355 -155 370 -107 q 309 -233 340 -202 q 230 -277 278 -263 q 115 -292 182 -292 q 76 -290 98 -292 q 29 -285 53 -288 q -18 -277 5 -281 q -57 -267 -41 -273 l -57 -102 l 16 -102 q 75 -78 57 -102 q 93 -12 93 -55 l 93 733 l 370 733 l 370 -40 m 370 819 l 93 819 l 93 1007 l 370 1007 l 370 819 z "},"k":{"ha":926,"x_min":83,"x_max":924,"o":"m 359 453 l 595 733 l 917 733 l 646 437 l 924 0 l 610 0 l 456 252 l 359 158 l 359 0 l 83 0 l 83 1008 l 359 1008 l 359 453 z "},"l":{"ha":463,"x_min":93,"x_max":370,"o":"m 370 0 l 93 0 l 93 1007 l 370 1007 l 370 0 z "},"m":{"ha":1389,"x_min":83,"x_max":1307,"o":"m 1057 750 q 1167 731 1120 750 q 1245 677 1215 713 q 1292 591 1276 642 q 1307 475 1307 540 l 1307 0 l 1031 0 l 1031 441 q 1008 517 1031 488 q 943 546 986 546 q 898 537 918 546 q 863 512 878 528 q 841 475 849 496 q 833 431 833 454 l 833 0 l 557 0 l 557 441 q 534 517 557 488 q 469 546 512 546 q 424 537 444 546 q 389 512 404 528 q 367 475 375 496 q 359 431 359 454 l 359 0 l 83 0 l 83 733 l 310 733 l 328 624 q 377 676 349 653 q 438 716 405 700 q 508 741 471 732 q 583 750 545 750 q 723 717 668 750 q 806 624 779 684 q 855 676 827 652 q 916 715 883 699 q 984 741 948 732 q 1057 750 1020 750 z "},"n":{"ha":926,"x_min":83,"x_max":844,"o":"m 589 750 q 702 731 654 750 q 782 677 750 713 q 829 591 813 642 q 844 475 844 540 l 844 0 l 568 0 l 568 441 q 545 517 568 488 q 475 546 522 546 q 428 537 449 546 q 391 512 406 528 q 368 475 376 496 q 359 431 359 454 l 359 0 l 83 0 l 83 733 l 310 733 l 328 623 q 378 675 349 652 q 441 715 407 699 q 512 741 475 732 q 589 750 550 750 z "},"o":{"ha":926,"x_min":50,"x_max":876,"o":"m 463 750 q 633 726 556 750 q 763 655 709 703 q 847 535 817 607 q 876 367 876 463 q 847 198 876 271 q 763 78 817 126 q 633 7 709 31 q 463 -17 556 -17 q 293 7 369 -17 q 162 78 216 31 q 79 198 109 126 q 50 367 50 271 q 79 535 50 463 q 162 655 109 607 q 293 726 216 703 q 463 750 369 750 m 463 562 q 400 551 426 562 q 358 520 374 541 q 334 471 342 500 q 326 406 326 442 l 326 326 q 334 261 326 290 q 358 212 342 232 q 400 181 374 192 q 463 171 426 171 q 568 212 535 171 q 600 326 600 254 l 600 406 q 592 471 600 442 q 568 520 585 500 q 525 551 551 541 q 463 562 499 562 z "},"p":{"ha":926,"x_min":85,"x_max":876,"o":"m 567 750 q 697 726 640 750 q 794 655 755 703 q 855 535 834 607 q 876 366 876 463 q 855 198 876 270 q 794 78 834 126 q 697 7 755 31 q 567 -17 640 -17 q 452 3 504 -17 q 361 66 401 24 l 361 -273 l 85 -273 l 85 733 l 310 733 l 334 629 q 433 721 374 691 q 567 750 492 750 m 481 546 q 425 534 448 546 q 387 500 402 522 q 365 451 372 479 q 358 390 358 422 l 358 345 q 365 283 358 312 q 387 234 372 255 q 425 200 402 212 q 481 187 448 187 q 536 197 513 187 q 573 227 559 208 q 594 272 587 245 q 600 330 600 298 l 600 404 q 594 463 600 437 q 573 507 587 489 q 536 536 559 526 q 481 546 513 546 z "},"q":{"ha":926,"x_min":50,"x_max":842,"o":"m 359 750 q 493 721 434 750 q 593 629 552 691 l 616 733 l 842 733 l 842 -273 l 566 -273 l 566 66 q 473 3 526 24 q 359 -17 421 -17 q 229 7 287 -17 q 132 78 172 31 q 71 198 92 126 q 50 366 50 270 q 71 535 50 463 q 132 655 92 607 q 229 726 172 703 q 359 750 287 750 m 446 546 q 390 536 413 546 q 353 507 368 526 q 333 463 339 489 q 326 404 326 437 l 326 330 q 333 272 326 298 q 353 227 339 245 q 390 197 368 208 q 446 187 413 187 q 501 200 478 187 q 539 234 524 212 q 561 283 554 255 q 568 345 568 312 l 568 390 q 561 451 568 422 q 539 500 554 479 q 501 534 524 522 q 446 546 478 546 z "},"r":{"ha":616,"x_min":83,"x_max":611,"o":"m 529 751 q 564 749 549 751 q 589 743 578 746 q 611 734 602 739 l 611 503 l 522 503 q 446 491 477 503 q 396 456 415 479 q 368 400 376 433 q 359 326 359 368 l 359 0 l 83 0 l 83 733 l 310 733 l 328 623 q 361 680 340 655 q 409 720 382 704 q 466 744 435 736 q 529 751 496 751 z "},"s":{"ha":848,"x_min":45,"x_max":802,"o":"m 432 750 q 560 738 497 750 q 673 697 623 725 q 753 624 722 669 q 783 514 783 579 l 526 514 q 515 550 526 536 q 491 571 505 564 q 459 582 476 579 q 428 585 442 585 q 402 584 419 585 q 369 579 385 583 q 340 565 352 574 q 328 538 328 555 q 348 507 328 518 q 401 489 368 496 q 477 477 435 482 q 565 463 520 471 q 652 440 609 454 q 728 400 694 425 q 781 337 761 375 q 802 243 802 299 q 771 117 802 168 q 688 37 740 67 q 567 -5 635 7 q 422 -17 498 -17 q 286 -3 353 -17 q 165 42 218 12 q 78 122 111 73 q 45 239 45 170 l 301 239 l 301 233 q 315 190 302 207 q 347 164 328 174 q 386 152 366 155 q 422 149 407 149 q 457 150 437 149 q 495 156 477 151 q 525 172 513 161 q 538 203 538 183 q 517 235 538 223 q 464 255 497 248 q 388 269 431 263 q 301 285 345 275 q 214 309 256 294 q 138 348 171 323 q 84 410 104 373 q 64 501 64 447 q 94 622 64 574 q 176 698 125 669 q 293 738 227 726 q 432 750 359 750 z "},"t":{"ha":616,"x_min":37,"x_max":572,"o":"m 416 733 l 572 733 l 572 546 l 416 546 l 416 267 q 420 225 416 243 q 432 195 423 208 q 456 177 441 183 q 494 171 471 171 l 572 171 l 572 8 q 532 -2 555 3 q 484 -10 509 -7 q 436 -15 460 -14 q 395 -17 413 -17 q 292 -7 338 -17 q 211 25 245 2 q 159 85 178 47 q 140 179 140 123 l 140 546 l 37 546 l 37 733 l 151 733 l 211 956 l 416 956 l 416 733 z "},"u":{"ha":926,"x_min":81,"x_max":842,"o":"m 842 0 l 615 0 l 597 111 q 547 58 576 81 q 484 17 518 34 q 413 -8 450 1 q 336 -17 375 -17 q 223 2 271 -17 q 143 56 175 20 q 96 142 112 91 q 81 258 81 193 l 81 733 l 357 733 l 357 292 q 380 216 357 245 q 450 187 404 187 q 497 196 476 187 q 534 221 519 205 q 557 258 549 237 q 566 302 566 279 l 566 733 l 842 733 l 842 0 z "},"v":{"ha":848,"x_min":0,"x_max":848,"o":"m 568 0 l 278 0 l 0 733 l 297 733 l 432 277 l 441 277 l 576 733 l 848 733 l 568 0 z "},"w":{"ha":1311,"x_min":0,"x_max":1311,"o":"m 1042 0 l 772 0 l 659 408 l 653 408 l 538 0 l 268 0 l 0 733 l 297 733 l 408 300 l 418 300 l 533 733 l 808 733 l 920 300 l 929 300 l 1042 733 l 1311 733 l 1042 0 z "},"x":{"ha":926,"x_min":5,"x_max":920,"o":"m 644 382 l 920 0 l 597 0 l 458 231 l 453 231 l 313 0 l 5 0 l 288 389 l 33 733 l 358 733 l 475 539 l 481 539 l 597 733 l 903 733 l 644 382 z "},"y":{"ha":848,"x_min":0,"x_max":848,"o":"m 587 22 q 531 -104 562 -46 q 457 -203 500 -161 q 355 -268 414 -245 q 216 -292 296 -292 q 124 -284 166 -292 q 57 -267 83 -276 l 57 -102 l 168 -102 q 228 -91 205 -102 q 264 -64 250 -80 q 283 -31 277 -49 q 292 0 289 -14 l 0 733 l 297 733 l 437 245 l 447 245 l 576 733 l 848 733 l 587 22 z "},"z":{"ha":772,"x_min":28,"x_max":743,"o":"m 730 647 l 419 187 l 743 187 l 743 0 l 28 0 l 28 90 l 336 546 l 45 546 l 45 733 l 730 733 l 730 647 z "},"{":{"ha":541,"x_min":41,"x_max":485,"o":"m 485 888 q 452 886 470 888 q 418 878 434 884 q 391 861 402 872 q 379 831 380 850 l 366 551 q 329 446 362 484 q 225 408 295 408 l 225 396 q 329 358 295 396 q 366 253 362 321 l 379 -28 q 391 -59 380 -47 q 418 -77 402 -71 q 451 -84 433 -83 q 485 -86 469 -86 l 485 -222 l 358 -222 q 288 -213 323 -222 q 225 -185 253 -204 q 180 -136 197 -165 q 163 -66 163 -106 l 163 271 q 153 306 163 292 q 126 330 142 321 q 87 343 109 339 q 41 347 65 347 l 41 457 q 84 461 62 457 q 123 476 105 466 q 152 500 140 486 q 163 536 163 515 l 163 868 q 180 938 163 908 q 225 986 197 967 q 288 1014 253 1005 q 358 1023 323 1023 l 485 1023 l 485 888 z "},"|":{"ha":386,"x_min":107,"x_max":279,"o":"m 279 -293 l 107 -293 l 107 1008 l 279 1008 l 279 -293 z "},"}":{"ha":541,"x_min":56,"x_max":498,"o":"m 182 1023 q 252 1014 217 1023 q 315 986 288 1005 q 360 938 343 967 q 378 868 378 908 l 378 536 q 389 500 378 515 q 417 476 400 486 q 456 461 435 466 q 498 457 477 457 l 498 347 q 453 343 475 347 q 415 330 431 339 q 388 306 398 321 q 378 271 378 292 l 378 -66 q 360 -136 378 -106 q 315 -185 343 -165 q 252 -213 288 -204 q 182 -222 217 -222 l 56 -222 l 56 -86 q 89 -84 71 -86 q 122 -77 106 -83 q 149 -59 138 -71 q 161 -28 160 -47 l 175 253 q 212 358 178 321 q 315 396 245 396 l 315 408 q 212 446 245 408 q 175 551 178 484 l 161 831 q 149 861 160 850 q 122 878 138 872 q 88 886 106 884 q 56 888 70 888 l 56 1023 l 182 1023 z "},"~":{"ha":917,"x_min":54,"x_max":863,"o":"m 863 387 q 797 332 833 356 q 723 294 766 311 q 629 277 680 277 q 570 284 599 277 q 514 301 542 291 q 460 324 487 311 q 405 347 433 336 q 348 364 377 357 q 288 371 319 371 q 194 354 236 371 q 120 315 151 336 q 54 260 83 291 l 54 440 q 120 496 83 471 q 194 534 151 517 q 288 551 236 551 q 374 537 333 551 q 456 504 416 522 q 539 472 497 486 q 629 457 582 457 q 723 474 680 457 q 797 513 766 492 q 863 568 833 537 l 863 387 z "},"€":{"ha":926,"x_min":32,"x_max":872,"o":"m 659 972 q 781 964 726 972 q 872 946 836 956 l 872 745 q 824 762 850 754 q 770 774 801 768 q 701 779 739 779 q 550 742 610 779 q 460 640 490 705 l 750 640 l 750 511 l 429 511 l 429 481 q 429 462 429 471 q 431 444 429 453 l 750 444 l 750 315 l 461 315 q 552 213 492 250 q 701 176 611 176 q 770 182 739 176 q 824 195 801 187 q 872 214 850 203 l 872 18 q 773 -6 828 5 q 654 -17 718 -17 q 563 -10 611 -17 q 468 12 515 -3 q 375 53 420 28 q 292 115 330 78 q 223 201 253 152 q 175 315 193 251 l 32 315 l 32 444 l 157 444 l 157 511 l 32 511 l 32 640 l 175 640 q 222 753 193 704 q 290 840 252 803 q 373 902 328 877 q 466 943 418 928 q 563 966 513 959 q 659 972 612 972 z "},"‚":{"ha":386,"x_min":61,"x_max":319,"o":"m 319 14 l 193 -253 l 61 -253 l 160 0 l 61 0 l 61 243 l 319 243 l 319 14 z "},"ƒ":{"ha":926,"x_min":50,"x_max":879,"o":"m 734 1023 q 769 1021 749 1023 q 809 1016 789 1019 q 847 1008 829 1013 q 879 999 866 1004 l 844 836 l 781 836 q 742 832 758 836 q 715 819 726 827 q 698 795 705 810 q 688 762 692 781 l 669 679 l 811 679 l 771 492 l 629 492 l 518 -32 q 471 -157 502 -107 q 399 -237 441 -207 q 306 -279 357 -267 q 195 -292 254 -292 q 160 -290 179 -292 q 120 -284 140 -288 q 82 -276 100 -281 q 50 -267 63 -272 l 85 -104 l 149 -104 q 187 -100 172 -104 q 214 -87 203 -96 q 231 -64 224 -78 q 241 -31 237 -50 l 353 492 l 250 492 l 290 679 l 393 679 l 411 764 q 458 889 427 839 q 530 968 488 939 q 624 1011 572 998 q 734 1023 675 1023 z "},"„":{"ha":694,"x_min":61,"x_max":637,"o":"m 319 14 l 193 -253 l 61 -253 l 160 0 l 61 0 l 61 243 l 319 243 l 319 14 m 637 14 l 511 -253 l 379 -253 l 478 0 l 379 0 l 379 243 l 637 243 l 637 14 z "},"…":{"ha":1389,"x_min":85,"x_max":1305,"o":"m 379 0 l 85 0 l 85 277 l 379 277 l 379 0 m 842 0 l 547 0 l 547 277 l 842 277 l 842 0 m 1305 0 l 1011 0 l 1011 277 l 1305 277 l 1305 0 z "},"†":{"ha":926,"x_min":96,"x_max":839,"o":"m 542 675 l 839 704 l 839 500 l 542 529 l 570 -257 l 366 -257 l 393 529 l 96 500 l 96 704 l 393 675 l 366 956 l 570 956 l 542 675 z "},"‡":{"ha":926,"x_min":96,"x_max":839,"o":"m 542 675 l 839 704 l 839 500 l 542 529 l 570 342 l 542 151 l 839 180 l 839 -24 l 542 5 l 570 -277 l 366 -277 l 393 5 l 96 -24 l 96 180 l 393 151 l 366 342 l 393 529 l 96 500 l 96 704 l 393 675 l 366 956 l 570 956 l 542 675 z "},"ˆ":{"ha":463,"x_min":-49,"x_max":515,"o":"m 515 806 l 335 806 l 232 913 l 129 806 l -49 806 l 144 1007 l 322 1007 l 515 806 z "},"‰":{"ha":1389,"x_min":0,"x_max":1389,"o":"m 351 0 l 232 0 l 579 956 l 700 956 l 351 0 m 204 878 q 153 850 168 878 q 138 758 138 822 l 138 689 q 153 597 138 625 q 204 570 168 570 q 255 597 241 570 q 269 689 269 625 l 269 758 q 255 850 269 822 q 204 878 241 878 m 204 972 q 303 955 264 972 q 366 904 343 937 q 399 825 389 871 q 408 724 408 779 q 399 622 408 668 q 366 544 389 576 q 303 493 343 511 q 204 475 264 475 q 106 493 145 475 q 43 544 66 511 q 10 622 20 576 q 0 724 0 668 q 10 825 0 779 q 43 904 20 871 q 106 955 66 937 q 204 972 145 972 m 725 386 q 673 358 688 386 q 659 267 659 330 l 659 197 q 673 106 659 134 q 725 78 688 78 q 776 106 762 78 q 790 197 790 134 l 790 267 q 776 358 790 330 q 725 386 762 386 m 725 481 q 824 463 785 481 q 887 412 864 445 q 920 333 910 379 q 929 232 929 288 q 920 131 929 176 q 887 52 910 85 q 824 1 864 19 q 725 -17 785 -17 q 627 1 666 -17 q 564 52 587 19 q 531 131 541 85 q 521 232 521 176 q 531 333 521 288 q 564 412 541 379 q 627 463 587 445 q 725 481 666 481 m 1185 386 q 1133 358 1148 386 q 1118 267 1118 330 l 1118 197 q 1133 106 1118 134 q 1185 78 1148 78 q 1236 106 1221 78 q 1250 197 1250 134 l 1250 267 q 1236 358 1250 330 q 1185 386 1221 386 m 1185 481 q 1284 463 1244 481 q 1347 412 1323 445 q 1379 333 1370 379 q 1389 232 1389 288 q 1379 131 1389 176 q 1347 52 1370 85 q 1284 1 1323 19 q 1185 -17 1244 -17 q 1086 1 1125 -17 q 1023 52 1046 19 q 990 131 1000 85 q 981 232 981 176 q 990 333 981 288 q 1023 412 1000 379 q 1086 463 1046 445 q 1185 481 1125 481 z "},"Š":{"ha":1003,"x_min":60,"x_max":953,"o":"m 504 972 q 666 955 590 972 q 800 902 743 938 q 891 810 857 865 q 926 677 925 754 l 926 661 l 639 661 l 639 667 q 632 703 639 686 q 610 734 625 720 q 572 755 595 747 q 515 764 549 764 q 420 745 452 764 q 389 701 389 726 q 413 658 389 674 q 476 630 437 642 q 566 610 515 619 q 668 588 616 601 q 771 556 721 575 q 862 506 822 537 q 927 429 902 475 q 953 317 951 383 q 921 164 953 228 q 832 61 889 101 q 699 2 776 20 q 532 -17 622 -17 q 345 -2 431 -17 q 195 51 258 13 q 96 156 132 90 q 60 323 60 222 l 350 323 q 361 261 350 285 q 392 225 372 238 q 440 207 412 212 q 504 203 469 203 q 549 204 525 203 q 592 212 572 206 q 626 231 612 218 q 639 267 639 244 q 615 308 639 292 q 551 335 591 323 q 460 355 511 346 q 357 378 410 365 q 254 413 304 392 q 163 467 203 433 q 99 548 123 500 q 75 667 75 597 q 111 808 75 750 q 205 903 146 867 q 341 956 264 939 q 504 972 419 972 m 591 1028 l 413 1028 l 220 1230 l 397 1230 l 500 1122 l 604 1230 l 784 1230 l 591 1028 z "},"‹":{"ha":463,"x_min":16,"x_max":446,"o":"m 254 450 l 446 165 l 248 165 l 16 450 l 248 733 l 446 733 l 254 450 z "},"Œ":{"ha":1389,"x_min":49,"x_max":1352,"o":"m 688 0 l 688 86 q 575 9 640 36 q 429 -17 510 -17 q 267 16 338 -17 q 148 113 196 50 q 74 269 99 177 q 49 478 49 361 q 74 687 49 595 q 148 842 99 779 q 267 939 196 906 q 429 972 338 972 q 575 946 510 972 q 688 868 640 919 l 688 956 l 1341 956 l 1341 726 l 957 726 l 957 595 l 1267 595 l 1267 375 l 957 375 l 957 229 l 1352 229 l 1352 0 l 688 0 m 689 522 q 678 612 689 571 q 646 682 667 652 q 591 727 624 711 q 514 743 558 743 q 437 727 470 743 q 382 682 404 711 q 350 612 361 652 q 339 522 339 571 l 339 433 q 350 344 339 385 q 382 274 361 303 q 437 229 404 245 q 514 212 470 212 q 591 229 558 212 q 646 274 624 245 q 678 344 667 303 q 689 433 689 385 l 689 522 z "},"Ž":{"ha":1003,"x_min":33,"x_max":960,"o":"m 949 857 l 505 229 l 960 229 l 960 0 l 33 0 l 33 98 l 476 726 l 66 726 l 66 956 l 949 956 l 949 857 m 591 1028 l 413 1028 l 220 1230 l 397 1230 l 500 1122 l 604 1230 l 784 1230 l 591 1028 z "},"‘":{"ha":386,"x_min":61,"x_max":319,"o":"m 221 703 l 319 703 l 319 460 l 61 460 l 61 689 l 187 956 l 319 956 l 221 703 z "},"’":{"ha":386,"x_min":66,"x_max":325,"o":"m 325 726 l 199 460 l 66 460 l 165 713 l 66 713 l 66 956 l 325 956 l 325 726 z "},"“":{"ha":694,"x_min":57,"x_max":633,"o":"m 217 703 l 315 703 l 315 460 l 57 460 l 57 689 l 183 956 l 315 956 l 217 703 m 535 703 l 633 703 l 633 460 l 375 460 l 375 689 l 501 956 l 633 956 l 535 703 z "},"”":{"ha":694,"x_min":61,"x_max":637,"o":"m 319 726 l 193 460 l 61 460 l 160 713 l 61 713 l 61 956 l 319 956 l 319 726 m 637 726 l 511 460 l 379 460 l 478 713 l 379 713 l 379 956 l 637 956 l 637 726 z "},"•":{"ha":694,"x_min":122,"x_max":572,"o":"m 347 704 q 434 686 393 704 q 506 638 475 669 q 554 567 536 608 q 572 479 572 526 q 554 392 572 433 q 506 320 536 351 q 434 272 475 290 q 347 254 393 254 q 260 272 301 254 q 189 320 219 290 q 140 392 158 351 q 122 479 122 433 q 140 567 122 526 q 189 638 158 608 q 260 686 219 669 q 347 704 301 704 z "},"–":{"ha":694,"x_min":0,"x_max":694,"o":"m 694 272 l 0 272 l 0 464 l 694 464 l 694 272 z "},"—":{"ha":1389,"x_min":0,"x_max":1392,"o":"m 1392 272 l 0 272 l 0 464 l 1392 464 l 1392 272 z "},"˜":{"ha":463,"x_min":-78,"x_max":539,"o":"m 539 1007 q 525 933 539 969 q 486 870 511 898 q 424 825 460 842 q 345 808 388 808 q 280 817 311 808 q 219 836 249 826 q 161 855 189 846 q 104 864 132 864 q 60 848 78 864 q 35 808 42 832 l -78 808 q -64 881 -78 846 q -24 945 -50 917 q 37 990 1 973 q 117 1007 73 1007 q 181 998 150 1007 q 242 979 212 989 q 300 960 272 969 q 357 951 329 951 q 401 967 383 951 q 427 1007 419 983 l 539 1007 z "},"™":{"ha":1320,"x_min":25,"x_max":1270,"o":"m 1270 403 l 1095 403 l 1095 575 q 1097 646 1095 610 q 1102 711 1099 682 q 1109 778 1105 746 l 1104 778 l 1002 403 l 863 403 l 760 777 l 754 777 q 762 711 759 745 q 768 646 766 682 q 771 575 771 610 l 771 403 l 608 403 l 608 956 l 859 956 l 940 636 l 947 636 l 1028 956 l 1270 956 l 1270 403 m 566 814 l 385 814 l 385 403 l 207 403 l 207 814 l 25 814 l 25 956 l 566 956 l 566 814 z "},"š":{"ha":848,"x_min":45,"x_max":802,"o":"m 432 750 q 560 738 497 750 q 673 697 623 725 q 753 624 722 669 q 783 514 783 579 l 526 514 q 515 550 526 536 q 491 571 505 564 q 459 582 476 579 q 428 585 442 585 q 402 584 419 585 q 369 579 385 583 q 340 565 352 574 q 328 538 328 555 q 348 507 328 518 q 401 489 368 496 q 477 477 435 482 q 565 463 520 471 q 652 440 609 454 q 728 400 694 425 q 781 337 761 375 q 802 243 802 299 q 771 117 802 168 q 688 37 740 67 q 567 -5 635 7 q 422 -17 498 -17 q 286 -3 353 -17 q 165 42 218 12 q 78 122 111 73 q 45 239 45 170 l 301 239 l 301 233 q 315 190 302 207 q 347 164 328 174 q 386 152 366 155 q 422 149 407 149 q 457 150 437 149 q 495 156 477 151 q 525 172 513 161 q 538 203 538 183 q 517 235 538 223 q 464 255 497 248 q 388 269 431 263 q 301 285 345 275 q 214 309 256 294 q 138 348 171 323 q 84 410 104 373 q 64 501 64 447 q 94 622 64 574 q 176 698 125 669 q 293 738 227 726 q 432 750 359 750 m 513 806 l 336 806 l 142 1007 l 320 1007 l 423 900 l 526 1007 l 707 1007 l 513 806 z "},"›":{"ha":463,"x_min":17,"x_max":447,"o":"m 17 733 l 215 733 l 447 450 l 215 165 l 17 165 l 208 450 l 17 733 z "},"œ":{"ha":1389,"x_min":40,"x_max":1353,"o":"m 953 750 q 1123 727 1048 750 q 1249 657 1198 705 q 1326 538 1300 610 q 1353 367 1353 466 l 1353 319 l 831 319 q 861 202 831 243 q 964 160 892 160 q 1020 168 997 160 q 1057 191 1043 176 q 1078 225 1072 205 q 1084 267 1084 244 l 1353 267 q 1329 148 1353 201 q 1257 59 1305 96 q 1137 3 1208 22 q 970 -17 1065 -17 q 818 0 886 -17 q 697 53 749 17 q 582 0 646 17 q 439 -17 517 -17 q 274 7 348 -17 q 149 78 201 31 q 68 198 97 126 q 40 367 40 271 q 68 535 40 463 q 149 655 97 607 q 274 726 201 703 q 439 750 348 750 q 582 733 517 750 q 697 681 647 715 q 953 750 798 750 m 439 562 q 383 551 406 562 q 345 520 359 541 q 323 471 330 500 q 317 406 317 442 l 317 326 q 345 212 317 254 q 439 171 373 171 q 533 212 505 171 q 562 326 562 254 l 562 406 q 533 520 562 478 q 439 562 505 562 m 964 574 q 869 541 900 574 q 832 450 838 507 l 1074 450 q 1045 541 1074 508 q 964 574 1017 574 z "},"ž":{"ha":772,"x_min":28,"x_max":743,"o":"m 730 647 l 419 187 l 743 187 l 743 0 l 28 0 l 28 90 l 336 546 l 45 546 l 45 733 l 730 733 l 730 647 m 475 806 l 298 806 l 104 1007 l 282 1007 l 385 900 l 488 1007 l 669 1007 l 475 806 z "},"Ÿ":{"ha":1080,"x_min":9,"x_max":1069,"o":"m 696 371 l 696 0 l 389 0 l 389 371 l 9 956 l 363 956 l 546 637 l 551 637 l 734 956 l 1069 956 l 696 371 m 799 1036 l 588 1036 l 588 1230 l 799 1230 l 799 1036 m 493 1036 l 282 1036 l 282 1230 l 493 1230 l 493 1036 z "}," ":{"ha":463,"x_min":0,"x_max":0,"o":""},"¡":{"ha":463,"x_min":65,"x_max":397,"o":"m 397 -222 l 65 -222 l 142 392 l 318 392 l 397 -222 m 368 476 l 93 476 l 93 733 l 368 733 l 368 476 z "},"¢":{"ha":926,"x_min":50,"x_max":867,"o":"m 533 859 q 665 831 604 852 q 771 772 726 810 q 841 680 816 734 q 867 550 867 625 l 599 550 q 563 645 599 615 q 463 675 528 675 q 400 664 426 675 q 358 633 374 653 q 334 584 342 612 q 326 518 326 555 l 326 439 q 359 325 326 366 q 468 283 392 283 q 573 313 536 283 q 610 411 610 343 l 867 411 q 841 280 867 336 q 771 186 816 224 q 665 127 726 149 q 533 98 604 105 l 545 -93 l 387 -93 l 397 98 q 253 134 317 106 q 144 209 189 161 q 75 323 99 256 q 50 479 50 391 q 75 634 50 567 q 144 749 99 702 q 253 824 189 797 q 397 860 317 852 l 387 1050 l 545 1050 l 533 859 z "},"£":{"ha":926,"x_min":43,"x_max":886,"o":"m 529 972 q 684 950 617 972 q 796 889 751 928 q 864 798 841 850 q 886 686 886 745 l 886 647 l 610 647 l 610 686 q 603 717 610 703 q 586 743 597 732 q 561 760 575 753 q 529 766 546 766 q 498 760 513 766 q 473 743 484 753 q 455 717 462 732 q 449 686 449 703 l 449 559 l 582 559 l 582 383 l 447 383 l 419 204 l 811 204 l 811 0 l 85 0 l 85 204 l 174 204 l 174 383 l 43 383 l 43 559 l 174 559 l 174 685 q 194 797 174 745 q 259 889 215 850 q 369 950 302 928 q 529 972 436 972 z "},"¤":{"ha":917,"x_min":96,"x_max":821,"o":"m 821 743 l 743 665 q 768 630 757 651 q 786 583 779 608 q 798 529 793 557 q 802 471 802 500 q 786 362 802 414 q 741 273 770 309 l 818 196 l 734 113 l 654 193 q 617 165 639 178 q 570 144 595 153 q 515 131 544 135 q 457 126 487 126 q 346 143 398 126 q 260 191 294 160 l 180 111 l 96 196 l 176 277 q 129 362 146 311 q 113 471 113 412 q 117 527 113 499 q 129 581 121 555 q 148 628 136 606 q 176 665 160 650 l 96 746 l 183 833 l 262 754 q 300 779 278 768 q 348 798 322 790 q 401 811 374 806 q 457 815 429 815 q 514 811 486 815 q 567 799 542 806 q 612 780 591 791 q 646 757 632 769 l 726 838 l 821 743 m 457 663 q 386 647 418 663 q 330 606 353 632 q 293 545 306 581 q 279 471 279 510 q 293 396 279 431 q 330 335 307 361 q 387 294 354 309 q 457 279 419 279 q 530 295 497 279 q 586 337 562 311 q 622 397 609 363 q 635 471 635 432 q 622 544 635 509 q 586 605 609 579 q 530 647 562 631 q 457 663 497 663 z "},"¥":{"ha":926,"x_min":3,"x_max":924,"o":"m 750 637 l 886 637 l 886 509 l 679 509 l 643 441 l 886 441 l 886 313 l 606 313 l 606 0 l 326 0 l 326 313 l 45 313 l 45 441 l 288 441 l 250 509 l 45 509 l 45 637 l 179 637 l 3 956 l 322 956 l 469 637 l 475 637 l 623 956 l 924 956 l 750 637 z "},"¦":{"ha":386,"x_min":109,"x_max":281,"o":"m 281 467 l 109 467 l 109 1008 l 281 1008 l 281 467 m 281 -292 l 109 -292 l 109 250 l 281 250 l 281 -292 z "},"§":{"ha":926,"x_min":75,"x_max":851,"o":"m 458 972 q 538 968 496 972 q 619 954 579 964 q 695 928 659 944 q 759 888 732 912 q 803 833 787 865 q 819 760 819 801 l 819 746 l 568 746 q 559 775 568 763 q 536 794 550 787 q 504 805 522 802 q 471 808 487 808 q 434 806 453 808 q 400 798 416 804 q 375 782 385 791 q 366 758 366 772 q 387 716 366 734 q 441 681 408 697 q 519 649 475 665 q 608 614 563 633 q 697 574 654 596 q 775 522 741 551 q 830 453 809 492 q 851 363 851 414 q 838 287 851 321 q 804 226 824 252 q 763 181 785 199 q 725 151 741 162 q 801 78 772 119 q 831 -18 831 37 q 814 -99 831 -64 q 771 -161 798 -134 q 707 -205 744 -187 q 631 -234 671 -223 q 549 -251 591 -245 q 468 -256 507 -256 q 389 -251 430 -256 q 307 -237 347 -247 q 231 -211 267 -227 q 167 -172 195 -195 q 123 -116 140 -148 q 107 -43 107 -84 l 107 -29 l 358 -29 q 367 -59 358 -47 q 391 -78 376 -71 q 422 -88 405 -85 q 456 -92 439 -92 q 492 -89 473 -92 q 526 -81 511 -87 q 551 -65 541 -75 q 561 -41 561 -56 q 540 1 561 -18 q 485 36 519 20 q 407 68 451 52 q 318 102 363 84 q 229 143 273 121 q 151 195 185 165 q 96 264 117 225 q 75 354 75 303 q 89 430 75 395 q 121 490 102 464 q 162 536 140 517 q 200 566 184 555 q 125 638 154 597 q 96 734 96 680 q 112 815 96 780 q 156 878 128 851 q 219 922 183 904 q 296 951 256 940 q 378 967 336 962 q 458 972 420 972 m 350 488 q 321 457 334 475 q 307 418 307 439 q 331 360 307 385 q 392 313 354 334 q 478 271 430 291 q 576 229 526 250 q 606 258 592 241 q 619 298 619 275 q 596 356 619 331 q 534 404 572 382 q 448 446 496 426 q 350 488 400 466 z "},"¨":{"ha":463,"x_min":-28,"x_max":489,"o":"m 489 814 l 278 814 l 278 1007 l 489 1007 l 489 814 m 183 814 l -28 814 l -28 1007 l 183 1007 l 183 814 z "},"©":{"ha":1111,"x_min":61,"x_max":1053,"o":"m 555 972 q 693 955 628 972 q 814 906 759 938 q 913 829 869 874 q 988 730 958 785 q 1036 612 1019 675 q 1053 479 1053 549 q 1016 285 1053 376 q 913 127 979 195 q 756 22 848 60 q 555 -17 665 -17 q 355 22 446 -17 q 199 127 264 60 q 97 285 134 195 q 61 479 61 376 q 97 673 61 583 q 199 829 134 763 q 355 934 264 896 q 555 972 446 972 m 562 775 q 676 759 625 775 q 763 712 727 743 q 819 635 800 681 q 839 529 839 589 l 663 529 q 636 608 663 578 q 561 637 610 637 q 511 628 531 637 q 477 600 490 618 q 459 558 465 583 q 453 504 453 534 l 453 452 q 459 397 453 422 q 478 355 465 373 q 511 328 491 338 q 559 318 532 318 q 641 346 614 318 q 668 424 668 373 l 839 424 q 820 319 839 364 q 766 242 802 273 q 679 196 730 212 q 562 180 628 180 q 339 255 414 180 q 264 478 264 330 q 339 700 264 625 q 562 775 414 775 m 555 884 q 395 855 467 884 q 273 773 323 826 q 195 646 222 720 q 168 479 168 571 q 195 313 168 388 q 273 185 222 238 q 395 103 323 132 q 555 74 467 74 q 716 103 644 74 q 840 185 789 132 q 918 313 890 238 q 946 479 946 388 q 918 646 946 571 q 840 773 890 720 q 716 855 789 826 q 555 884 644 884 z "},"ª":{"ha":555,"x_min":17,"x_max":591,"o":"m 282 1023 q 376 1016 331 1023 q 454 992 420 1008 q 509 947 488 975 q 529 879 529 920 l 529 708 q 536 685 529 694 q 558 675 544 675 q 569 675 563 675 q 580 677 574 675 q 591 679 586 677 l 591 583 q 566 572 581 577 q 537 565 554 568 q 497 562 519 562 q 409 577 442 562 q 364 618 376 593 q 331 597 349 607 q 291 579 313 587 q 243 567 269 572 q 186 562 217 562 q 117 569 149 562 q 64 590 86 575 q 29 628 41 605 q 17 686 17 652 q 39 766 17 736 q 104 814 62 797 q 208 837 146 831 q 349 843 270 843 l 349 865 q 329 904 349 891 q 279 917 309 917 q 255 915 267 917 q 233 908 243 913 q 216 895 222 903 q 210 875 210 887 l 32 875 q 31 881 31 878 q 31 888 31 884 q 46 943 31 918 q 94 986 62 968 q 173 1014 126 1004 q 282 1023 220 1023 m 349 765 q 280 761 309 765 q 234 749 252 756 q 207 731 216 741 q 199 708 199 720 q 204 687 199 695 q 218 674 209 679 q 237 668 227 670 q 260 667 248 667 q 293 671 277 667 q 321 684 309 675 q 341 703 334 692 q 349 728 349 714 l 349 765 z "},"«":{"ha":926,"x_min":83,"x_max":842,"o":"m 650 450 l 842 165 l 643 165 l 411 450 l 643 733 l 842 733 l 650 450 m 322 450 l 514 165 l 315 165 l 83 450 l 315 733 l 514 733 l 322 450 z "},"¬":{"ha":917,"x_min":69,"x_max":839,"o":"m 839 214 l 625 214 l 625 465 l 69 465 l 69 681 l 839 681 l 839 214 z "},"­":{"ha":463,"x_min":54,"x_max":408,"o":"m 408 272 l 54 272 l 54 492 l 408 492 l 408 272 z "},"®":{"ha":1111,"x_min":61,"x_max":1053,"o":"m 555 972 q 693 955 628 972 q 814 906 759 938 q 913 829 869 874 q 988 730 958 785 q 1036 612 1019 675 q 1053 479 1053 549 q 1016 285 1053 376 q 913 127 979 195 q 756 22 848 60 q 555 -17 665 -17 q 355 22 446 -17 q 199 127 264 60 q 97 285 134 195 q 61 479 61 376 q 97 673 61 583 q 199 829 134 763 q 355 934 264 896 q 555 972 446 972 m 555 884 q 395 855 467 884 q 273 773 323 826 q 195 646 222 720 q 168 479 168 571 q 195 313 168 388 q 273 185 222 238 q 395 103 323 132 q 555 74 467 74 q 716 103 644 74 q 840 185 789 132 q 918 313 890 238 q 946 479 946 388 q 918 646 946 571 q 840 773 890 720 q 716 855 789 826 q 555 884 644 884 m 636 765 q 698 755 669 765 q 749 726 727 745 q 784 680 771 707 q 796 621 796 653 q 787 564 796 588 q 764 523 778 540 q 733 494 749 505 q 703 478 717 484 l 703 471 q 774 421 752 457 q 796 336 796 385 q 797 307 796 323 q 802 276 798 291 q 815 249 806 260 q 839 233 823 237 l 839 199 q 789 185 816 189 q 737 182 762 182 q 642 204 675 182 q 608 285 608 227 q 607 322 608 303 q 598 358 605 342 q 575 385 591 374 q 533 395 560 395 l 507 395 l 507 192 l 322 192 l 322 765 l 636 765 m 507 635 l 507 522 l 555 522 q 593 538 577 522 q 608 579 608 554 q 593 619 608 603 q 555 635 577 635 l 507 635 z "},"¯":{"ha":463,"x_min":12,"x_max":452,"o":"m 452 840 l 12 840 l 12 979 l 452 979 l 452 840 z "},"°":{"ha":555,"x_min":69,"x_max":486,"o":"m 278 972 q 359 956 321 972 q 425 911 397 939 q 470 844 453 882 q 486 764 486 806 q 470 682 486 720 q 425 616 453 644 q 359 572 397 588 q 278 555 321 555 q 197 572 235 555 q 131 616 159 588 q 86 682 102 644 q 69 764 70 720 q 85 844 69 806 q 130 911 102 882 q 197 956 159 939 q 278 972 235 972 m 275 848 q 243 842 258 848 q 216 823 228 835 q 197 795 204 811 q 191 762 191 780 q 197 729 191 745 q 216 702 204 713 q 243 683 227 690 q 277 676 259 676 q 310 683 294 676 q 337 702 326 690 q 356 729 349 713 q 363 762 363 745 q 356 795 363 780 q 337 823 349 811 q 310 842 326 835 q 275 848 294 848 z "},"±":{"ha":917,"x_min":92,"x_max":825,"o":"m 550 681 l 825 681 l 825 497 l 550 497 l 550 244 l 367 244 l 367 497 l 92 497 l 92 681 l 367 681 l 367 933 l 550 933 l 550 681 m 825 0 l 92 0 l 92 183 l 825 183 l 825 0 z "},"²":{"ha":555,"x_min":22,"x_max":542,"o":"m 293 1023 q 393 1011 349 1023 q 469 976 438 998 q 517 922 500 954 q 534 851 534 890 q 511 768 534 804 q 450 702 488 732 q 364 642 412 671 q 268 582 317 614 l 542 582 l 542 440 l 22 440 l 22 481 q 29 524 22 504 q 47 563 35 545 q 74 597 58 581 q 110 629 90 614 q 208 704 163 673 q 285 760 252 736 q 336 805 317 785 q 354 844 354 825 q 350 867 354 857 q 335 887 345 878 q 311 900 326 895 q 275 905 296 905 q 210 883 233 905 q 187 828 187 861 l 187 811 l 25 811 q 24 821 24 817 q 24 829 24 825 q 41 909 24 873 q 91 970 58 945 q 175 1009 125 996 q 293 1023 226 1023 z "},"³":{"ha":555,"x_min":21,"x_max":553,"o":"m 292 1023 q 395 1011 350 1023 q 471 978 440 999 q 518 928 503 956 q 534 868 534 900 q 528 827 534 846 q 509 791 521 807 q 480 762 497 774 q 443 743 463 750 l 443 737 q 524 686 496 722 q 553 597 553 650 q 534 533 551 563 q 486 480 518 503 q 405 445 454 458 q 288 432 355 432 q 169 445 219 432 q 86 480 119 458 q 37 532 53 503 q 21 596 21 562 l 21 614 l 182 614 q 186 587 182 600 q 201 566 191 575 q 231 551 212 557 q 277 546 249 546 q 350 567 328 546 q 371 623 371 589 q 353 668 371 653 q 307 682 334 682 l 240 682 l 240 785 l 293 785 q 338 799 319 785 q 357 844 357 813 q 351 868 357 857 q 336 889 346 880 q 311 904 326 899 q 277 909 296 909 q 215 891 236 909 q 193 847 193 872 l 41 847 l 41 868 q 58 928 41 900 q 107 978 75 956 q 185 1011 139 999 q 292 1023 232 1023 z "},"´":{"ha":463,"x_min":41,"x_max":440,"o":"m 440 1002 l 218 822 l 41 822 l 170 1007 l 437 1007 l 440 1002 z "},"µ":{"ha":926,"x_min":81,"x_max":842,"o":"m 842 0 l 615 0 l 597 111 q 550 61 577 83 q 493 22 524 39 q 427 -4 462 6 q 357 -16 393 -14 l 357 -272 l 81 -272 l 81 733 l 357 733 l 357 292 q 380 216 357 245 q 450 187 404 187 q 497 196 476 187 q 534 221 519 205 q 557 258 549 237 q 566 302 566 279 l 566 733 l 842 733 l 842 0 z "},"¶":{"ha":1181,"x_min":151,"x_max":1034,"o":"m 1034 787 l 942 787 l 942 -224 l 764 -224 l 764 787 l 616 787 l 616 -224 l 439 -224 l 439 354 q 326 380 378 356 q 235 445 273 405 q 174 539 196 486 q 151 654 151 593 q 175 772 151 717 q 239 867 198 827 q 334 932 279 908 q 452 956 389 956 l 1034 956 l 1034 787 z "},"·":{"ha":463,"x_min":98,"x_max":364,"o":"m 364 326 l 98 326 l 98 581 l 364 581 l 364 326 z "},"¸":{"ha":463,"x_min":65,"x_max":404,"o":"m 275 -40 q 324 -51 300 -43 q 365 -73 347 -58 q 394 -109 383 -87 q 404 -164 404 -132 q 388 -229 404 -203 q 346 -268 371 -254 q 293 -288 321 -282 q 240 -293 264 -293 q 192 -292 216 -293 q 144 -287 167 -290 q 100 -280 121 -284 q 65 -271 80 -276 l 65 -196 q 119 -201 92 -199 q 172 -205 143 -203 q 228 -207 200 -207 q 268 -197 253 -207 q 283 -164 283 -188 q 272 -131 283 -143 q 231 -119 261 -119 l 178 -119 l 204 54 l 290 54 l 275 -40 z "},"¹":{"ha":555,"x_min":41,"x_max":515,"o":"m 372 567 l 515 567 l 515 439 l 41 439 l 41 567 l 191 567 l 191 827 l 41 827 l 41 922 q 109 933 73 924 q 181 954 145 941 q 251 981 218 966 q 311 1013 285 996 l 372 1013 l 372 567 z "},"º":{"ha":555,"x_min":17,"x_max":557,"o":"m 286 1023 q 398 1009 348 1023 q 483 966 448 995 q 537 894 518 937 q 557 793 557 850 q 537 692 557 735 q 483 620 518 648 q 398 576 448 591 q 286 562 348 562 q 175 576 225 562 q 91 620 125 591 q 36 692 56 648 q 17 793 17 735 q 36 894 17 850 q 91 966 56 937 q 175 1009 125 995 q 286 1023 225 1023 m 286 911 q 218 886 238 911 q 197 817 197 861 l 197 770 q 218 700 197 726 q 286 675 238 675 q 355 700 334 675 q 376 770 376 726 l 376 817 q 355 886 376 861 q 286 911 334 911 z "},"»":{"ha":926,"x_min":85,"x_max":843,"o":"m 85 733 l 283 733 l 515 450 l 283 165 l 85 165 l 277 450 l 85 733 m 412 733 l 611 733 l 843 450 l 611 165 l 412 165 l 604 450 l 412 733 z "},"¼":{"ha":1389,"x_min":53,"x_max":1358,"o":"m 493 -17 l 361 -17 l 930 972 l 1064 972 l 493 -17 m 383 517 l 526 517 l 526 389 l 53 389 l 53 517 l 201 517 l 201 777 l 53 777 l 53 872 q 121 883 85 874 q 193 903 157 891 q 262 931 229 916 q 322 962 296 946 l 383 962 l 383 517 m 1146 583 q 1131 532 1143 560 q 1100 472 1118 503 q 1060 408 1082 440 q 1013 345 1037 375 q 964 287 989 314 q 918 240 940 260 l 1099 240 l 1099 358 q 1124 396 1110 374 q 1153 441 1139 418 q 1177 487 1166 465 q 1193 528 1188 510 l 1271 528 l 1271 240 l 1358 240 l 1358 118 l 1271 118 l 1271 0 l 1099 0 l 1099 118 l 793 118 l 793 241 q 839 310 814 271 q 887 393 863 349 q 931 486 910 437 q 968 583 952 534 l 1146 583 z "},"½":{"ha":1389,"x_min":53,"x_max":1354,"o":"m 493 -17 l 361 -17 l 930 972 l 1064 972 l 493 -17 m 383 518 l 526 518 l 526 390 l 53 390 l 53 518 l 201 518 l 201 778 l 53 778 l 53 873 q 121 884 85 876 q 193 905 157 892 q 262 932 229 917 q 322 964 296 947 l 383 964 l 383 518 m 1105 583 q 1206 571 1161 583 q 1282 536 1251 558 q 1331 481 1314 513 q 1348 411 1348 450 q 1324 328 1348 364 q 1263 261 1301 292 q 1177 202 1225 231 q 1080 142 1129 174 l 1354 142 l 1354 0 l 835 0 l 835 40 q 841 84 835 64 q 859 122 848 104 q 887 157 871 140 q 922 189 903 174 q 1020 264 975 233 q 1097 320 1065 296 q 1148 365 1130 345 q 1166 404 1166 385 q 1162 427 1166 416 q 1148 447 1158 438 q 1124 460 1139 455 q 1088 465 1109 465 q 1023 443 1046 465 q 1000 387 1000 421 l 1000 371 l 838 371 q 836 380 836 376 q 836 389 836 385 q 853 468 836 432 q 904 530 870 504 q 988 569 937 555 q 1105 583 1038 583 z "},"¾":{"ha":1389,"x_min":39,"x_max":1348,"o":"m 493 -17 l 361 -17 l 930 972 l 1064 972 l 493 -17 m 310 974 q 413 961 368 974 q 490 927 458 949 q 537 878 521 906 q 553 818 553 850 q 546 777 553 796 q 527 741 539 758 q 498 712 515 725 q 461 693 481 700 l 461 688 q 542 636 513 672 q 571 547 571 600 q 553 483 569 513 q 504 430 536 452 q 423 395 472 408 q 306 382 374 382 q 187 395 237 382 q 104 430 137 408 q 55 482 71 452 q 39 546 39 512 l 39 564 l 200 564 q 204 537 200 549 q 220 516 209 525 q 249 501 231 507 q 294 496 267 496 q 368 517 347 496 q 389 572 389 538 q 370 617 389 603 q 325 632 352 632 l 258 632 l 258 734 l 311 734 q 356 749 337 734 q 375 794 375 763 q 370 819 375 807 q 354 840 364 831 q 329 854 344 849 q 294 860 313 860 q 232 841 254 860 q 211 798 211 823 l 60 798 l 60 818 q 76 878 60 850 q 125 927 93 906 q 203 961 157 949 q 310 974 250 974 m 1135 583 q 1119 532 1131 560 q 1089 472 1107 503 q 1048 408 1071 440 q 1001 345 1025 375 q 953 287 977 314 q 907 240 928 260 l 1088 240 l 1088 358 q 1114 396 1099 374 q 1141 441 1128 418 q 1166 487 1155 465 q 1182 528 1177 510 l 1260 528 l 1260 240 l 1348 240 l 1348 118 l 1260 118 l 1260 0 l 1088 0 l 1088 118 l 782 118 l 782 241 q 828 310 804 271 q 876 393 852 349 q 920 486 899 437 q 957 583 941 534 l 1135 583 z "},"¿":{"ha":848,"x_min":64,"x_max":799,"o":"m 539 321 q 526 273 539 296 q 492 230 512 251 q 449 189 472 210 q 405 147 425 169 q 372 101 385 125 q 358 49 358 77 q 364 12 358 29 q 382 -19 370 -6 q 411 -41 394 -33 q 450 -49 429 -49 q 496 -39 478 -49 q 523 -12 513 -28 q 537 25 533 4 q 541 68 541 46 q 541 87 541 77 q 539 106 541 96 l 794 106 q 797 79 795 92 q 799 53 799 66 q 770 -69 799 -15 q 691 -161 742 -123 q 571 -220 640 -199 q 419 -240 501 -240 q 274 -220 340 -240 q 162 -163 209 -200 q 90 -74 115 -126 q 64 43 64 -22 q 81 127 64 90 q 125 193 99 163 q 182 245 152 222 q 239 288 213 269 q 283 325 266 307 q 301 361 301 342 l 301 390 l 539 390 l 539 321 m 555 475 l 281 475 l 281 732 l 555 732 l 555 475 z "},"À":{"ha":1080,"x_min":14,"x_max":1068,"o":"m 743 0 l 703 135 l 368 135 l 328 0 l 14 0 l 363 956 l 720 956 l 1068 0 l 743 0 m 432 349 l 639 349 l 539 689 l 533 689 l 432 349 m 498 1044 l 275 1224 l 278 1230 l 546 1230 l 674 1044 l 498 1044 z "},"Á":{"ha":1080,"x_min":14,"x_max":1068,"o":"m 743 0 l 703 135 l 368 135 l 328 0 l 14 0 l 363 956 l 720 956 l 1068 0 l 743 0 m 432 349 l 639 349 l 539 689 l 533 689 l 432 349 m 584 1044 l 407 1044 l 535 1230 l 803 1230 l 806 1224 l 584 1044 z "},"Â":{"ha":1080,"x_min":14,"x_max":1068,"o":"m 1068 0 l 743 0 l 703 135 l 368 135 l 328 0 l 14 0 l 363 956 l 720 956 l 1068 0 m 533 689 l 432 349 l 639 349 l 539 689 l 533 689 m 823 1028 l 642 1028 l 539 1135 l 436 1028 l 258 1028 l 452 1230 l 629 1230 l 823 1028 z "},"Ã":{"ha":1080,"x_min":14,"x_max":1068,"o":"m 1068 0 l 743 0 l 703 135 l 368 135 l 328 0 l 14 0 l 363 956 l 720 956 l 1068 0 m 533 689 l 432 349 l 639 349 l 539 689 l 533 689 m 849 1230 q 835 1156 849 1192 q 795 1093 821 1120 q 734 1048 770 1065 q 654 1031 698 1031 q 590 1040 621 1031 q 529 1059 559 1048 q 471 1078 499 1069 q 414 1086 442 1086 q 370 1070 388 1086 q 345 1031 352 1055 l 232 1031 q 246 1104 232 1068 q 286 1167 260 1139 q 347 1213 311 1196 q 427 1230 382 1230 q 491 1221 460 1230 q 552 1202 522 1212 q 610 1183 582 1192 q 667 1174 639 1174 q 711 1190 693 1174 q 736 1230 729 1206 l 849 1230 z "},"Ä":{"ha":1080,"x_min":14,"x_max":1068,"o":"m 1068 0 l 743 0 l 703 135 l 368 135 l 328 0 l 14 0 l 363 956 l 720 956 l 1068 0 m 533 689 l 432 349 l 639 349 l 539 689 l 533 689 m 799 1036 l 588 1036 l 588 1230 l 799 1230 l 799 1036 m 493 1036 l 282 1036 l 282 1230 l 493 1230 l 493 1036 z "},"Å":{"ha":1080,"x_min":14,"x_max":1068,"o":"m 1068 0 l 743 0 l 703 135 l 368 135 l 328 0 l 14 0 l 363 956 l 720 956 l 1068 0 m 533 689 l 432 349 l 639 349 l 539 689 l 533 689 m 541 1325 q 598 1313 571 1325 q 647 1281 626 1301 q 680 1233 667 1261 q 692 1174 692 1206 q 680 1116 692 1143 q 647 1068 668 1088 q 599 1036 627 1048 q 541 1024 572 1024 q 483 1036 510 1024 q 434 1067 455 1047 q 401 1115 414 1088 q 389 1174 389 1143 q 401 1233 389 1205 q 434 1281 413 1260 q 482 1313 454 1301 q 541 1325 509 1325 m 541 1230 q 500 1214 515 1230 q 485 1173 485 1198 q 501 1134 485 1149 q 541 1118 517 1118 q 581 1134 566 1118 q 596 1175 596 1150 q 580 1214 596 1199 q 541 1230 564 1230 z "},"Æ":{"ha":1389,"x_min":-21,"x_max":1336,"o":"m 665 135 l 340 135 l 293 0 l -21 0 l 383 956 l 1326 956 l 1326 726 l 819 726 l 850 595 l 1249 595 l 1249 375 l 901 375 l 935 229 l 1336 229 l 1336 0 l 696 0 l 665 135 m 416 349 l 618 349 l 543 689 l 538 689 l 416 349 z "},"Ç":{"ha":1080,"x_min":62,"x_max":1018,"o":"m 558 972 q 747 946 663 972 q 892 868 832 920 q 985 739 952 816 q 1018 562 1018 663 l 725 562 q 714 637 725 604 q 682 694 703 670 q 629 730 661 718 q 557 743 598 743 q 474 727 508 743 q 418 682 439 711 q 386 612 396 652 q 376 522 376 571 l 376 433 q 387 344 376 385 q 418 274 397 303 q 474 229 440 245 q 554 212 507 212 q 690 259 645 212 q 734 387 734 305 l 1018 387 q 989 218 1018 292 q 904 93 960 144 q 768 14 849 42 q 585 -16 688 -14 l 581 -40 q 630 -51 606 -43 q 671 -73 653 -58 q 700 -109 689 -87 q 710 -164 710 -132 q 693 -229 710 -203 q 652 -268 677 -254 q 599 -288 627 -282 q 546 -293 570 -293 q 497 -292 522 -293 q 450 -287 473 -290 q 406 -280 427 -284 q 371 -271 386 -276 l 371 -196 q 425 -201 397 -199 q 477 -205 449 -203 q 534 -207 506 -207 q 574 -197 559 -207 q 589 -164 589 -188 q 578 -131 589 -143 q 536 -119 567 -119 l 484 -119 l 499 -15 q 173 124 283 -1 q 62 478 62 248 q 188 848 62 723 q 558 972 313 972 z "},"È":{"ha":1003,"x_min":103,"x_max":939,"o":"m 493 1044 l 271 1223 l 273 1229 l 542 1229 l 669 1044 l 493 1044 m 103 0 l 103 956 l 929 956 l 929 726 l 410 726 l 410 595 l 854 595 l 854 375 l 410 375 l 410 229 l 939 229 l 939 0 l 103 0 z "},"É":{"ha":1003,"x_min":103,"x_max":939,"o":"m 579 1044 l 403 1044 l 530 1229 l 799 1229 l 802 1223 l 579 1044 m 103 0 l 103 956 l 929 956 l 929 726 l 410 726 l 410 595 l 854 595 l 854 375 l 410 375 l 410 229 l 939 229 l 939 0 l 103 0 z "},"Ê":{"ha":1003,"x_min":103,"x_max":939,"o":"m 818 1028 l 637 1028 l 534 1135 l 432 1028 l 254 1028 l 447 1229 l 625 1229 l 818 1028 m 103 0 l 103 956 l 929 956 l 929 726 l 410 726 l 410 595 l 854 595 l 854 375 l 410 375 l 410 229 l 939 229 l 939 0 l 103 0 z "},"Ë":{"ha":1003,"x_min":103,"x_max":939,"o":"m 794 1036 l 583 1036 l 583 1229 l 794 1229 l 794 1036 m 489 1036 l 278 1036 l 278 1229 l 489 1229 l 489 1036 m 103 0 l 103 956 l 929 956 l 929 726 l 410 726 l 410 595 l 854 595 l 854 375 l 410 375 l 410 229 l 939 229 l 939 0 l 103 0 z "},"Ì":{"ha":541,"x_min":5,"x_max":424,"o":"m 117 0 l 117 956 l 424 956 l 424 0 l 117 0 m 228 1044 l 5 1224 l 8 1230 l 276 1230 l 404 1044 l 228 1044 z "},"Í":{"ha":541,"x_min":117,"x_max":536,"o":"m 117 0 l 117 956 l 424 956 l 424 0 l 117 0 m 314 1044 l 137 1044 l 265 1230 l 533 1230 l 536 1224 l 314 1044 z "},"Î":{"ha":541,"x_min":-12,"x_max":553,"o":"m 424 0 l 117 0 l 117 956 l 424 956 l 424 0 m 553 1028 l 372 1028 l 269 1135 l 166 1028 l -12 1028 l 182 1230 l 359 1230 l 553 1028 z "},"Ï":{"ha":541,"x_min":12,"x_max":529,"o":"m 424 0 l 117 0 l 117 956 l 424 956 l 424 0 m 529 1036 l 318 1036 l 318 1230 l 529 1230 l 529 1036 m 223 1036 l 12 1036 l 12 1230 l 223 1230 l 223 1036 z "},"Ð":{"ha":1080,"x_min":1,"x_max":1018,"o":"m 1 558 l 103 558 l 103 956 l 517 956 q 732 927 639 956 q 889 839 826 898 q 985 690 953 780 q 1018 478 1018 600 q 985 266 1018 355 q 889 117 953 176 q 732 29 826 58 q 517 0 639 0 l 103 0 l 103 422 l 1 422 l 1 558 m 410 422 l 410 229 l 511 229 q 598 243 562 229 q 658 284 635 257 q 693 349 682 311 q 704 436 704 387 l 704 519 q 693 607 704 568 q 658 672 682 645 q 598 712 635 699 q 511 726 562 726 l 410 726 l 410 558 l 545 558 l 545 422 l 410 422 z "},"Ñ":{"ha":1157,"x_min":103,"x_max":1054,"o":"m 1054 0 l 786 0 l 385 464 l 385 0 l 103 0 l 103 956 l 371 956 l 772 485 l 772 956 l 1054 956 l 1054 0 m 887 1230 q 873 1156 887 1192 q 833 1093 859 1120 q 772 1048 808 1065 q 692 1031 736 1031 q 628 1040 659 1031 q 567 1059 597 1048 q 509 1078 537 1069 q 452 1086 480 1086 q 408 1070 426 1086 q 382 1031 390 1055 l 270 1031 q 284 1104 270 1068 q 323 1167 298 1139 q 385 1213 349 1196 q 465 1230 420 1230 q 529 1221 498 1230 q 590 1202 560 1212 q 648 1183 620 1192 q 705 1174 677 1174 q 749 1190 731 1174 q 774 1230 767 1206 l 887 1230 z "},"Ò":{"ha":1157,"x_min":62,"x_max":1095,"o":"m 578 972 q 796 941 700 972 q 959 847 892 909 q 1060 693 1025 785 q 1095 478 1095 600 q 1060 263 1095 355 q 959 108 1025 170 q 796 15 892 46 q 578 -17 700 -17 q 360 15 456 -17 q 198 108 264 46 q 97 263 132 170 q 62 478 62 355 q 97 693 62 600 q 198 847 132 785 q 360 941 264 909 q 578 972 456 972 m 578 743 q 489 727 527 743 q 427 682 452 711 q 389 612 401 652 q 376 522 376 571 l 376 433 q 389 344 376 385 q 427 274 401 303 q 489 229 452 245 q 578 212 527 212 q 667 229 629 212 q 730 274 705 245 q 768 344 755 303 q 781 433 781 385 l 781 522 q 768 612 781 571 q 730 682 755 652 q 667 727 705 711 q 578 743 629 743 m 536 1044 l 313 1224 l 316 1230 l 584 1230 l 712 1044 l 536 1044 z "},"Ó":{"ha":1157,"x_min":62,"x_max":1095,"o":"m 578 972 q 796 941 700 972 q 959 847 892 909 q 1060 693 1025 785 q 1095 478 1095 600 q 1060 263 1095 355 q 959 108 1025 170 q 796 15 892 46 q 578 -17 700 -17 q 360 15 456 -17 q 198 108 264 46 q 97 263 132 170 q 62 478 62 355 q 97 693 62 600 q 198 847 132 785 q 360 941 264 909 q 578 972 456 972 m 578 743 q 489 727 527 743 q 427 682 452 711 q 389 612 401 652 q 376 522 376 571 l 376 433 q 389 344 376 385 q 427 274 401 303 q 489 229 452 245 q 578 212 527 212 q 667 229 629 212 q 730 274 705 245 q 768 344 755 303 q 781 433 781 385 l 781 522 q 768 612 781 571 q 730 682 755 652 q 667 727 705 711 q 578 743 629 743 m 622 1044 l 445 1044 l 573 1230 l 841 1230 l 844 1224 l 622 1044 z "},"Ô":{"ha":1157,"x_min":62,"x_max":1095,"o":"m 578 972 q 796 941 700 972 q 959 847 892 909 q 1060 693 1025 785 q 1095 478 1095 600 q 1060 263 1095 355 q 959 108 1025 170 q 796 15 892 46 q 578 -17 700 -17 q 360 15 456 -17 q 198 108 264 46 q 97 263 132 170 q 62 478 62 355 q 97 693 62 600 q 198 847 132 785 q 360 941 264 909 q 578 972 456 972 m 578 743 q 489 727 527 743 q 427 682 452 711 q 389 612 401 652 q 376 522 376 571 l 376 433 q 389 344 376 385 q 427 274 401 303 q 489 229 452 245 q 578 212 527 212 q 667 229 629 212 q 730 274 705 245 q 768 344 755 303 q 781 433 781 385 l 781 522 q 768 612 781 571 q 730 682 755 652 q 667 727 705 711 q 578 743 629 743 m 861 1028 l 680 1028 l 577 1135 l 474 1028 l 296 1028 l 490 1230 l 667 1230 l 861 1028 z "},"Õ":{"ha":1157,"x_min":62,"x_max":1095,"o":"m 578 972 q 796 941 700 972 q 959 847 892 909 q 1060 693 1025 785 q 1095 478 1095 600 q 1060 263 1095 355 q 959 108 1025 170 q 796 15 892 46 q 578 -17 700 -17 q 360 15 456 -17 q 198 108 264 46 q 97 263 132 170 q 62 478 62 355 q 97 693 62 600 q 198 847 132 785 q 360 941 264 909 q 578 972 456 972 m 578 743 q 489 727 527 743 q 427 682 452 711 q 389 612 401 652 q 376 522 376 571 l 376 433 q 389 344 376 385 q 427 274 401 303 q 489 229 452 245 q 578 212 527 212 q 667 229 629 212 q 730 274 705 245 q 768 344 755 303 q 781 433 781 385 l 781 522 q 768 612 781 571 q 730 682 755 652 q 667 727 705 711 q 578 743 629 743 m 887 1230 q 873 1156 887 1192 q 833 1093 859 1120 q 772 1048 808 1065 q 692 1031 736 1031 q 628 1040 659 1031 q 567 1059 597 1048 q 509 1078 537 1069 q 452 1086 480 1086 q 408 1070 426 1086 q 382 1031 390 1055 l 270 1031 q 284 1104 270 1068 q 323 1167 298 1139 q 385 1213 349 1196 q 465 1230 420 1230 q 529 1221 498 1230 q 590 1202 560 1212 q 648 1183 620 1192 q 705 1174 677 1174 q 749 1190 731 1174 q 774 1230 767 1206 l 887 1230 z "},"Ö":{"ha":1157,"x_min":62,"x_max":1095,"o":"m 578 972 q 796 941 700 972 q 959 847 892 909 q 1060 693 1025 785 q 1095 478 1095 600 q 1060 263 1095 355 q 959 108 1025 170 q 796 15 892 46 q 578 -17 700 -17 q 360 15 456 -17 q 198 108 264 46 q 97 263 132 170 q 62 478 62 355 q 97 693 62 600 q 198 847 132 785 q 360 941 264 909 q 578 972 456 972 m 578 743 q 489 727 527 743 q 427 682 452 711 q 389 612 401 652 q 376 522 376 571 l 376 433 q 389 344 376 385 q 427 274 401 303 q 489 229 452 245 q 578 212 527 212 q 667 229 629 212 q 730 274 705 245 q 768 344 755 303 q 781 433 781 385 l 781 522 q 768 612 781 571 q 730 682 755 652 q 667 727 705 711 q 578 743 629 743 m 837 1036 l 626 1036 l 626 1230 l 837 1230 l 837 1036 m 531 1036 l 320 1036 l 320 1230 l 531 1230 l 531 1036 z "},"×":{"ha":917,"x_min":94,"x_max":822,"o":"m 822 600 l 587 367 l 822 134 l 692 3 l 458 237 l 225 3 l 94 134 l 329 367 l 94 600 l 225 730 l 458 496 l 692 730 l 822 600 z "},"Ø":{"ha":1157,"x_min":62,"x_max":1095,"o":"m 954 850 q 1059 695 1023 788 q 1095 478 1095 602 q 1060 263 1095 355 q 959 108 1025 170 q 796 15 892 46 q 578 -17 700 -17 q 425 -3 495 -17 q 297 39 355 10 l 225 -50 l 75 -50 l 200 106 q 98 260 133 168 q 62 478 62 353 q 97 693 62 600 q 198 847 132 785 q 360 941 264 909 q 578 972 456 972 q 730 958 661 972 q 859 916 800 944 l 932 1007 l 1082 1007 l 954 850 m 463 243 q 514 220 486 229 q 578 212 542 212 q 667 229 629 212 q 730 274 705 245 q 768 344 755 303 q 781 433 781 385 l 781 522 q 765 616 781 574 l 463 243 m 578 743 q 489 727 527 743 q 427 682 452 711 q 389 612 401 652 q 376 522 376 571 l 376 433 q 379 384 376 408 q 390 339 382 360 l 693 713 q 641 735 670 727 q 578 743 612 743 z "},"Ù":{"ha":1157,"x_min":103,"x_max":1054,"o":"m 1054 385 q 1022 211 1054 286 q 929 85 990 136 q 780 9 868 35 q 579 -17 692 -17 q 378 9 467 -17 q 229 85 290 35 q 135 211 168 136 q 103 385 103 286 l 103 956 l 410 956 l 410 389 q 420 318 410 350 q 452 262 431 286 q 504 225 473 239 q 578 212 536 212 q 652 225 620 212 q 705 262 684 239 q 737 318 726 286 q 747 389 747 350 l 747 956 l 1054 956 l 1054 385 m 536 1044 l 313 1224 l 316 1230 l 584 1230 l 712 1044 l 536 1044 z "},"Ú":{"ha":1157,"x_min":103,"x_max":1054,"o":"m 1054 385 q 1022 211 1054 286 q 929 85 990 136 q 780 9 868 35 q 579 -17 692 -17 q 378 9 467 -17 q 229 85 290 35 q 135 211 168 136 q 103 385 103 286 l 103 956 l 410 956 l 410 389 q 420 318 410 350 q 452 262 431 286 q 504 225 473 239 q 578 212 536 212 q 652 225 620 212 q 705 262 684 239 q 737 318 726 286 q 747 389 747 350 l 747 956 l 1054 956 l 1054 385 m 622 1044 l 445 1044 l 573 1230 l 841 1230 l 844 1224 l 622 1044 z "},"Û":{"ha":1157,"x_min":103,"x_max":1054,"o":"m 1054 385 q 1022 211 1054 286 q 929 85 990 136 q 780 9 868 35 q 579 -17 692 -17 q 378 9 467 -17 q 229 85 290 35 q 135 211 168 136 q 103 385 103 286 l 103 956 l 410 956 l 410 389 q 420 318 410 350 q 452 262 431 286 q 504 225 473 239 q 578 212 536 212 q 652 225 620 212 q 705 262 684 239 q 737 318 726 286 q 747 389 747 350 l 747 956 l 1054 956 l 1054 385 m 861 1028 l 680 1028 l 577 1135 l 474 1028 l 296 1028 l 490 1230 l 667 1230 l 861 1028 z "},"Ü":{"ha":1157,"x_min":103,"x_max":1054,"o":"m 1054 385 q 1022 211 1054 286 q 929 85 990 136 q 780 9 868 35 q 579 -17 692 -17 q 378 9 467 -17 q 229 85 290 35 q 135 211 168 136 q 103 385 103 286 l 103 956 l 410 956 l 410 389 q 420 318 410 350 q 452 262 431 286 q 504 225 473 239 q 578 212 536 212 q 652 225 620 212 q 705 262 684 239 q 737 318 726 286 q 747 389 747 350 l 747 956 l 1054 956 l 1054 385 m 837 1036 l 626 1036 l 626 1230 l 837 1230 l 837 1036 m 531 1036 l 320 1036 l 320 1230 l 531 1230 l 531 1036 z "},"Ý":{"ha":1080,"x_min":9,"x_max":1069,"o":"m 696 0 l 389 0 l 389 371 l 9 956 l 363 956 l 546 637 l 551 637 l 734 956 l 1069 956 l 696 371 l 696 0 m 584 1044 l 407 1044 l 535 1230 l 803 1230 l 806 1224 l 584 1044 z "},"Þ":{"ha":1003,"x_min":103,"x_max":945,"o":"m 410 817 l 639 817 q 763 793 707 817 q 860 727 819 769 q 922 628 900 686 q 945 503 945 570 l 945 485 q 922 359 945 417 q 860 259 900 302 q 763 193 819 217 q 639 170 707 170 l 410 170 l 410 0 l 103 0 l 103 956 l 410 956 l 410 817 m 410 590 l 410 393 l 536 393 q 609 418 585 393 q 633 486 633 444 l 633 497 q 610 565 633 540 q 536 590 587 590 l 410 590 z "},"ß":{"ha":926,"x_min":93,"x_max":867,"o":"m 467 1023 q 552 1018 509 1023 q 636 1000 595 1013 q 711 968 676 988 q 773 919 747 948 q 814 851 799 890 q 829 761 829 812 q 820 696 829 728 q 794 637 811 665 q 753 589 777 610 q 699 555 729 568 l 699 549 q 767 510 736 535 q 820 451 798 484 q 854 378 842 418 q 867 297 867 338 q 841 166 867 222 q 770 74 815 111 q 662 18 724 37 q 525 0 599 0 l 436 0 l 436 189 l 475 189 q 520 200 499 189 q 557 228 541 210 q 581 269 572 245 q 590 318 590 292 q 581 370 590 346 q 556 413 572 395 q 519 441 541 431 q 475 452 498 452 l 436 452 l 436 647 l 473 647 q 509 654 492 647 q 538 675 526 662 q 557 705 550 688 q 564 742 564 722 q 557 780 564 762 q 538 810 551 798 q 508 830 526 823 q 467 838 490 838 q 426 830 444 838 q 396 810 408 823 q 376 780 383 798 q 370 742 370 762 l 370 0 l 93 0 l 93 718 q 126 858 93 800 q 212 953 159 916 q 332 1006 265 989 q 467 1023 399 1023 z "},"à":{"ha":926,"x_min":41,"x_max":920,"o":"m 446 750 q 590 738 521 750 q 711 699 659 726 q 794 625 764 671 q 825 511 825 579 l 825 225 q 836 186 825 202 q 869 171 846 171 l 920 171 l 920 11 q 882 -3 904 3 q 837 -13 864 -9 q 775 -17 810 -17 q 641 8 691 -17 q 571 75 590 33 q 521 40 548 57 q 460 11 494 24 q 388 -9 427 -2 q 300 -17 348 -17 q 195 -6 243 -17 q 113 28 147 4 q 60 92 79 53 q 41 189 41 132 q 76 322 41 271 q 175 402 110 374 q 334 440 240 431 q 549 450 429 450 l 549 486 q 540 525 549 509 q 517 552 532 542 q 484 568 503 563 q 441 574 464 574 q 405 571 423 574 q 371 560 386 568 q 346 541 355 553 q 336 510 336 528 l 336 504 l 64 504 q 62 514 62 509 q 62 524 62 518 q 87 616 62 574 q 160 688 111 658 q 280 734 208 718 q 446 750 351 750 m 549 319 q 443 312 487 319 q 372 293 399 305 q 331 263 344 280 q 318 225 318 245 q 326 190 318 203 q 348 169 334 176 q 378 158 361 161 q 412 155 395 155 q 464 163 439 155 q 507 184 488 170 q 537 216 526 197 q 549 257 549 235 l 549 319 m 404 822 l 181 1002 l 184 1007 l 452 1007 l 580 822 l 404 822 z "},"á":{"ha":926,"x_min":41,"x_max":920,"o":"m 446 750 q 590 738 521 750 q 711 699 659 726 q 794 625 764 671 q 825 511 825 579 l 825 225 q 836 186 825 202 q 869 171 846 171 l 920 171 l 920 11 q 882 -3 904 3 q 837 -13 864 -9 q 775 -17 810 -17 q 641 8 691 -17 q 571 75 590 33 q 521 40 548 57 q 460 11 494 24 q 388 -9 427 -2 q 300 -17 348 -17 q 195 -6 243 -17 q 113 28 147 4 q 60 92 79 53 q 41 189 41 132 q 76 322 41 271 q 175 402 110 374 q 334 440 240 431 q 549 450 429 450 l 549 486 q 540 525 549 509 q 517 552 532 542 q 484 568 503 563 q 441 574 464 574 q 405 571 423 574 q 371 560 386 568 q 346 541 355 553 q 336 510 336 528 l 336 504 l 64 504 q 62 514 62 509 q 62 524 62 518 q 87 616 62 574 q 160 688 111 658 q 280 734 208 718 q 446 750 351 750 m 549 319 q 443 312 487 319 q 372 293 399 305 q 331 263 344 280 q 318 225 318 245 q 326 190 318 203 q 348 169 334 176 q 378 158 361 161 q 412 155 395 155 q 464 163 439 155 q 507 184 488 170 q 537 216 526 197 q 549 257 549 235 l 549 319 m 490 822 l 313 822 l 441 1007 l 709 1007 l 711 1002 l 490 822 z "},"â":{"ha":926,"x_min":41,"x_max":920,"o":"m 446 750 q 590 738 521 750 q 711 699 659 726 q 794 625 764 671 q 825 511 825 579 l 825 225 q 836 186 825 202 q 869 171 846 171 l 920 171 l 920 11 q 882 -3 904 3 q 837 -13 864 -9 q 775 -17 810 -17 q 641 8 691 -17 q 571 75 590 33 q 521 40 548 57 q 460 11 494 24 q 388 -9 427 -2 q 300 -17 348 -17 q 195 -6 243 -17 q 113 28 147 4 q 60 92 79 53 q 41 189 41 132 q 76 322 41 271 q 175 402 110 374 q 334 440 240 431 q 549 450 429 450 l 549 486 q 540 525 549 509 q 517 552 532 542 q 484 568 503 563 q 441 574 464 574 q 405 571 423 574 q 371 560 386 568 q 346 541 355 553 q 336 510 336 528 l 336 504 l 64 504 q 62 514 62 509 q 62 524 62 518 q 87 616 62 574 q 160 688 111 658 q 280 734 208 718 q 446 750 351 750 m 549 319 q 443 312 487 319 q 372 293 399 305 q 331 263 344 280 q 318 225 318 245 q 326 190 318 203 q 348 169 334 176 q 378 158 361 161 q 412 155 395 155 q 464 163 439 155 q 507 184 488 170 q 537 216 526 197 q 549 257 549 235 l 549 319 m 745 806 l 565 806 l 462 913 l 359 806 l 181 806 l 374 1007 l 552 1007 l 745 806 z "},"ã":{"ha":926,"x_min":41,"x_max":920,"o":"m 446 750 q 590 738 521 750 q 711 699 659 726 q 794 625 764 671 q 825 511 825 579 l 825 225 q 836 186 825 202 q 869 171 846 171 l 920 171 l 920 11 q 882 -3 904 3 q 837 -13 864 -9 q 775 -17 810 -17 q 641 8 691 -17 q 571 75 590 33 q 521 40 548 57 q 460 11 494 24 q 388 -9 427 -2 q 300 -17 348 -17 q 195 -6 243 -17 q 113 28 147 4 q 60 92 79 53 q 41 189 41 132 q 76 322 41 271 q 175 402 110 374 q 334 440 240 431 q 549 450 429 450 l 549 486 q 540 525 549 509 q 517 552 532 542 q 484 568 503 563 q 441 574 464 574 q 405 571 423 574 q 371 560 386 568 q 346 541 355 553 q 336 510 336 528 l 336 504 l 64 504 q 62 514 62 509 q 62 524 62 518 q 87 616 62 574 q 160 688 111 658 q 280 734 208 718 q 446 750 351 750 m 549 319 q 443 312 487 319 q 372 293 399 305 q 331 263 344 280 q 318 225 318 245 q 326 190 318 203 q 348 169 334 176 q 378 158 361 161 q 412 155 395 155 q 464 163 439 155 q 507 184 488 170 q 537 216 526 197 q 549 257 549 235 l 549 319 m 772 1007 q 758 933 772 969 q 718 870 744 898 q 656 825 692 842 q 577 808 621 808 q 513 817 544 808 q 452 836 481 826 q 393 855 422 846 q 337 864 365 864 q 293 848 311 864 q 267 808 275 832 l 155 808 q 169 881 155 846 q 208 945 182 917 q 270 990 234 973 q 349 1007 305 1007 q 414 998 382 1007 q 475 979 445 989 q 533 960 505 969 q 589 951 562 951 q 634 967 616 951 q 659 1007 652 983 l 772 1007 z "},"ä":{"ha":926,"x_min":41,"x_max":920,"o":"m 446 750 q 590 738 521 750 q 711 699 659 726 q 794 625 764 671 q 825 511 825 579 l 825 225 q 836 186 825 202 q 869 171 846 171 l 920 171 l 920 11 q 882 -3 904 3 q 837 -13 864 -9 q 775 -17 810 -17 q 641 8 691 -17 q 571 75 590 33 q 521 40 548 57 q 460 11 494 24 q 388 -9 427 -2 q 300 -17 348 -17 q 195 -6 243 -17 q 113 28 147 4 q 60 92 79 53 q 41 189 41 132 q 76 322 41 271 q 175 402 110 374 q 334 440 240 431 q 549 450 429 450 l 549 486 q 540 525 549 509 q 517 552 532 542 q 484 568 503 563 q 441 574 464 574 q 405 571 423 574 q 371 560 386 568 q 346 541 355 553 q 336 510 336 528 l 336 504 l 64 504 q 62 514 62 509 q 62 524 62 518 q 87 616 62 574 q 160 688 111 658 q 280 734 208 718 q 446 750 351 750 m 549 319 q 443 312 487 319 q 372 293 399 305 q 331 263 344 280 q 318 225 318 245 q 326 190 318 203 q 348 169 334 176 q 378 158 361 161 q 412 155 395 155 q 464 163 439 155 q 507 184 488 170 q 537 216 526 197 q 549 257 549 235 l 549 319 m 722 814 l 511 814 l 511 1007 l 722 1007 l 722 814 m 416 814 l 205 814 l 205 1007 l 416 1007 l 416 814 z "},"å":{"ha":926,"x_min":41,"x_max":920,"o":"m 446 750 q 590 738 521 750 q 711 699 659 726 q 794 625 764 671 q 825 511 825 579 l 825 225 q 836 186 825 202 q 869 171 846 171 l 920 171 l 920 11 q 882 -3 904 3 q 837 -13 864 -9 q 775 -17 810 -17 q 641 8 691 -17 q 571 75 590 33 q 521 40 548 57 q 460 11 494 24 q 388 -9 427 -2 q 300 -17 348 -17 q 195 -6 243 -17 q 113 28 147 4 q 60 92 79 53 q 41 189 41 132 q 76 322 41 271 q 175 402 110 374 q 334 440 240 431 q 549 450 429 450 l 549 486 q 540 525 549 509 q 517 552 532 542 q 484 568 503 563 q 441 574 464 574 q 405 571 423 574 q 371 560 386 568 q 346 541 355 553 q 336 510 336 528 l 336 504 l 64 504 q 62 514 62 509 q 62 524 62 518 q 87 616 62 574 q 160 688 111 658 q 280 734 208 718 q 446 750 351 750 m 549 319 q 443 312 487 319 q 372 293 399 305 q 331 263 344 280 q 318 225 318 245 q 326 190 318 203 q 348 169 334 176 q 378 158 361 161 q 412 155 395 155 q 464 163 439 155 q 507 184 488 170 q 537 216 526 197 q 549 257 549 235 l 549 319 m 463 1103 q 521 1091 494 1103 q 569 1059 549 1079 q 602 1011 590 1038 q 614 951 614 983 q 603 893 614 921 q 570 846 591 866 q 522 813 549 825 q 463 802 494 802 q 405 813 433 802 q 357 845 378 825 q 324 893 336 865 q 312 951 312 920 q 324 1010 312 983 q 356 1058 336 1038 q 405 1091 377 1079 q 463 1103 432 1103 m 463 1007 q 423 991 438 1007 q 408 950 408 975 q 424 911 408 926 q 463 896 439 896 q 504 912 488 896 q 519 953 519 928 q 503 992 519 977 q 463 1007 487 1007 z "},"æ":{"ha":1389,"x_min":41,"x_max":1350,"o":"m 964 750 q 1128 727 1057 750 q 1250 657 1200 705 q 1325 538 1299 610 q 1350 367 1350 466 l 1350 319 l 828 319 q 859 202 828 243 q 961 160 889 160 q 1017 168 994 160 q 1055 191 1040 176 q 1075 225 1069 205 q 1082 267 1082 244 l 1350 267 q 1327 148 1350 201 q 1257 59 1303 96 q 1141 3 1211 22 q 981 -17 1072 -17 q 793 8 876 -17 q 656 85 711 33 q 597 47 629 65 q 528 14 566 28 q 447 -8 490 0 q 355 -17 404 -17 q 225 -6 283 -17 q 126 30 167 4 q 63 97 85 55 q 41 203 41 139 q 75 329 41 280 q 174 404 109 377 q 334 441 239 431 q 549 450 428 450 l 549 486 q 541 525 549 509 q 519 552 533 542 q 487 568 505 563 q 447 574 468 574 q 408 571 428 574 q 373 560 389 568 q 347 541 357 553 q 336 510 336 528 l 336 504 l 64 504 q 62 514 62 509 q 62 524 62 518 q 87 616 62 574 q 160 688 111 658 q 280 734 208 718 q 446 750 351 750 q 595 735 524 750 q 720 684 667 720 q 831 733 770 717 q 964 750 892 750 m 549 319 q 443 312 487 319 q 372 293 399 305 q 331 263 344 280 q 318 225 318 245 q 326 190 318 203 q 348 169 334 176 q 378 158 361 161 q 412 155 395 155 q 464 163 439 155 q 507 184 488 170 q 537 216 526 197 q 549 257 549 235 l 549 319 m 956 574 q 865 541 895 574 q 829 450 836 507 l 1071 450 q 1041 541 1071 508 q 956 574 1011 574 z "},"ç":{"ha":926,"x_min":50,"x_max":867,"o":"m 463 750 q 620 733 547 750 q 749 678 694 715 q 835 581 804 640 q 867 437 867 522 l 599 437 q 563 532 599 503 q 463 562 528 562 q 400 551 426 562 q 358 520 374 541 q 334 471 342 500 q 326 406 326 442 l 326 326 q 359 212 326 254 q 468 171 392 171 q 573 201 536 171 q 610 298 610 231 l 867 298 q 839 163 867 220 q 763 68 811 106 q 649 9 715 30 q 507 -16 583 -11 l 504 -40 q 552 -51 529 -43 q 594 -73 576 -58 q 622 -109 612 -87 q 633 -164 633 -132 q 616 -229 633 -203 q 575 -268 600 -254 q 522 -288 550 -282 q 469 -293 493 -293 q 420 -292 445 -293 q 372 -287 395 -290 q 329 -280 349 -284 q 294 -271 309 -276 l 294 -196 q 348 -201 320 -199 q 400 -205 372 -203 q 456 -207 429 -207 q 497 -197 481 -207 q 512 -164 512 -188 q 501 -131 512 -143 q 459 -119 490 -119 l 406 -119 l 422 -16 q 268 16 336 -11 q 151 90 199 42 q 76 206 102 137 q 50 367 50 275 q 79 535 50 463 q 162 655 109 607 q 293 726 216 703 q 463 750 369 750 z "},"è":{"ha":926,"x_min":50,"x_max":876,"o":"m 463 750 q 638 727 562 750 q 768 657 715 705 q 849 538 821 610 q 876 367 876 466 l 876 319 l 326 319 q 360 202 326 243 q 473 160 395 160 q 536 168 511 160 q 578 191 562 176 q 601 225 594 205 q 608 267 608 244 l 876 267 q 851 148 876 201 q 777 59 827 96 q 653 3 727 22 q 479 -17 578 -17 q 301 6 380 -17 q 165 76 221 28 q 80 196 110 123 q 50 367 50 268 q 79 535 50 463 q 162 655 109 607 q 293 726 216 703 q 463 750 369 750 m 473 574 q 369 541 404 574 q 328 450 335 507 l 597 450 q 565 541 597 508 q 473 574 532 574 m 420 822 l 198 1002 l 201 1007 l 469 1007 l 597 822 l 420 822 z "},"é":{"ha":926,"x_min":50,"x_max":876,"o":"m 463 750 q 638 727 562 750 q 768 657 715 705 q 849 538 821 610 q 876 367 876 466 l 876 319 l 326 319 q 360 202 326 243 q 473 160 395 160 q 536 168 511 160 q 578 191 562 176 q 601 225 594 205 q 608 267 608 244 l 876 267 q 851 148 876 201 q 777 59 827 96 q 653 3 727 22 q 479 -17 578 -17 q 301 6 380 -17 q 165 76 221 28 q 80 196 110 123 q 50 367 50 268 q 79 535 50 463 q 162 655 109 607 q 293 726 216 703 q 463 750 369 750 m 473 574 q 369 541 404 574 q 328 450 335 507 l 597 450 q 565 541 597 508 q 473 574 532 574 m 507 822 l 330 822 l 458 1007 l 726 1007 l 728 1002 l 507 822 z "},"ê":{"ha":926,"x_min":50,"x_max":876,"o":"m 463 750 q 638 727 562 750 q 768 657 715 705 q 849 538 821 610 q 876 367 876 466 l 876 319 l 326 319 q 360 202 326 243 q 473 160 395 160 q 536 168 511 160 q 578 191 562 176 q 601 225 594 205 q 608 267 608 244 l 876 267 q 851 148 876 201 q 777 59 827 96 q 653 3 727 22 q 479 -17 578 -17 q 301 6 380 -17 q 165 76 221 28 q 80 196 110 123 q 50 367 50 268 q 79 535 50 463 q 162 655 109 607 q 293 726 216 703 q 463 750 369 750 m 473 574 q 369 541 404 574 q 328 450 335 507 l 597 450 q 565 541 597 508 q 473 574 532 574 m 745 806 l 565 806 l 462 913 l 359 806 l 181 806 l 374 1007 l 552 1007 l 745 806 z "},"ë":{"ha":926,"x_min":50,"x_max":876,"o":"m 463 750 q 638 727 562 750 q 768 657 715 705 q 849 538 821 610 q 876 367 876 466 l 876 319 l 326 319 q 360 202 326 243 q 473 160 395 160 q 536 168 511 160 q 578 191 562 176 q 601 225 594 205 q 608 267 608 244 l 876 267 q 851 148 876 201 q 777 59 827 96 q 653 3 727 22 q 479 -17 578 -17 q 301 6 380 -17 q 165 76 221 28 q 80 196 110 123 q 50 367 50 268 q 79 535 50 463 q 162 655 109 607 q 293 726 216 703 q 463 750 369 750 m 473 574 q 369 541 404 574 q 328 450 335 507 l 597 450 q 565 541 597 508 q 473 574 532 574 m 722 814 l 511 814 l 511 1007 l 722 1007 l 722 814 m 416 814 l 205 814 l 205 1007 l 416 1007 l 416 814 z "},"ì":{"ha":463,"x_min":-34,"x_max":370,"o":"m 93 0 l 93 733 l 370 733 l 370 0 l 93 0 m 189 822 l -34 1002 l -31 1007 l 237 1007 l 365 822 l 189 822 z "},"í":{"ha":463,"x_min":93,"x_max":496,"o":"m 93 0 l 93 733 l 370 733 l 370 0 l 93 0 m 275 822 l 98 822 l 226 1007 l 494 1007 l 496 1002 l 275 822 z "},"î":{"ha":463,"x_min":-51,"x_max":513,"o":"m 370 0 l 93 0 l 93 733 l 370 733 l 370 0 m 513 806 l 333 806 l 230 913 l 127 806 l -51 806 l 142 1007 l 320 1007 l 513 806 z "},"ï":{"ha":463,"x_min":-27,"x_max":490,"o":"m 370 0 l 93 0 l 93 733 l 370 733 l 370 0 m 490 814 l 279 814 l 279 1007 l 490 1007 l 490 814 m 184 814 l -27 814 l -27 1007 l 184 1007 l 184 814 z "},"ð":{"ha":926,"x_min":50,"x_max":876,"o":"m 504 1007 q 531 991 516 1000 q 561 970 544 983 q 599 942 578 958 l 791 964 l 791 856 l 697 844 q 763 755 731 805 q 821 647 795 706 q 861 517 846 587 q 876 367 876 448 q 847 198 876 271 q 763 78 817 126 q 633 7 709 31 q 463 -17 556 -17 q 293 7 369 -17 q 162 78 216 31 q 79 198 109 126 q 50 367 50 271 q 75 513 50 447 q 148 627 100 580 q 262 701 195 675 q 414 728 330 728 q 459 725 435 728 q 505 717 484 723 q 471 767 489 743 q 436 814 454 791 l 207 787 l 207 896 l 343 911 q 277 966 307 943 q 228 1002 248 989 l 229 1007 l 504 1007 m 463 562 q 400 551 426 562 q 358 520 374 541 q 334 471 342 500 q 326 406 326 442 l 326 326 q 334 261 326 290 q 358 212 342 232 q 400 181 374 192 q 463 171 426 171 q 568 212 535 171 q 600 326 600 254 l 600 406 q 592 471 600 442 q 568 520 585 500 q 525 551 551 541 q 463 562 499 562 z "},"ñ":{"ha":926,"x_min":83,"x_max":844,"o":"m 589 750 q 702 731 654 750 q 782 677 750 713 q 829 591 813 642 q 844 475 844 540 l 844 0 l 568 0 l 568 441 q 545 517 568 488 q 475 546 522 546 q 428 537 449 546 q 391 512 406 528 q 368 475 376 496 q 359 431 359 454 l 359 0 l 83 0 l 83 733 l 310 733 l 328 623 q 378 675 349 652 q 441 715 407 699 q 512 741 475 732 q 589 750 550 750 m 772 1007 q 758 933 772 969 q 718 870 744 898 q 656 825 692 842 q 577 808 621 808 q 513 817 544 808 q 452 836 481 826 q 393 855 422 846 q 337 864 365 864 q 293 848 311 864 q 267 808 275 832 l 155 808 q 169 881 155 846 q 208 945 182 917 q 270 990 234 973 q 349 1007 305 1007 q 414 998 382 1007 q 475 979 445 989 q 533 960 505 969 q 589 951 562 951 q 634 967 616 951 q 659 1007 652 983 l 772 1007 z "},"ò":{"ha":926,"x_min":50,"x_max":876,"o":"m 463 750 q 633 726 556 750 q 763 655 709 703 q 847 535 817 607 q 876 367 876 463 q 847 198 876 271 q 763 78 817 126 q 633 7 709 31 q 463 -17 556 -17 q 293 7 369 -17 q 162 78 216 31 q 79 198 109 126 q 50 367 50 271 q 79 535 50 463 q 162 655 109 607 q 293 726 216 703 q 463 750 369 750 m 463 562 q 400 551 426 562 q 358 520 374 541 q 334 471 342 500 q 326 406 326 442 l 326 326 q 334 261 326 290 q 358 212 342 232 q 400 181 374 192 q 463 171 426 171 q 568 212 535 171 q 600 326 600 254 l 600 406 q 592 471 600 442 q 568 520 585 500 q 525 551 551 541 q 463 562 499 562 m 420 822 l 198 1002 l 201 1007 l 469 1007 l 597 822 l 420 822 z "},"ó":{"ha":926,"x_min":50,"x_max":876,"o":"m 463 750 q 633 726 556 750 q 763 655 709 703 q 847 535 817 607 q 876 367 876 463 q 847 198 876 271 q 763 78 817 126 q 633 7 709 31 q 463 -17 556 -17 q 293 7 369 -17 q 162 78 216 31 q 79 198 109 126 q 50 367 50 271 q 79 535 50 463 q 162 655 109 607 q 293 726 216 703 q 463 750 369 750 m 463 562 q 400 551 426 562 q 358 520 374 541 q 334 471 342 500 q 326 406 326 442 l 326 326 q 334 261 326 290 q 358 212 342 232 q 400 181 374 192 q 463 171 426 171 q 568 212 535 171 q 600 326 600 254 l 600 406 q 592 471 600 442 q 568 520 585 500 q 525 551 551 541 q 463 562 499 562 m 507 822 l 330 822 l 458 1007 l 726 1007 l 728 1002 l 507 822 z "},"ô":{"ha":926,"x_min":50,"x_max":876,"o":"m 463 750 q 633 726 556 750 q 763 655 709 703 q 847 535 817 607 q 876 367 876 463 q 847 198 876 271 q 763 78 817 126 q 633 7 709 31 q 463 -17 556 -17 q 293 7 369 -17 q 162 78 216 31 q 79 198 109 126 q 50 367 50 271 q 79 535 50 463 q 162 655 109 607 q 293 726 216 703 q 463 750 369 750 m 463 562 q 400 551 426 562 q 358 520 374 541 q 334 471 342 500 q 326 406 326 442 l 326 326 q 334 261 326 290 q 358 212 342 232 q 400 181 374 192 q 463 171 426 171 q 568 212 535 171 q 600 326 600 254 l 600 406 q 592 471 600 442 q 568 520 585 500 q 525 551 551 541 q 463 562 499 562 m 745 806 l 565 806 l 462 913 l 359 806 l 181 806 l 374 1007 l 552 1007 l 745 806 z "},"õ":{"ha":926,"x_min":50,"x_max":876,"o":"m 463 750 q 633 726 556 750 q 763 655 709 703 q 847 535 817 607 q 876 367 876 463 q 847 198 876 271 q 763 78 817 126 q 633 7 709 31 q 463 -17 556 -17 q 293 7 369 -17 q 162 78 216 31 q 79 198 109 126 q 50 367 50 271 q 79 535 50 463 q 162 655 109 607 q 293 726 216 703 q 463 750 369 750 m 463 562 q 400 551 426 562 q 358 520 374 541 q 334 471 342 500 q 326 406 326 442 l 326 326 q 334 261 326 290 q 358 212 342 232 q 400 181 374 192 q 463 171 426 171 q 568 212 535 171 q 600 326 600 254 l 600 406 q 592 471 600 442 q 568 520 585 500 q 525 551 551 541 q 463 562 499 562 m 772 1007 q 758 933 772 969 q 718 870 744 898 q 656 825 692 842 q 577 808 621 808 q 513 817 544 808 q 452 836 481 826 q 393 855 422 846 q 337 864 365 864 q 293 848 311 864 q 267 808 275 832 l 155 808 q 169 881 155 846 q 208 945 182 917 q 270 990 234 973 q 349 1007 305 1007 q 414 998 382 1007 q 475 979 445 989 q 533 960 505 969 q 589 951 562 951 q 634 967 616 951 q 659 1007 652 983 l 772 1007 z "},"ö":{"ha":926,"x_min":50,"x_max":876,"o":"m 463 750 q 633 726 556 750 q 763 655 709 703 q 847 535 817 607 q 876 367 876 463 q 847 198 876 271 q 763 78 817 126 q 633 7 709 31 q 463 -17 556 -17 q 293 7 369 -17 q 162 78 216 31 q 79 198 109 126 q 50 367 50 271 q 79 535 50 463 q 162 655 109 607 q 293 726 216 703 q 463 750 369 750 m 463 562 q 400 551 426 562 q 358 520 374 541 q 334 471 342 500 q 326 406 326 442 l 326 326 q 334 261 326 290 q 358 212 342 232 q 400 181 374 192 q 463 171 426 171 q 568 212 535 171 q 600 326 600 254 l 600 406 q 592 471 600 442 q 568 520 585 500 q 525 551 551 541 q 463 562 499 562 m 722 814 l 511 814 l 511 1007 l 722 1007 l 722 814 m 416 814 l 205 814 l 205 1007 l 416 1007 l 416 814 z "},"÷":{"ha":917,"x_min":92,"x_max":825,"o":"m 825 272 l 92 272 l 92 456 l 825 456 l 825 272 m 551 21 l 370 21 l 370 203 l 551 203 l 551 21 m 551 524 l 370 524 l 370 705 l 551 705 l 551 524 z "},"ø":{"ha":926,"x_min":50,"x_max":876,"o":"m 765 653 q 847 533 819 604 q 876 367 876 462 q 847 198 876 271 q 763 78 817 126 q 633 7 709 31 q 463 -17 556 -17 q 352 -7 404 -17 q 257 20 301 2 l 192 -62 l 64 -62 l 171 71 q 82 193 113 119 q 50 367 50 266 q 79 535 50 463 q 162 655 109 607 q 293 726 216 703 q 463 750 369 750 q 681 707 589 750 l 736 777 l 864 777 l 765 653 m 390 186 q 423 175 405 178 q 463 171 441 171 q 568 212 535 171 q 600 326 600 254 l 600 406 q 600 425 600 416 q 597 444 599 435 l 390 186 m 463 562 q 400 551 426 562 q 358 520 374 541 q 334 471 342 500 q 326 406 326 442 l 326 326 q 330 271 326 296 l 546 541 q 509 556 530 551 q 463 562 488 562 z "},"ù":{"ha":926,"x_min":81,"x_max":842,"o":"m 615 0 l 597 111 q 547 58 576 81 q 484 17 518 34 q 413 -8 450 1 q 336 -17 375 -17 q 223 2 271 -17 q 143 56 175 20 q 96 142 112 91 q 81 258 81 193 l 81 733 l 357 733 l 357 292 q 380 216 357 245 q 450 187 404 187 q 497 196 476 187 q 534 221 519 205 q 557 258 549 237 q 566 302 566 279 l 566 733 l 842 733 l 842 0 l 615 0 m 420 822 l 198 1002 l 201 1007 l 469 1007 l 597 822 l 420 822 z "},"ú":{"ha":926,"x_min":81,"x_max":842,"o":"m 615 0 l 597 111 q 547 58 576 81 q 484 17 518 34 q 413 -8 450 1 q 336 -17 375 -17 q 223 2 271 -17 q 143 56 175 20 q 96 142 112 91 q 81 258 81 193 l 81 733 l 357 733 l 357 292 q 380 216 357 245 q 450 187 404 187 q 497 196 476 187 q 534 221 519 205 q 557 258 549 237 q 566 302 566 279 l 566 733 l 842 733 l 842 0 l 615 0 m 507 822 l 330 822 l 458 1007 l 726 1007 l 728 1002 l 507 822 z "},"û":{"ha":926,"x_min":81,"x_max":842,"o":"m 842 0 l 615 0 l 597 111 q 547 58 576 81 q 484 17 518 34 q 413 -8 450 1 q 336 -17 375 -17 q 223 2 271 -17 q 143 56 175 20 q 96 142 112 91 q 81 258 81 193 l 81 733 l 357 733 l 357 292 q 380 216 357 245 q 450 187 404 187 q 497 196 476 187 q 534 221 519 205 q 557 258 549 237 q 566 302 566 279 l 566 733 l 842 733 l 842 0 m 745 806 l 565 806 l 462 913 l 359 806 l 181 806 l 374 1007 l 552 1007 l 745 806 z "},"ü":{"ha":926,"x_min":81,"x_max":842,"o":"m 842 0 l 615 0 l 597 111 q 547 58 576 81 q 484 17 518 34 q 413 -8 450 1 q 336 -17 375 -17 q 223 2 271 -17 q 143 56 175 20 q 96 142 112 91 q 81 258 81 193 l 81 733 l 357 733 l 357 292 q 380 216 357 245 q 450 187 404 187 q 497 196 476 187 q 534 221 519 205 q 557 258 549 237 q 566 302 566 279 l 566 733 l 842 733 l 842 0 m 722 814 l 511 814 l 511 1007 l 722 1007 l 722 814 m 416 814 l 205 814 l 205 1007 l 416 1007 l 416 814 z "},"ý":{"ha":848,"x_min":0,"x_max":848,"o":"m 587 22 q 531 -104 562 -46 q 457 -203 500 -161 q 355 -268 414 -245 q 216 -292 296 -292 q 124 -284 166 -292 q 57 -267 83 -276 l 57 -102 l 168 -102 q 228 -91 205 -102 q 264 -64 250 -80 q 283 -31 277 -49 q 292 0 289 -14 l 0 733 l 297 733 l 437 245 l 447 245 l 576 733 l 848 733 l 587 22 m 468 822 l 291 822 l 419 1007 l 687 1007 l 690 1002 l 468 822 z "},"þ":{"ha":926,"x_min":85,"x_max":876,"o":"m 361 664 q 452 729 401 708 q 567 750 504 750 q 697 726 640 750 q 794 655 755 703 q 855 535 834 607 q 876 366 876 463 q 855 198 876 270 q 794 78 834 126 q 697 7 755 31 q 567 -17 640 -17 q 452 3 504 -17 q 361 66 401 24 l 361 -273 l 85 -273 l 85 1007 l 361 1007 l 361 664 m 481 546 q 425 534 448 546 q 387 500 402 522 q 365 451 372 479 q 358 390 358 422 l 358 345 q 365 283 358 312 q 387 234 372 255 q 425 200 402 212 q 481 187 448 187 q 536 197 513 187 q 573 227 559 208 q 594 272 587 245 q 600 330 600 298 l 600 404 q 594 463 600 437 q 573 507 587 489 q 536 536 559 526 q 481 546 513 546 z "},"ÿ":{"ha":848,"x_min":0,"x_max":848,"o":"m 587 22 q 531 -104 562 -46 q 457 -203 500 -161 q 355 -268 414 -245 q 216 -292 296 -292 q 124 -284 166 -292 q 57 -267 83 -276 l 57 -102 l 168 -102 q 228 -91 205 -102 q 264 -64 250 -80 q 283 -31 277 -49 q 292 0 289 -14 l 0 733 l 297 733 l 437 245 l 447 245 l 576 733 l 848 733 l 587 22 m 683 814 l 472 814 l 472 1007 l 683 1007 l 683 814 m 377 814 l 166 814 l 166 1007 l 377 1007 l 377 814 z "},"Ă":{"ha":1080,"x_min":14,"x_max":1068,"o":"m 1068 0 l 743 0 l 703 135 l 368 135 l 328 0 l 14 0 l 363 956 l 720 956 l 1068 0 m 533 689 l 432 349 l 639 349 l 539 689 l 533 689 m 797 1230 q 779 1159 797 1195 q 728 1095 761 1124 q 647 1048 694 1066 q 540 1029 599 1029 q 432 1048 479 1029 q 352 1095 385 1066 q 301 1159 319 1124 q 284 1230 284 1195 l 418 1230 q 430 1206 420 1219 q 455 1184 439 1194 q 493 1166 471 1173 q 540 1160 514 1160 q 588 1166 566 1160 q 626 1184 610 1173 q 652 1206 642 1194 q 665 1230 663 1219 l 797 1230 z "},"Ā":{"ha":1080,"x_min":14,"x_max":1068,"o":"m 1068 0 l 743 0 l 703 135 l 368 135 l 328 0 l 14 0 l 363 956 l 720 956 l 1068 0 m 533 689 l 432 349 l 639 349 l 539 689 l 533 689 m 760 1063 l 321 1063 l 321 1202 l 760 1202 l 760 1063 z "},"Ą":{"ha":1080,"x_min":14,"x_max":1068,"o":"m 1068 0 l 887 0 q 872 -43 880 -17 q 865 -96 865 -69 q 869 -122 865 -109 q 883 -145 873 -135 q 908 -161 892 -155 q 948 -167 924 -167 l 1006 -167 l 1006 -272 q 873 -293 943 -293 q 808 -284 840 -293 q 752 -257 777 -275 q 713 -208 728 -238 q 698 -135 698 -178 q 715 -59 698 -91 q 753 0 732 -26 l 743 0 l 703 135 l 368 135 l 328 0 l 14 0 l 363 956 l 720 956 l 1068 0 m 533 689 l 432 349 l 639 349 l 539 689 l 533 689 z "},"Ǻ":{"ha":1080,"x_min":14,"x_max":1068,"o":"m 1068 0 l 743 0 l 703 135 l 368 135 l 328 0 l 14 0 l 363 956 l 400 956 q 390 1011 390 980 q 402 1071 390 1045 q 434 1114 414 1097 q 483 1140 455 1131 q 541 1149 510 1149 q 599 1140 572 1149 q 647 1115 627 1132 q 680 1072 668 1097 q 692 1011 692 1046 q 682 956 692 981 l 720 956 l 1068 0 m 533 689 l 432 349 l 639 349 l 539 689 l 533 689 m 808 1323 l 623 1183 l 446 1183 l 553 1329 l 805 1329 l 808 1323 m 541 1067 q 501 1051 516 1067 q 486 1010 486 1035 q 502 971 486 986 q 541 956 517 956 q 582 971 566 956 q 597 1013 597 987 q 581 1052 597 1036 q 541 1067 565 1067 z "},"Ć":{"ha":1080,"x_min":62,"x_max":1018,"o":"m 558 972 q 747 946 663 972 q 892 868 832 920 q 985 739 952 816 q 1018 562 1018 663 l 725 562 q 714 637 725 604 q 682 694 703 670 q 629 730 661 718 q 557 743 598 743 q 474 727 508 743 q 418 682 439 711 q 386 612 396 652 q 376 522 376 571 l 376 433 q 387 344 376 385 q 418 274 397 303 q 474 229 440 245 q 554 212 507 212 q 690 259 645 212 q 734 387 734 305 l 1018 387 q 987 213 1018 289 q 897 86 956 138 q 753 9 838 35 q 558 -17 667 -17 q 188 108 313 -17 q 62 478 62 233 q 188 848 62 723 q 558 972 313 972 m 598 1044 l 421 1044 l 549 1230 l 817 1230 l 820 1224 l 598 1044 z "},"Č":{"ha":1080,"x_min":62,"x_max":1018,"o":"m 558 972 q 747 946 663 972 q 892 868 832 920 q 985 739 952 816 q 1018 562 1018 663 l 725 562 q 714 637 725 604 q 682 694 703 670 q 629 730 661 718 q 557 743 598 743 q 474 727 508 743 q 418 682 439 711 q 386 612 396 652 q 376 522 376 571 l 376 433 q 387 344 376 385 q 418 274 397 303 q 474 229 440 245 q 554 212 507 212 q 690 259 645 212 q 734 387 734 305 l 1018 387 q 987 213 1018 289 q 897 86 956 138 q 753 9 838 35 q 558 -17 667 -17 q 188 108 313 -17 q 62 478 62 233 q 188 848 62 723 q 558 972 313 972 m 629 1028 l 452 1028 l 258 1230 l 436 1230 l 539 1122 l 642 1230 l 823 1230 l 629 1028 z "},"Ĉ":{"ha":1080,"x_min":62,"x_max":1018,"o":"m 558 972 q 747 946 663 972 q 892 868 832 920 q 985 739 952 816 q 1018 562 1018 663 l 725 562 q 714 637 725 604 q 682 694 703 670 q 629 730 661 718 q 557 743 598 743 q 474 727 508 743 q 418 682 439 711 q 386 612 396 652 q 376 522 376 571 l 376 433 q 387 344 376 385 q 418 274 397 303 q 474 229 440 245 q 554 212 507 212 q 690 259 645 212 q 734 387 734 305 l 1018 387 q 987 213 1018 289 q 897 86 956 138 q 753 9 838 35 q 558 -17 667 -17 q 188 108 313 -17 q 62 478 62 233 q 188 848 62 723 q 558 972 313 972 m 823 1028 l 642 1028 l 539 1135 l 436 1028 l 258 1028 l 452 1230 l 629 1230 l 823 1028 z "},"Ċ":{"ha":1080,"x_min":62,"x_max":1018,"o":"m 558 972 q 747 946 663 972 q 892 868 832 920 q 985 739 952 816 q 1018 562 1018 663 l 725 562 q 714 637 725 604 q 682 694 703 670 q 629 730 661 718 q 557 743 598 743 q 474 727 508 743 q 418 682 439 711 q 386 612 396 652 q 376 522 376 571 l 376 433 q 387 344 376 385 q 418 274 397 303 q 474 229 440 245 q 554 212 507 212 q 690 259 645 212 q 734 387 734 305 l 1018 387 q 987 213 1018 289 q 897 86 956 138 q 753 9 838 35 q 558 -17 667 -17 q 188 108 313 -17 q 62 478 62 233 q 188 848 62 723 q 558 972 313 972 m 646 1036 l 435 1036 l 435 1230 l 646 1230 l 646 1036 z "},"Ď":{"ha":1080,"x_min":103,"x_max":1018,"o":"m 517 956 q 732 927 639 956 q 889 839 826 898 q 985 690 953 780 q 1018 478 1018 600 q 985 266 1018 355 q 889 117 953 176 q 732 29 826 58 q 517 0 639 0 l 103 0 l 103 956 l 517 956 m 410 726 l 410 229 l 511 229 q 598 243 562 229 q 658 284 635 257 q 693 349 682 311 q 704 436 704 387 l 704 519 q 693 607 704 568 q 658 672 682 645 q 598 712 635 699 q 511 726 562 726 l 410 726 m 578 1028 l 401 1028 l 208 1230 l 385 1230 l 488 1122 l 591 1230 l 772 1230 l 578 1028 z "},"Đ":{"ha":1080,"x_min":1,"x_max":1018,"o":"m 1 558 l 103 558 l 103 956 l 517 956 q 732 927 639 956 q 889 839 826 898 q 985 690 953 780 q 1018 478 1018 600 q 985 266 1018 355 q 889 117 953 176 q 732 29 826 58 q 517 0 639 0 l 103 0 l 103 422 l 1 422 l 1 558 m 410 422 l 410 229 l 511 229 q 598 243 562 229 q 658 284 635 257 q 693 349 682 311 q 704 436 704 387 l 704 519 q 693 607 704 568 q 658 672 682 645 q 598 712 635 699 q 511 726 562 726 l 410 726 l 410 558 l 545 558 l 545 422 l 410 422 z "},"Ĕ":{"ha":1003,"x_min":103,"x_max":939,"o":"m 791 1229 q 773 1159 791 1194 q 722 1094 755 1123 q 642 1047 689 1065 q 534 1029 594 1029 q 427 1047 475 1029 q 347 1094 380 1065 q 297 1159 314 1123 q 279 1229 279 1194 l 412 1229 q 424 1206 414 1218 q 450 1183 434 1194 q 487 1166 466 1173 q 534 1160 509 1160 q 583 1166 561 1160 q 621 1183 605 1173 q 648 1206 637 1194 q 660 1229 658 1218 l 791 1229 m 103 0 l 103 956 l 929 956 l 929 726 l 410 726 l 410 595 l 854 595 l 854 375 l 410 375 l 410 229 l 939 229 l 939 0 l 103 0 z "},"Ě":{"ha":1003,"x_min":103,"x_max":939,"o":"m 625 1028 l 447 1028 l 254 1229 l 432 1229 l 534 1122 l 637 1229 l 818 1229 l 625 1028 m 103 0 l 103 956 l 929 956 l 929 726 l 410 726 l 410 595 l 854 595 l 854 375 l 410 375 l 410 229 l 939 229 l 939 0 l 103 0 z "},"Ė":{"ha":1003,"x_min":103,"x_max":939,"o":"m 642 1036 l 431 1036 l 431 1229 l 642 1229 l 642 1036 m 103 0 l 103 956 l 929 956 l 929 726 l 410 726 l 410 595 l 854 595 l 854 375 l 410 375 l 410 229 l 939 229 l 939 0 l 103 0 z "},"Ē":{"ha":1003,"x_min":103,"x_max":939,"o":"m 755 1063 l 317 1063 l 317 1202 l 755 1202 l 755 1063 m 103 0 l 103 956 l 929 956 l 929 726 l 410 726 l 410 595 l 854 595 l 854 375 l 410 375 l 410 229 l 939 229 l 939 0 l 103 0 z "},"Ŋ":{"ha":1131,"x_min":103,"x_max":1054,"o":"m 1054 -40 q 1039 -155 1054 -107 q 994 -233 1025 -202 q 915 -277 963 -263 q 800 -292 867 -292 q 760 -290 783 -292 q 713 -285 737 -288 q 667 -277 689 -281 q 628 -267 644 -273 l 628 -102 l 696 -102 q 756 -78 738 -102 q 774 -12 774 -55 l 774 14 l 385 464 l 385 0 l 103 0 l 103 956 l 371 956 l 772 485 l 772 956 l 1054 956 l 1054 -40 z "},"Ę":{"ha":1003,"x_min":103,"x_max":990,"o":"m 929 726 l 410 726 l 410 595 l 854 595 l 854 375 l 410 375 l 410 229 l 939 229 l 939 0 l 871 0 q 856 -43 863 -17 q 848 -96 848 -68 q 853 -122 848 -109 q 867 -145 857 -135 q 892 -161 876 -155 q 932 -167 908 -167 l 990 -167 l 990 -272 q 857 -293 927 -293 q 792 -284 824 -293 q 736 -257 761 -275 q 697 -208 712 -238 q 682 -135 682 -178 q 700 -59 682 -92 q 737 0 717 -26 l 103 0 l 103 956 l 929 956 l 929 726 z "},"Ğ":{"ha":1157,"x_min":62,"x_max":1069,"o":"m 583 972 q 772 949 684 972 q 927 881 861 926 q 1031 768 993 836 q 1069 610 1069 700 l 777 610 q 762 665 777 640 q 723 707 747 690 q 665 734 698 724 q 596 743 633 743 q 432 685 487 743 q 376 522 376 627 l 376 433 q 432 271 376 329 q 596 212 487 212 q 665 221 633 212 q 723 247 698 231 q 762 287 747 264 q 777 339 777 311 l 559 339 l 559 533 l 1069 533 l 1069 0 l 911 0 l 880 94 q 732 11 815 39 q 539 -17 649 -17 q 181 108 300 -17 q 62 478 62 233 q 97 693 62 600 q 199 847 132 785 q 362 941 266 909 q 583 972 459 972 m 835 1230 q 817 1159 835 1195 q 766 1095 799 1124 q 685 1048 732 1066 q 578 1029 637 1029 q 470 1048 517 1029 q 390 1095 423 1066 q 339 1159 357 1124 q 322 1230 322 1195 l 456 1230 q 468 1206 458 1219 q 493 1184 477 1194 q 531 1166 509 1173 q 578 1160 552 1160 q 626 1166 604 1160 q 664 1184 648 1173 q 690 1206 680 1194 q 703 1230 701 1219 l 835 1230 z "},"Ĝ":{"ha":1157,"x_min":62,"x_max":1069,"o":"m 583 972 q 772 949 684 972 q 927 881 861 926 q 1031 768 993 836 q 1069 610 1069 700 l 777 610 q 762 665 777 640 q 723 707 747 690 q 665 734 698 724 q 596 743 633 743 q 432 685 487 743 q 376 522 376 627 l 376 433 q 432 271 376 329 q 596 212 487 212 q 665 221 633 212 q 723 247 698 231 q 762 287 747 264 q 777 339 777 311 l 559 339 l 559 533 l 1069 533 l 1069 0 l 911 0 l 880 94 q 732 11 815 39 q 539 -17 649 -17 q 181 108 300 -17 q 62 478 62 233 q 97 693 62 600 q 199 847 132 785 q 362 941 266 909 q 583 972 459 972 m 861 1028 l 680 1028 l 577 1135 l 474 1028 l 296 1028 l 490 1230 l 667 1230 l 861 1028 z "},"Ģ":{"ha":1157,"x_min":62,"x_max":1069,"o":"m 583 972 q 772 949 684 972 q 927 881 861 926 q 1031 768 993 836 q 1069 610 1069 700 l 777 610 q 762 665 777 640 q 723 707 747 690 q 665 734 698 724 q 596 743 633 743 q 432 685 487 743 q 376 522 376 627 l 376 433 q 432 271 376 329 q 596 212 487 212 q 665 221 633 212 q 723 247 698 231 q 762 287 747 264 q 777 339 777 311 l 559 339 l 559 533 l 1069 533 l 1069 0 l 911 0 l 880 94 q 732 11 815 39 q 539 -17 649 -17 q 181 108 300 -17 q 62 478 62 233 q 97 693 62 600 q 199 847 132 785 q 362 941 266 909 q 583 972 459 972 m 669 -233 l 593 -370 l 500 -370 l 557 -243 l 488 -243 l 488 -82 l 669 -82 l 669 -233 z "},"Ġ":{"ha":1157,"x_min":62,"x_max":1069,"o":"m 583 972 q 772 949 684 972 q 927 881 861 926 q 1031 768 993 836 q 1069 610 1069 700 l 777 610 q 762 665 777 640 q 723 707 747 690 q 665 734 698 724 q 596 743 633 743 q 432 685 487 743 q 376 522 376 627 l 376 433 q 432 271 376 329 q 596 212 487 212 q 665 221 633 212 q 723 247 698 231 q 762 287 747 264 q 777 339 777 311 l 559 339 l 559 533 l 1069 533 l 1069 0 l 911 0 l 880 94 q 732 11 815 39 q 539 -17 649 -17 q 181 108 300 -17 q 62 478 62 233 q 97 693 62 600 q 199 847 132 785 q 362 941 266 909 q 583 972 459 972 m 684 1036 l 473 1036 l 473 1230 l 684 1230 l 684 1036 z "},"Ħ":{"ha":1157,"x_min":1,"x_max":1154,"o":"m 1054 698 l 1054 0 l 747 0 l 747 349 l 410 349 l 410 0 l 103 0 l 103 698 l 1 698 l 1 833 l 103 833 l 103 956 l 410 956 l 410 833 l 747 833 l 747 956 l 1054 956 l 1054 833 l 1154 833 l 1154 698 l 1054 698 m 747 593 l 747 698 l 410 698 l 410 593 l 747 593 z "},"Ĥ":{"ha":1157,"x_min":103,"x_max":1054,"o":"m 1054 0 l 747 0 l 747 363 l 410 363 l 410 0 l 103 0 l 103 956 l 410 956 l 410 607 l 747 607 l 747 956 l 1054 956 l 1054 0 m 861 1028 l 680 1028 l 577 1135 l 474 1028 l 296 1028 l 490 1230 l 667 1230 l 861 1028 z "},"Ĳ":{"ha":1428,"x_min":117,"x_max":1325,"o":"m 1325 332 q 1298 174 1325 240 q 1220 66 1271 109 q 1096 3 1169 23 q 929 -17 1022 -17 q 763 3 836 -17 q 638 66 690 23 q 560 174 587 109 q 533 332 533 240 l 533 345 l 821 345 l 821 334 q 846 239 821 267 q 920 212 871 212 q 993 239 968 212 q 1018 334 1018 267 l 1018 956 l 1325 956 l 1325 332 m 424 0 l 117 0 l 117 956 l 424 956 l 424 0 z "},"Ĭ":{"ha":541,"x_min":14,"x_max":527,"o":"m 424 0 l 117 0 l 117 956 l 424 956 l 424 0 m 527 1230 q 509 1159 527 1195 q 458 1095 491 1124 q 377 1048 425 1066 q 270 1029 329 1029 q 162 1048 210 1029 q 82 1095 115 1066 q 32 1159 49 1124 q 14 1230 14 1195 l 148 1230 q 160 1206 150 1219 q 185 1184 170 1194 q 223 1166 201 1173 q 270 1160 244 1160 q 318 1166 296 1160 q 356 1184 340 1173 q 382 1206 372 1194 q 395 1230 393 1219 l 527 1230 z "},"İ":{"ha":541,"x_min":117,"x_max":424,"o":"m 424 0 l 117 0 l 117 956 l 424 956 l 424 0 m 376 1036 l 165 1036 l 165 1230 l 376 1230 l 376 1036 z "},"Ī":{"ha":541,"x_min":51,"x_max":490,"o":"m 424 0 l 117 0 l 117 956 l 424 956 l 424 0 m 490 1063 l 51 1063 l 51 1202 l 490 1202 l 490 1063 z "},"Į":{"ha":541,"x_min":117,"x_max":534,"o":"m 424 0 l 415 0 q 400 -43 408 -17 q 393 -96 393 -69 q 397 -122 393 -109 q 411 -145 401 -135 q 436 -161 420 -155 q 476 -167 452 -167 l 534 -167 l 534 -272 q 401 -293 471 -293 q 336 -284 368 -293 q 280 -257 304 -275 q 241 -208 256 -238 q 226 -135 226 -178 q 243 -59 226 -91 q 281 0 260 -26 l 117 0 l 117 956 l 424 956 l 424 0 z "},"Ĩ":{"ha":541,"x_min":-38,"x_max":579,"o":"m 424 0 l 117 0 l 117 956 l 424 956 l 424 0 m 579 1230 q 565 1156 579 1192 q 526 1093 551 1120 q 464 1048 500 1065 q 385 1031 428 1031 q 320 1040 351 1031 q 259 1059 289 1048 q 201 1078 229 1069 q 144 1086 172 1086 q 100 1070 118 1086 q 75 1031 82 1055 l -38 1031 q -24 1104 -38 1068 q 16 1167 -10 1139 q 77 1213 41 1196 q 157 1230 113 1230 q 221 1221 190 1230 q 282 1202 252 1212 q 340 1183 312 1192 q 397 1174 369 1174 q 441 1190 423 1174 q 467 1230 459 1206 l 579 1230 z "},"Ĵ":{"ha":926,"x_min":32,"x_max":937,"o":"m 823 332 q 796 174 823 240 q 718 66 769 109 q 594 3 667 23 q 428 -17 520 -17 q 261 3 335 -17 q 137 66 188 23 q 59 174 86 109 q 32 332 32 240 l 32 345 l 319 345 l 319 334 q 344 239 319 267 q 418 212 369 212 q 492 239 467 212 q 517 334 517 267 l 517 956 l 823 956 l 823 332 m 937 1028 l 757 1028 l 654 1135 l 551 1028 l 373 1028 l 566 1230 l 744 1230 l 937 1028 z "},"Ķ":{"ha":1157,"x_min":103,"x_max":1137,"o":"m 668 -233 l 593 -371 l 500 -371 l 557 -243 l 489 -243 l 489 -82 l 668 -82 l 668 -233 m 410 547 l 750 956 l 1131 956 l 787 562 l 1137 0 l 775 0 l 576 350 l 410 214 l 410 0 l 103 0 l 103 956 l 410 956 l 410 547 z "},"Ĺ":{"ha":926,"x_min":103,"x_max":900,"o":"m 298 1044 l 122 1044 l 250 1229 l 518 1229 l 521 1223 l 298 1044 m 103 0 l 103 956 l 410 956 l 410 244 l 900 244 l 900 0 l 103 0 z "},"Ľ":{"ha":926,"x_min":103,"x_max":900,"o":"m 868 804 l 793 667 l 700 667 l 757 794 l 689 794 l 689 956 l 868 956 l 868 804 m 103 0 l 103 956 l 410 956 l 410 244 l 900 244 l 900 0 l 103 0 z "},"Ļ":{"ha":926,"x_min":103,"x_max":900,"o":"m 553 -233 l 478 -371 l 385 -371 l 441 -243 l 374 -243 l 374 -82 l 553 -82 l 553 -233 m 103 0 l 103 956 l 410 956 l 410 244 l 900 244 l 900 0 l 103 0 z "},"Ŀ":{"ha":926,"x_min":103,"x_max":900,"o":"m 806 476 l 539 476 l 539 730 l 806 730 l 806 476 m 103 0 l 103 956 l 410 956 l 410 244 l 900 244 l 900 0 l 103 0 z "},"Ł":{"ha":926,"x_min":0,"x_max":900,"o":"m 410 643 l 616 772 l 616 633 l 410 505 l 410 244 l 900 244 l 900 0 l 103 0 l 103 318 l 0 256 l 0 392 l 103 456 l 103 956 l 410 956 l 410 643 z "},"Ń":{"ha":1157,"x_min":103,"x_max":1054,"o":"m 786 0 l 385 464 l 385 0 l 103 0 l 103 956 l 371 956 l 772 485 l 772 956 l 1054 956 l 1054 0 l 786 0 m 622 1044 l 445 1044 l 573 1230 l 841 1230 l 844 1224 l 622 1044 z "},"Ň":{"ha":1157,"x_min":103,"x_max":1054,"o":"m 1054 0 l 786 0 l 385 464 l 385 0 l 103 0 l 103 956 l 371 956 l 772 485 l 772 956 l 1054 956 l 1054 0 m 667 1028 l 490 1028 l 296 1230 l 474 1230 l 577 1122 l 680 1230 l 861 1230 l 667 1028 z "},"Ņ":{"ha":1157,"x_min":103,"x_max":1054,"o":"m 1054 0 l 786 0 l 385 464 l 385 0 l 103 0 l 103 956 l 371 956 l 772 485 l 772 956 l 1054 956 l 1054 0 m 669 -233 l 593 -370 l 500 -370 l 557 -243 l 488 -243 l 488 -82 l 669 -82 l 669 -233 z "},"Ŏ":{"ha":1157,"x_min":62,"x_max":1095,"o":"m 578 972 q 796 941 700 972 q 959 847 892 909 q 1060 693 1025 785 q 1095 478 1095 600 q 1060 263 1095 355 q 959 108 1025 170 q 796 15 892 46 q 578 -17 700 -17 q 360 15 456 -17 q 198 108 264 46 q 97 263 132 170 q 62 478 62 355 q 97 693 62 600 q 198 847 132 785 q 360 941 264 909 q 578 972 456 972 m 578 743 q 489 727 527 743 q 427 682 452 711 q 389 612 401 652 q 376 522 376 571 l 376 433 q 389 344 376 385 q 427 274 401 303 q 489 229 452 245 q 578 212 527 212 q 667 229 629 212 q 730 274 705 245 q 768 344 755 303 q 781 433 781 385 l 781 522 q 768 612 781 571 q 730 682 755 652 q 667 727 705 711 q 578 743 629 743 m 835 1230 q 817 1159 835 1195 q 766 1095 799 1124 q 685 1048 732 1066 q 578 1029 637 1029 q 470 1048 517 1029 q 390 1095 423 1066 q 339 1159 357 1124 q 322 1230 322 1195 l 456 1230 q 468 1206 458 1219 q 493 1184 477 1194 q 531 1166 509 1173 q 578 1160 552 1160 q 626 1166 604 1160 q 664 1184 648 1173 q 690 1206 680 1194 q 703 1230 701 1219 l 835 1230 z "},"Ő":{"ha":1157,"x_min":62,"x_max":1095,"o":"m 578 972 q 796 941 700 972 q 959 847 892 909 q 1060 693 1025 785 q 1095 478 1095 600 q 1060 263 1095 355 q 959 108 1025 170 q 796 15 892 46 q 578 -17 700 -17 q 360 15 456 -17 q 198 108 264 46 q 97 263 132 170 q 62 478 62 355 q 97 693 62 600 q 198 847 132 785 q 360 941 264 909 q 578 972 456 972 m 578 743 q 489 727 527 743 q 427 682 452 711 q 389 612 401 652 q 376 522 376 571 l 376 433 q 389 344 376 385 q 427 274 401 303 q 489 229 452 245 q 578 212 527 212 q 667 229 629 212 q 730 274 705 245 q 768 344 755 303 q 781 433 781 385 l 781 522 q 768 612 781 571 q 730 682 755 652 q 667 727 705 711 q 578 743 629 743 m 697 1225 l 504 1044 l 341 1044 l 447 1231 l 694 1231 l 697 1225 m 990 1225 l 797 1044 l 635 1044 l 740 1231 l 987 1231 l 990 1225 z "},"Ō":{"ha":1157,"x_min":62,"x_max":1095,"o":"m 578 972 q 796 941 700 972 q 959 847 892 909 q 1060 693 1025 785 q 1095 478 1095 600 q 1060 263 1095 355 q 959 108 1025 170 q 796 15 892 46 q 578 -17 700 -17 q 360 15 456 -17 q 198 108 264 46 q 97 263 132 170 q 62 478 62 355 q 97 693 62 600 q 198 847 132 785 q 360 941 264 909 q 578 972 456 972 m 578 743 q 489 727 527 743 q 427 682 452 711 q 389 612 401 652 q 376 522 376 571 l 376 433 q 389 344 376 385 q 427 274 401 303 q 489 229 452 245 q 578 212 527 212 q 667 229 629 212 q 730 274 705 245 q 768 344 755 303 q 781 433 781 385 l 781 522 q 768 612 781 571 q 730 682 755 652 q 667 727 705 711 q 578 743 629 743 m 798 1063 l 359 1063 l 359 1202 l 798 1202 l 798 1063 z "},"Ǿ":{"ha":1157,"x_min":62,"x_max":1095,"o":"m 954 850 q 1059 695 1023 788 q 1095 478 1095 602 q 1060 263 1095 355 q 959 108 1025 170 q 796 15 892 46 q 578 -17 700 -17 q 425 -3 495 -17 q 297 39 355 10 l 225 -50 l 75 -50 l 200 106 q 98 260 133 168 q 62 478 62 353 q 97 693 62 600 q 198 847 132 785 q 360 941 264 909 q 578 972 456 972 q 730 958 661 972 q 859 916 800 944 l 932 1007 l 1082 1007 l 954 850 m 463 243 q 514 220 486 229 q 578 212 542 212 q 667 229 629 212 q 730 274 705 245 q 768 344 755 303 q 781 433 781 385 l 781 522 q 765 616 781 574 l 463 243 m 578 743 q 489 727 527 743 q 427 682 452 711 q 389 612 401 652 q 376 522 376 571 l 376 433 q 379 384 376 408 q 390 339 382 360 l 693 713 q 641 735 670 727 q 578 743 612 743 m 622 1044 l 445 1044 l 573 1230 l 841 1230 l 844 1224 l 622 1044 z "},"Ŕ":{"ha":1080,"x_min":103,"x_max":1038,"o":"m 568 1044 l 392 1044 l 519 1229 l 787 1229 l 790 1223 l 568 1044 m 1010 663 q 998 581 1010 621 q 964 507 987 541 q 906 445 941 472 q 825 400 871 417 l 1038 0 l 693 0 l 524 349 l 410 349 l 410 0 l 103 0 l 103 956 l 688 956 q 827 931 767 956 q 928 867 888 907 q 989 774 969 827 q 1010 663 1010 721 m 697 650 q 690 685 697 669 q 672 713 684 701 q 644 731 660 724 q 611 737 629 737 l 410 737 l 410 561 l 611 561 q 644 568 629 561 q 672 586 660 574 q 690 614 684 598 q 697 650 697 631 z "},"Ř":{"ha":1080,"x_min":103,"x_max":1038,"o":"m 629 1028 l 452 1028 l 258 1229 l 436 1229 l 539 1122 l 642 1229 l 822 1229 l 629 1028 m 1010 663 q 998 581 1010 621 q 964 507 987 541 q 906 445 941 472 q 825 400 871 417 l 1038 0 l 693 0 l 524 349 l 410 349 l 410 0 l 103 0 l 103 956 l 688 956 q 827 931 767 956 q 928 867 888 907 q 989 774 969 827 q 1010 663 1010 721 m 697 650 q 690 685 697 669 q 672 713 684 701 q 644 731 660 724 q 611 737 629 737 l 410 737 l 410 561 l 611 561 q 644 568 629 561 q 672 586 660 574 q 690 614 684 598 q 697 650 697 631 z "},"Ŗ":{"ha":1080,"x_min":103,"x_max":1038,"o":"m 631 -233 l 555 -371 l 463 -371 l 519 -243 l 450 -243 l 450 -82 l 631 -82 l 631 -233 m 1010 663 q 998 581 1010 621 q 964 507 987 541 q 906 445 941 472 q 825 400 871 417 l 1038 0 l 693 0 l 524 349 l 410 349 l 410 0 l 103 0 l 103 956 l 688 956 q 827 931 767 956 q 928 867 888 907 q 989 774 969 827 q 1010 663 1010 721 m 697 650 q 690 685 697 669 q 672 713 684 701 q 644 731 660 724 q 611 737 629 737 l 410 737 l 410 561 l 611 561 q 644 568 629 561 q 672 586 660 574 q 690 614 684 598 q 697 650 697 631 z "},"Ś":{"ha":1003,"x_min":60,"x_max":953,"o":"m 504 972 q 666 955 590 972 q 800 902 743 938 q 891 810 857 865 q 926 677 925 754 l 926 661 l 639 661 l 639 667 q 632 703 639 686 q 610 734 625 720 q 572 755 595 747 q 515 764 549 764 q 420 745 452 764 q 389 701 389 726 q 413 658 389 674 q 476 630 437 642 q 566 610 515 619 q 668 588 616 601 q 771 556 721 575 q 862 506 822 537 q 927 429 902 475 q 953 317 951 383 q 921 164 953 228 q 832 61 889 101 q 699 2 776 20 q 532 -17 622 -17 q 345 -2 431 -17 q 195 51 258 13 q 96 156 132 90 q 60 323 60 222 l 350 323 q 361 261 350 285 q 392 225 372 238 q 440 207 412 212 q 504 203 469 203 q 549 204 525 203 q 592 212 572 206 q 626 231 612 218 q 639 267 639 244 q 615 308 639 292 q 551 335 591 323 q 460 355 511 346 q 357 378 410 365 q 254 413 304 392 q 163 467 203 433 q 99 548 123 500 q 75 667 75 597 q 111 808 75 750 q 205 903 146 867 q 341 956 264 939 q 504 972 419 972 m 545 1044 l 368 1044 l 496 1230 l 764 1230 l 767 1224 l 545 1044 z "},"Ş":{"ha":1003,"x_min":60,"x_max":953,"o":"m 504 972 q 666 955 590 972 q 800 902 743 938 q 891 810 857 865 q 926 677 925 754 l 926 661 l 639 661 l 639 667 q 632 703 639 686 q 610 734 625 720 q 572 755 595 747 q 515 764 549 764 q 420 745 452 764 q 389 701 389 726 q 413 658 389 674 q 476 630 437 642 q 566 610 515 619 q 668 588 616 601 q 771 556 721 575 q 862 506 822 537 q 927 429 902 475 q 953 317 951 383 q 922 167 953 229 q 837 64 891 104 q 708 4 783 24 q 546 -16 633 -15 l 543 -40 q 591 -51 568 -43 q 632 -73 614 -58 q 661 -109 650 -87 q 671 -164 671 -132 q 655 -229 671 -203 q 613 -268 638 -254 q 560 -288 589 -282 q 507 -293 532 -293 q 459 -292 484 -293 q 411 -287 434 -290 q 368 -280 388 -284 q 332 -271 347 -276 l 332 -196 q 387 -201 359 -199 q 439 -205 410 -203 q 495 -207 467 -207 q 535 -197 520 -207 q 551 -164 551 -188 q 539 -131 551 -143 q 498 -119 528 -119 l 445 -119 l 460 -15 q 300 8 374 -10 q 173 66 227 27 q 90 168 119 105 q 60 323 60 231 l 350 323 q 361 261 350 285 q 392 225 372 238 q 440 207 412 212 q 504 203 469 203 q 549 204 525 203 q 592 212 572 206 q 626 231 612 218 q 639 267 639 244 q 615 308 639 292 q 551 335 591 323 q 460 355 511 346 q 357 378 410 365 q 254 413 304 392 q 163 467 203 433 q 99 548 123 500 q 75 667 75 597 q 111 808 75 750 q 205 903 146 867 q 341 956 264 939 q 504 972 419 972 z "},"Ŝ":{"ha":1003,"x_min":60,"x_max":953,"o":"m 504 972 q 666 955 590 972 q 800 902 743 938 q 891 810 857 865 q 926 677 925 754 l 926 661 l 639 661 l 639 667 q 632 703 639 686 q 610 734 625 720 q 572 755 595 747 q 515 764 549 764 q 420 745 452 764 q 389 701 389 726 q 413 658 389 674 q 476 630 437 642 q 566 610 515 619 q 668 588 616 601 q 771 556 721 575 q 862 506 822 537 q 927 429 902 475 q 953 317 951 383 q 921 164 953 228 q 832 61 889 101 q 699 2 776 20 q 532 -17 622 -17 q 345 -2 431 -17 q 195 51 258 13 q 96 156 132 90 q 60 323 60 222 l 350 323 q 361 261 350 285 q 392 225 372 238 q 440 207 412 212 q 504 203 469 203 q 549 204 525 203 q 592 212 572 206 q 626 231 612 218 q 639 267 639 244 q 615 308 639 292 q 551 335 591 323 q 460 355 511 346 q 357 378 410 365 q 254 413 304 392 q 163 467 203 433 q 99 548 123 500 q 75 667 75 597 q 111 808 75 750 q 205 903 146 867 q 341 956 264 939 q 504 972 419 972 m 784 1028 l 604 1028 l 500 1135 l 397 1028 l 220 1028 l 413 1230 l 591 1230 l 784 1028 z "},"Ŧ":{"ha":1003,"x_min":32,"x_max":965,"o":"m 878 373 l 653 373 l 653 0 l 346 0 l 346 373 l 119 373 l 119 512 l 346 512 l 346 711 l 32 711 l 32 956 l 965 956 l 965 711 l 653 711 l 653 512 l 878 512 l 878 373 z "},"Ť":{"ha":1003,"x_min":32,"x_max":965,"o":"m 965 711 l 653 711 l 653 0 l 346 0 l 346 711 l 32 711 l 32 956 l 965 956 l 965 711 m 591 1028 l 413 1028 l 220 1230 l 397 1230 l 500 1122 l 604 1230 l 784 1230 l 591 1028 z "},"Ţ":{"ha":1003,"x_min":32,"x_max":965,"o":"m 965 711 l 653 711 l 653 0 l 346 0 l 346 711 l 32 711 l 32 956 l 965 956 l 965 711 m 592 -233 l 517 -370 l 424 -370 l 481 -243 l 412 -243 l 412 -82 l 592 -82 l 592 -233 z "},"Ŭ":{"ha":1157,"x_min":103,"x_max":1054,"o":"m 1054 385 q 1022 211 1054 286 q 929 85 990 136 q 780 9 868 35 q 579 -17 692 -17 q 378 9 467 -17 q 229 85 290 35 q 135 211 168 136 q 103 385 103 286 l 103 956 l 410 956 l 410 389 q 420 318 410 350 q 452 262 431 286 q 504 225 473 239 q 578 212 536 212 q 652 225 620 212 q 705 262 684 239 q 737 318 726 286 q 747 389 747 350 l 747 956 l 1054 956 l 1054 385 m 835 1230 q 817 1159 835 1195 q 766 1095 799 1124 q 685 1048 732 1066 q 578 1029 637 1029 q 470 1048 517 1029 q 390 1095 423 1066 q 339 1159 357 1124 q 322 1230 322 1195 l 456 1230 q 468 1206 458 1219 q 493 1184 477 1194 q 531 1166 509 1173 q 578 1160 552 1160 q 626 1166 604 1160 q 664 1184 648 1173 q 690 1206 680 1194 q 703 1230 701 1219 l 835 1230 z "},"Ű":{"ha":1157,"x_min":103,"x_max":1054,"o":"m 1054 385 q 1022 211 1054 286 q 929 85 990 136 q 780 9 868 35 q 579 -17 692 -17 q 378 9 467 -17 q 229 85 290 35 q 135 211 168 136 q 103 385 103 286 l 103 956 l 410 956 l 410 389 q 420 318 410 350 q 452 262 431 286 q 504 225 473 239 q 578 212 536 212 q 652 225 620 212 q 705 262 684 239 q 737 318 726 286 q 747 389 747 350 l 747 956 l 1054 956 l 1054 385 m 697 1225 l 504 1044 l 341 1044 l 447 1231 l 694 1231 l 697 1225 m 990 1225 l 797 1044 l 635 1044 l 740 1231 l 987 1231 l 990 1225 z "},"Ū":{"ha":1157,"x_min":103,"x_max":1054,"o":"m 1054 385 q 1022 211 1054 286 q 929 85 990 136 q 780 9 868 35 q 579 -17 692 -17 q 378 9 467 -17 q 229 85 290 35 q 135 211 168 136 q 103 385 103 286 l 103 956 l 410 956 l 410 389 q 420 318 410 350 q 452 262 431 286 q 504 225 473 239 q 578 212 536 212 q 652 225 620 212 q 705 262 684 239 q 737 318 726 286 q 747 389 747 350 l 747 956 l 1054 956 l 1054 385 m 798 1063 l 359 1063 l 359 1202 l 798 1202 l 798 1063 z "},"Ų":{"ha":1157,"x_min":103,"x_max":1054,"o":"m 1054 385 q 983 142 1054 237 q 783 9 913 48 q 774 -9 779 2 q 765 -35 769 -21 q 758 -65 761 -50 q 755 -96 755 -81 q 760 -122 755 -109 q 774 -145 764 -135 q 799 -161 783 -155 q 839 -167 815 -167 l 897 -167 l 897 -272 q 764 -293 834 -293 q 699 -284 730 -293 q 643 -257 667 -275 q 604 -208 618 -238 q 589 -135 589 -178 q 602 -67 589 -96 q 633 -15 615 -39 q 579 -17 606 -17 q 378 9 467 -17 q 229 85 290 35 q 135 211 168 136 q 103 385 103 286 l 103 956 l 410 956 l 410 389 q 420 318 410 350 q 452 262 431 286 q 504 225 473 239 q 578 212 536 212 q 652 225 620 212 q 705 262 684 239 q 737 318 726 286 q 747 389 747 350 l 747 956 l 1054 956 l 1054 385 z "},"Ů":{"ha":1157,"x_min":103,"x_max":1054,"o":"m 1054 385 q 1022 211 1054 286 q 929 85 990 136 q 780 9 868 35 q 579 -17 692 -17 q 378 9 467 -17 q 229 85 290 35 q 135 211 168 136 q 103 385 103 286 l 103 956 l 410 956 l 410 389 q 420 318 410 350 q 452 262 431 286 q 504 225 473 239 q 578 212 536 212 q 652 225 620 212 q 705 262 684 239 q 737 318 726 286 q 747 389 747 350 l 747 956 l 1054 956 l 1054 385 m 578 1325 q 636 1313 609 1325 q 685 1281 664 1301 q 718 1233 705 1261 q 730 1174 730 1206 q 718 1116 730 1143 q 685 1068 706 1088 q 637 1036 665 1048 q 578 1024 610 1024 q 520 1036 548 1024 q 472 1067 493 1047 q 439 1115 452 1088 q 427 1174 427 1143 q 439 1233 427 1205 q 472 1281 451 1260 q 520 1313 492 1301 q 578 1325 547 1325 m 578 1230 q 538 1214 553 1230 q 523 1173 523 1198 q 539 1134 523 1149 q 578 1118 555 1118 q 619 1134 604 1118 q 634 1175 634 1150 q 618 1214 634 1199 q 578 1230 602 1230 z "},"Ũ":{"ha":1157,"x_min":103,"x_max":1054,"o":"m 1054 385 q 1022 211 1054 286 q 929 85 990 136 q 780 9 868 35 q 579 -17 692 -17 q 378 9 467 -17 q 229 85 290 35 q 135 211 168 136 q 103 385 103 286 l 103 956 l 410 956 l 410 389 q 420 318 410 350 q 452 262 431 286 q 504 225 473 239 q 578 212 536 212 q 652 225 620 212 q 705 262 684 239 q 737 318 726 286 q 747 389 747 350 l 747 956 l 1054 956 l 1054 385 m 887 1230 q 873 1156 887 1192 q 833 1093 859 1120 q 772 1048 808 1065 q 692 1031 736 1031 q 628 1040 659 1031 q 567 1059 597 1048 q 509 1078 537 1069 q 452 1086 480 1086 q 408 1070 426 1086 q 382 1031 390 1055 l 270 1031 q 284 1104 270 1068 q 323 1167 298 1139 q 385 1213 349 1196 q 465 1230 420 1230 q 529 1221 498 1230 q 590 1202 560 1212 q 648 1183 620 1192 q 705 1174 677 1174 q 749 1190 731 1174 q 774 1230 767 1206 l 887 1230 z "},"Ẃ":{"ha":1389,"x_min":7,"x_max":1382,"o":"m 821 0 l 697 582 l 692 582 l 568 0 l 231 0 l 7 956 l 326 956 l 436 414 l 441 414 l 550 956 l 852 956 l 968 414 l 974 414 l 1076 956 l 1382 956 l 1158 0 l 821 0 m 738 1044 l 561 1044 l 689 1230 l 957 1230 l 960 1224 l 738 1044 z "},"Ŵ":{"ha":1389,"x_min":7,"x_max":1382,"o":"m 1158 0 l 821 0 l 697 582 l 692 582 l 568 0 l 231 0 l 7 956 l 326 956 l 436 414 l 441 414 l 550 956 l 852 956 l 968 414 l 974 414 l 1076 956 l 1382 956 l 1158 0 m 977 1028 l 796 1028 l 693 1135 l 590 1028 l 412 1028 l 606 1230 l 783 1230 l 977 1028 z "},"Ẅ":{"ha":1389,"x_min":7,"x_max":1382,"o":"m 1158 0 l 821 0 l 697 582 l 692 582 l 568 0 l 231 0 l 7 956 l 326 956 l 436 414 l 441 414 l 550 956 l 852 956 l 968 414 l 974 414 l 1076 956 l 1382 956 l 1158 0 m 953 1036 l 742 1036 l 742 1230 l 953 1230 l 953 1036 m 647 1036 l 436 1036 l 436 1230 l 647 1230 l 647 1036 z "},"Ẁ":{"ha":1389,"x_min":7,"x_max":1382,"o":"m 821 0 l 697 582 l 692 582 l 568 0 l 231 0 l 7 956 l 326 956 l 436 414 l 441 414 l 550 956 l 852 956 l 968 414 l 974 414 l 1076 956 l 1382 956 l 1158 0 l 821 0 m 652 1044 l 429 1224 l 432 1230 l 700 1230 l 828 1044 l 652 1044 z "},"Ŷ":{"ha":1080,"x_min":9,"x_max":1069,"o":"m 696 371 l 696 0 l 389 0 l 389 371 l 9 956 l 363 956 l 546 637 l 551 637 l 734 956 l 1069 956 l 696 371 m 823 1028 l 642 1028 l 539 1135 l 436 1028 l 258 1028 l 452 1230 l 629 1230 l 823 1028 z "},"Ỳ":{"ha":1080,"x_min":9,"x_max":1069,"o":"m 696 0 l 389 0 l 389 371 l 9 956 l 363 956 l 546 637 l 551 637 l 734 956 l 1069 956 l 696 371 l 696 0 m 498 1044 l 275 1224 l 278 1230 l 546 1230 l 674 1044 l 498 1044 z "},"Ź":{"ha":1003,"x_min":33,"x_max":960,"o":"m 505 229 l 960 229 l 960 0 l 33 0 l 33 98 l 476 726 l 66 726 l 66 956 l 949 956 l 949 857 l 505 229 m 545 1044 l 368 1044 l 496 1230 l 764 1230 l 767 1224 l 545 1044 z "},"Ż":{"ha":1003,"x_min":33,"x_max":960,"o":"m 949 857 l 505 229 l 960 229 l 960 0 l 33 0 l 33 98 l 476 726 l 66 726 l 66 956 l 949 956 l 949 857 m 608 1036 l 396 1036 l 396 1230 l 608 1230 l 608 1036 z "},"ă":{"ha":926,"x_min":41,"x_max":920,"o":"m 446 750 q 590 738 521 750 q 711 699 659 726 q 794 625 764 671 q 825 511 825 579 l 825 225 q 836 186 825 202 q 869 171 846 171 l 920 171 l 920 11 q 882 -3 904 3 q 837 -13 864 -9 q 775 -17 810 -17 q 641 8 691 -17 q 571 75 590 33 q 521 40 548 57 q 460 11 494 24 q 388 -9 427 -2 q 300 -17 348 -17 q 195 -6 243 -17 q 113 28 147 4 q 60 92 79 53 q 41 189 41 132 q 76 322 41 271 q 175 402 110 374 q 334 440 240 431 q 549 450 429 450 l 549 486 q 540 525 549 509 q 517 552 532 542 q 484 568 503 563 q 441 574 464 574 q 405 571 423 574 q 371 560 386 568 q 346 541 355 553 q 336 510 336 528 l 336 504 l 64 504 q 62 514 62 509 q 62 524 62 518 q 87 616 62 574 q 160 688 111 658 q 280 734 208 718 q 446 750 351 750 m 549 319 q 443 312 487 319 q 372 293 399 305 q 331 263 344 280 q 318 225 318 245 q 326 190 318 203 q 348 169 334 176 q 378 158 361 161 q 412 155 395 155 q 464 163 439 155 q 507 184 488 170 q 537 216 526 197 q 549 257 549 235 l 549 319 m 720 1007 q 702 937 720 972 q 650 872 684 901 q 569 825 617 844 q 463 807 522 807 q 355 825 402 807 q 275 872 308 844 q 224 937 241 901 q 207 1007 207 972 l 340 1007 q 352 984 342 996 q 378 961 362 972 q 415 944 394 951 q 463 937 437 937 q 510 944 488 937 q 549 961 532 951 q 575 984 565 972 q 587 1007 585 996 l 720 1007 z "},"ǽ":{"ha":1389,"x_min":41,"x_max":1350,"o":"m 964 750 q 1128 727 1057 750 q 1250 657 1200 705 q 1325 538 1299 610 q 1350 367 1350 466 l 1350 319 l 828 319 q 859 202 828 243 q 961 160 889 160 q 1017 168 994 160 q 1055 191 1040 176 q 1075 225 1069 205 q 1082 267 1082 244 l 1350 267 q 1327 148 1350 201 q 1257 59 1303 96 q 1141 3 1211 22 q 981 -17 1072 -17 q 793 8 876 -17 q 656 85 711 33 q 597 47 629 65 q 528 14 566 28 q 447 -8 490 0 q 355 -17 404 -17 q 225 -6 283 -17 q 126 30 167 4 q 63 97 85 55 q 41 203 41 139 q 75 329 41 280 q 174 404 109 377 q 334 441 239 431 q 549 450 428 450 l 549 486 q 541 525 549 509 q 519 552 533 542 q 487 568 505 563 q 447 574 468 574 q 408 571 428 574 q 373 560 389 568 q 347 541 357 553 q 336 510 336 528 l 336 504 l 64 504 q 62 514 62 509 q 62 524 62 518 q 87 616 62 574 q 160 688 111 658 q 280 734 208 718 q 446 750 351 750 q 595 735 524 750 q 720 684 667 720 q 831 733 770 717 q 964 750 892 750 m 549 319 q 443 312 487 319 q 372 293 399 305 q 331 263 344 280 q 318 225 318 245 q 326 190 318 203 q 348 169 334 176 q 378 158 361 161 q 412 155 395 155 q 464 163 439 155 q 507 184 488 170 q 537 216 526 197 q 549 257 549 235 l 549 319 m 956 574 q 865 541 895 574 q 829 450 836 507 l 1071 450 q 1041 541 1071 508 q 956 574 1011 574 m 755 822 l 578 822 l 706 1007 l 974 1007 l 977 1002 l 755 822 z "},"ā":{"ha":926,"x_min":41,"x_max":920,"o":"m 446 750 q 590 738 521 750 q 711 699 659 726 q 794 625 764 671 q 825 511 825 579 l 825 225 q 836 186 825 202 q 869 171 846 171 l 920 171 l 920 11 q 882 -3 904 3 q 837 -13 864 -9 q 775 -17 810 -17 q 641 8 691 -17 q 571 75 590 33 q 521 40 548 57 q 460 11 494 24 q 388 -9 427 -2 q 300 -17 348 -17 q 195 -6 243 -17 q 113 28 147 4 q 60 92 79 53 q 41 189 41 132 q 76 322 41 271 q 175 402 110 374 q 334 440 240 431 q 549 450 429 450 l 549 486 q 540 525 549 509 q 517 552 532 542 q 484 568 503 563 q 441 574 464 574 q 405 571 423 574 q 371 560 386 568 q 346 541 355 553 q 336 510 336 528 l 336 504 l 64 504 q 62 514 62 509 q 62 524 62 518 q 87 616 62 574 q 160 688 111 658 q 280 734 208 718 q 446 750 351 750 m 549 319 q 443 312 487 319 q 372 293 399 305 q 331 263 344 280 q 318 225 318 245 q 326 190 318 203 q 348 169 334 176 q 378 158 361 161 q 412 155 395 155 q 464 163 439 155 q 507 184 488 170 q 537 216 526 197 q 549 257 549 235 l 549 319 m 683 840 l 243 840 l 243 979 l 683 979 l 683 840 z "},"ą":{"ha":926,"x_min":41,"x_max":920,"o":"m 446 750 q 590 738 521 750 q 711 699 659 726 q 794 625 764 671 q 825 511 825 579 l 825 225 q 836 186 825 202 q 869 171 846 171 l 920 171 l 920 11 q 882 -3 904 3 q 837 -13 864 -9 q 775 -17 810 -17 q 765 -55 769 -34 q 760 -96 760 -75 q 765 -122 760 -109 q 779 -145 769 -135 q 804 -161 788 -155 q 844 -167 820 -167 l 902 -167 l 902 -272 q 769 -293 839 -293 q 704 -284 735 -293 q 648 -257 672 -275 q 608 -208 623 -238 q 593 -135 593 -178 q 598 -93 593 -112 q 612 -56 604 -73 q 630 -25 620 -39 q 652 3 641 -10 q 571 75 591 28 q 521 40 548 57 q 460 11 494 24 q 388 -9 427 -2 q 300 -17 348 -17 q 195 -6 243 -17 q 113 28 147 4 q 60 92 79 53 q 41 189 41 132 q 76 322 41 271 q 175 402 110 374 q 334 440 240 431 q 549 450 429 450 l 549 486 q 540 525 549 509 q 517 552 532 542 q 484 568 503 563 q 441 574 464 574 q 405 571 423 574 q 371 560 386 568 q 346 541 355 553 q 336 510 336 528 l 336 504 l 64 504 q 62 514 62 509 q 62 524 62 518 q 87 616 62 574 q 160 688 111 658 q 280 734 208 718 q 446 750 351 750 m 549 319 q 443 312 487 319 q 372 293 399 305 q 331 263 344 280 q 318 225 318 245 q 326 190 318 203 q 348 169 334 176 q 378 158 361 161 q 412 155 395 155 q 464 163 439 155 q 507 184 488 170 q 537 216 526 197 q 549 257 549 235 l 549 319 z "},"ǻ":{"ha":926,"x_min":41,"x_max":920,"o":"m 730 1227 l 545 1087 l 368 1087 l 475 1232 l 727 1232 l 730 1227 m 463 1053 q 521 1044 494 1053 q 569 1018 549 1036 q 602 975 590 1001 q 614 915 614 949 q 603 856 614 882 q 570 813 591 831 q 522 787 549 796 q 463 779 494 779 q 405 787 433 779 q 357 813 378 795 q 324 856 336 830 q 312 915 312 881 q 324 975 312 949 q 356 1018 336 1000 q 405 1044 377 1035 q 463 1053 432 1053 m 463 970 q 423 955 438 970 q 408 913 408 939 q 424 874 408 890 q 463 859 439 859 q 504 875 488 859 q 519 916 519 891 q 503 955 519 940 q 463 970 487 970 m 446 750 q 590 738 521 750 q 711 699 659 726 q 794 625 764 671 q 825 511 825 579 l 825 225 q 836 186 825 202 q 869 171 846 171 l 920 171 l 920 11 q 882 -3 904 3 q 837 -13 864 -9 q 775 -17 810 -17 q 641 8 691 -17 q 571 75 590 33 q 521 40 548 57 q 460 11 494 24 q 388 -9 427 -2 q 300 -17 348 -17 q 195 -6 243 -17 q 113 28 147 4 q 60 92 79 53 q 41 189 41 132 q 76 322 41 271 q 175 402 110 374 q 334 440 240 431 q 549 450 429 450 l 549 486 q 540 525 549 509 q 517 552 532 542 q 484 568 503 563 q 441 574 464 574 q 405 571 423 574 q 371 560 386 568 q 346 541 355 553 q 336 510 336 528 l 336 504 l 64 504 q 62 514 62 509 q 62 524 62 518 q 87 616 62 574 q 160 688 111 658 q 280 734 208 718 q 446 750 351 750 m 549 319 q 443 312 487 319 q 372 293 399 305 q 331 263 344 280 q 318 225 318 245 q 326 190 318 203 q 348 169 334 176 q 378 158 361 161 q 412 155 395 155 q 464 163 439 155 q 507 184 488 170 q 537 216 526 197 q 549 257 549 235 l 549 319 z "},"ć":{"ha":926,"x_min":50,"x_max":867,"o":"m 463 750 q 620 733 547 750 q 749 678 694 715 q 835 581 804 640 q 867 437 867 522 l 599 437 q 563 532 599 503 q 463 562 528 562 q 400 551 426 562 q 358 520 374 541 q 334 471 342 500 q 326 406 326 442 l 326 326 q 359 212 326 254 q 468 171 392 171 q 573 201 536 171 q 610 298 610 231 l 867 298 q 835 155 867 215 q 749 57 804 95 q 620 1 694 19 q 463 -17 547 -17 q 293 7 369 -17 q 162 78 216 31 q 79 198 109 126 q 50 367 50 271 q 79 535 50 463 q 162 655 109 607 q 293 726 216 703 q 463 750 369 750 m 507 822 l 330 822 l 458 1007 l 726 1007 l 728 1002 l 507 822 z "},"č":{"ha":926,"x_min":50,"x_max":867,"o":"m 463 750 q 620 733 547 750 q 749 678 694 715 q 835 581 804 640 q 867 437 867 522 l 599 437 q 563 532 599 503 q 463 562 528 562 q 400 551 426 562 q 358 520 374 541 q 334 471 342 500 q 326 406 326 442 l 326 326 q 359 212 326 254 q 468 171 392 171 q 573 201 536 171 q 610 298 610 231 l 867 298 q 835 155 867 215 q 749 57 804 95 q 620 1 694 19 q 463 -17 547 -17 q 293 7 369 -17 q 162 78 216 31 q 79 198 109 126 q 50 367 50 271 q 79 535 50 463 q 162 655 109 607 q 293 726 216 703 q 463 750 369 750 m 552 806 l 374 806 l 181 1007 l 359 1007 l 462 900 l 565 1007 l 745 1007 l 552 806 z "},"ĉ":{"ha":926,"x_min":50,"x_max":867,"o":"m 463 750 q 620 733 547 750 q 749 678 694 715 q 835 581 804 640 q 867 437 867 522 l 599 437 q 563 532 599 503 q 463 562 528 562 q 400 551 426 562 q 358 520 374 541 q 334 471 342 500 q 326 406 326 442 l 326 326 q 359 212 326 254 q 468 171 392 171 q 573 201 536 171 q 610 298 610 231 l 867 298 q 835 155 867 215 q 749 57 804 95 q 620 1 694 19 q 463 -17 547 -17 q 293 7 369 -17 q 162 78 216 31 q 79 198 109 126 q 50 367 50 271 q 79 535 50 463 q 162 655 109 607 q 293 726 216 703 q 463 750 369 750 m 745 806 l 565 806 l 462 913 l 359 806 l 181 806 l 374 1007 l 552 1007 l 745 806 z "},"ċ":{"ha":926,"x_min":50,"x_max":867,"o":"m 463 750 q 620 733 547 750 q 749 678 694 715 q 835 581 804 640 q 867 437 867 522 l 599 437 q 563 532 599 503 q 463 562 528 562 q 400 551 426 562 q 358 520 374 541 q 334 471 342 500 q 326 406 326 442 l 326 326 q 359 212 326 254 q 468 171 392 171 q 573 201 536 171 q 610 298 610 231 l 867 298 q 835 155 867 215 q 749 57 804 95 q 620 1 694 19 q 463 -17 547 -17 q 293 7 369 -17 q 162 78 216 31 q 79 198 109 126 q 50 367 50 271 q 79 535 50 463 q 162 655 109 607 q 293 726 216 703 q 463 750 369 750 m 569 814 l 357 814 l 357 1007 l 569 1007 l 569 814 z "},"ď":{"ha":1172,"x_min":50,"x_max":1090,"o":"m 842 0 l 616 0 l 593 104 q 493 13 552 43 q 359 -17 434 -17 q 229 7 287 -17 q 132 79 172 31 q 71 199 92 127 q 50 368 50 271 q 71 536 50 464 q 132 655 92 608 q 229 726 172 703 q 359 750 287 750 q 473 729 421 750 q 566 665 526 708 l 566 1007 l 842 1007 l 842 0 m 446 546 q 390 536 413 546 q 353 507 368 526 q 333 461 339 488 q 326 403 326 435 l 326 329 q 333 270 326 296 q 353 226 339 244 q 390 197 368 208 q 446 187 413 187 q 501 199 478 187 q 539 233 524 212 q 561 282 554 254 q 568 343 568 311 l 568 389 q 561 450 568 421 q 539 499 554 478 q 501 533 524 521 q 446 546 478 546 m 1090 805 l 1015 668 l 922 668 l 979 795 l 910 795 l 910 956 l 1090 956 l 1090 805 z "},"đ":{"ha":926,"x_min":50,"x_max":926,"o":"m 842 928 l 926 928 l 926 799 l 842 799 l 842 0 l 616 0 l 593 104 q 493 13 552 43 q 359 -17 434 -17 q 229 7 287 -17 q 132 79 172 31 q 71 199 92 127 q 50 368 50 271 q 71 536 50 464 q 132 655 92 608 q 229 726 172 703 q 359 750 287 750 q 473 729 421 750 q 566 665 526 708 l 566 799 l 467 799 l 467 928 l 566 928 l 566 1007 l 842 1007 l 842 928 m 446 546 q 390 536 413 546 q 353 507 368 526 q 333 461 339 488 q 326 403 326 435 l 326 329 q 333 270 326 296 q 353 226 339 244 q 390 197 368 208 q 446 187 413 187 q 501 199 478 187 q 539 233 524 212 q 561 282 554 254 q 568 343 568 311 l 568 389 q 561 450 568 421 q 539 499 554 478 q 501 533 524 521 q 446 546 478 546 z "},"ı":{"ha":463,"x_min":93,"x_max":370,"o":"m 370 0 l 93 0 l 93 733 l 370 733 l 370 0 z "},"ĕ":{"ha":926,"x_min":50,"x_max":876,"o":"m 463 750 q 638 727 562 750 q 768 657 715 705 q 849 538 821 610 q 876 367 876 466 l 876 319 l 326 319 q 360 202 326 243 q 473 160 395 160 q 536 168 511 160 q 578 191 562 176 q 601 225 594 205 q 608 267 608 244 l 876 267 q 851 148 876 201 q 777 59 827 96 q 653 3 727 22 q 479 -17 578 -17 q 301 6 380 -17 q 165 76 221 28 q 80 196 110 123 q 50 367 50 268 q 79 535 50 463 q 162 655 109 607 q 293 726 216 703 q 463 750 369 750 m 473 574 q 369 541 404 574 q 328 450 335 507 l 597 450 q 565 541 597 508 q 473 574 532 574 m 720 1007 q 702 937 720 972 q 650 872 684 901 q 569 825 617 844 q 463 807 522 807 q 355 825 402 807 q 275 872 308 844 q 224 937 241 901 q 207 1007 207 972 l 340 1007 q 352 984 342 996 q 378 961 362 972 q 415 944 394 951 q 463 937 437 937 q 510 944 488 937 q 549 961 532 951 q 575 984 565 972 q 587 1007 585 996 l 720 1007 z "},"ě":{"ha":926,"x_min":50,"x_max":876,"o":"m 463 750 q 638 727 562 750 q 768 657 715 705 q 849 538 821 610 q 876 367 876 466 l 876 319 l 326 319 q 360 202 326 243 q 473 160 395 160 q 536 168 511 160 q 578 191 562 176 q 601 225 594 205 q 608 267 608 244 l 876 267 q 851 148 876 201 q 777 59 827 96 q 653 3 727 22 q 479 -17 578 -17 q 301 6 380 -17 q 165 76 221 28 q 80 196 110 123 q 50 367 50 268 q 79 535 50 463 q 162 655 109 607 q 293 726 216 703 q 463 750 369 750 m 473 574 q 369 541 404 574 q 328 450 335 507 l 597 450 q 565 541 597 508 q 473 574 532 574 m 552 806 l 374 806 l 181 1007 l 359 1007 l 462 900 l 565 1007 l 745 1007 l 552 806 z "},"ė":{"ha":926,"x_min":50,"x_max":876,"o":"m 463 750 q 638 727 562 750 q 768 657 715 705 q 849 538 821 610 q 876 367 876 466 l 876 319 l 326 319 q 360 202 326 243 q 473 160 395 160 q 536 168 511 160 q 578 191 562 176 q 601 225 594 205 q 608 267 608 244 l 876 267 q 851 148 876 201 q 777 59 827 96 q 653 3 727 22 q 479 -17 578 -17 q 301 6 380 -17 q 165 76 221 28 q 80 196 110 123 q 50 367 50 268 q 79 535 50 463 q 162 655 109 607 q 293 726 216 703 q 463 750 369 750 m 473 574 q 369 541 404 574 q 328 450 335 507 l 597 450 q 565 541 597 508 q 473 574 532 574 m 569 814 l 357 814 l 357 1007 l 569 1007 l 569 814 z "},"ē":{"ha":926,"x_min":50,"x_max":876,"o":"m 463 750 q 638 727 562 750 q 768 657 715 705 q 849 538 821 610 q 876 367 876 466 l 876 319 l 326 319 q 360 202 326 243 q 473 160 395 160 q 536 168 511 160 q 578 191 562 176 q 601 225 594 205 q 608 267 608 244 l 876 267 q 851 148 876 201 q 777 59 827 96 q 653 3 727 22 q 479 -17 578 -17 q 301 6 380 -17 q 165 76 221 28 q 80 196 110 123 q 50 367 50 268 q 79 535 50 463 q 162 655 109 607 q 293 726 216 703 q 463 750 369 750 m 473 574 q 369 541 404 574 q 328 450 335 507 l 597 450 q 565 541 597 508 q 473 574 532 574 m 683 840 l 243 840 l 243 979 l 683 979 l 683 840 z "},"ŋ":{"ha":946,"x_min":93,"x_max":854,"o":"m 599 750 q 712 731 664 750 q 792 677 760 713 q 839 591 823 642 q 854 475 854 540 l 854 -40 q 840 -155 854 -107 q 794 -233 825 -202 q 715 -277 763 -263 q 600 -292 667 -292 q 560 -290 583 -292 q 513 -285 537 -288 q 467 -277 489 -281 q 428 -267 444 -273 l 428 -102 l 500 -102 q 560 -78 542 -102 q 578 -12 578 -55 l 578 441 q 554 517 578 488 q 485 546 531 546 q 437 537 458 546 q 401 512 416 528 q 378 475 386 496 q 370 431 370 454 l 370 0 l 93 0 l 93 733 l 319 733 l 338 623 q 388 675 359 652 q 450 715 416 699 q 522 741 484 732 q 599 750 559 750 z "},"ę":{"ha":926,"x_min":50,"x_max":876,"o":"m 463 750 q 638 727 562 750 q 768 657 715 705 q 849 538 821 610 q 876 367 876 466 l 876 319 l 326 319 q 360 202 326 243 q 473 160 395 160 q 536 168 511 160 q 578 191 562 176 q 601 225 594 205 q 608 267 608 244 l 876 267 q 825 105 876 172 q 669 7 773 39 q 652 -37 661 -8 q 644 -96 644 -66 q 648 -122 644 -109 q 662 -145 652 -135 q 687 -161 671 -155 q 727 -167 703 -167 l 785 -167 l 785 -272 q 652 -293 722 -293 q 587 -284 618 -293 q 531 -257 555 -275 q 492 -208 507 -238 q 477 -135 477 -178 q 490 -68 477 -97 q 520 -16 503 -40 q 500 -17 511 -17 q 479 -17 490 -17 q 301 6 380 -17 q 165 76 221 28 q 80 196 110 123 q 50 367 50 268 q 79 535 50 463 q 162 655 109 607 q 293 726 216 703 q 463 750 369 750 m 473 574 q 369 541 404 574 q 328 450 335 507 l 597 450 q 565 541 597 508 q 473 574 532 574 z "},"ğ":{"ha":926,"x_min":7,"x_max":908,"o":"m 908 871 q 897 793 908 826 q 863 737 885 760 q 810 698 841 713 q 739 672 779 682 q 803 601 780 642 q 825 514 825 560 q 800 408 825 452 q 733 335 775 363 q 634 292 690 306 q 517 278 578 278 l 411 278 q 343 267 363 278 q 323 237 323 255 q 327 221 323 229 q 341 207 331 213 q 368 198 351 201 q 411 195 385 195 l 661 195 q 771 177 725 195 q 848 128 818 159 q 893 54 879 97 q 908 -40 908 11 q 883 -149 908 -102 q 815 -227 858 -195 q 717 -275 773 -259 q 600 -292 661 -292 l 192 -292 q 120 -278 154 -292 q 61 -240 86 -264 q 21 -183 36 -216 q 7 -113 7 -151 q 16 -59 7 -84 q 42 -12 26 -33 q 79 25 58 9 q 123 52 100 41 q 71 107 90 75 q 52 180 52 140 q 62 233 52 208 q 92 279 73 258 q 137 315 111 300 q 192 338 163 330 q 145 373 167 354 q 108 415 123 393 q 83 461 92 437 q 74 513 74 486 q 104 626 74 581 q 185 700 134 672 q 306 739 237 727 q 452 750 374 750 q 522 748 494 750 q 572 742 549 746 q 617 747 597 742 q 653 762 637 753 q 679 783 668 771 q 699 806 690 794 q 724 871 717 834 l 908 871 m 342 0 q 290 -17 311 0 q 269 -66 269 -34 q 290 -118 269 -99 q 342 -138 311 -138 l 558 -138 q 610 -119 589 -138 q 632 -68 632 -100 q 610 -18 632 -35 q 558 0 589 0 l 342 0 m 449 606 q 408 600 427 606 q 375 583 389 595 q 353 554 361 572 q 345 514 345 537 q 372 445 345 467 q 449 422 399 422 q 527 445 498 422 q 555 514 555 467 q 527 583 555 561 q 449 606 498 606 m 715 1007 q 697 937 715 972 q 646 872 679 901 q 565 825 612 844 q 458 807 517 807 q 350 825 397 807 q 270 872 303 844 q 219 937 237 901 q 202 1007 202 972 l 336 1007 q 348 984 338 996 q 373 961 357 972 q 411 944 389 951 q 458 937 432 937 q 506 944 484 937 q 544 961 528 951 q 570 984 560 972 q 583 1007 581 996 l 715 1007 z "},"ĝ":{"ha":926,"x_min":7,"x_max":908,"o":"m 908 871 q 897 793 908 826 q 863 737 885 760 q 810 698 841 713 q 739 672 779 682 q 803 601 780 642 q 825 514 825 560 q 800 408 825 452 q 733 335 775 363 q 634 292 690 306 q 517 278 578 278 l 411 278 q 343 267 363 278 q 323 237 323 255 q 327 221 323 229 q 341 207 331 213 q 368 198 351 201 q 411 195 385 195 l 661 195 q 771 177 725 195 q 848 128 818 159 q 893 54 879 97 q 908 -40 908 11 q 883 -149 908 -102 q 815 -227 858 -195 q 717 -275 773 -259 q 600 -292 661 -292 l 192 -292 q 120 -278 154 -292 q 61 -240 86 -264 q 21 -183 36 -216 q 7 -113 7 -151 q 16 -59 7 -84 q 42 -12 26 -33 q 79 25 58 9 q 123 52 100 41 q 71 107 90 75 q 52 180 52 140 q 62 233 52 208 q 92 279 73 258 q 137 315 111 300 q 192 338 163 330 q 145 373 167 354 q 108 415 123 393 q 83 461 92 437 q 74 513 74 486 q 104 626 74 581 q 185 700 134 672 q 306 739 237 727 q 452 750 374 750 q 522 748 494 750 q 572 742 549 746 q 628 747 604 742 q 667 762 651 753 q 694 783 684 771 q 711 806 705 794 q 724 871 726 834 l 908 871 m 342 0 q 290 -17 311 0 q 269 -66 269 -34 q 290 -118 269 -99 q 342 -138 311 -138 l 558 -138 q 610 -119 589 -138 q 632 -68 632 -100 q 610 -18 632 -35 q 558 0 589 0 l 342 0 m 449 606 q 408 600 427 606 q 375 583 389 595 q 353 554 361 572 q 345 514 345 537 q 372 445 345 467 q 449 422 399 422 q 527 445 498 422 q 555 514 555 467 q 527 583 555 561 q 449 606 498 606 m 680 806 l 499 806 l 423 913 l 347 806 l 170 806 l 336 1007 l 513 1007 l 680 806 z "},"ģ":{"ha":926,"x_min":7,"x_max":908,"o":"m 358 946 l 433 1083 l 526 1083 l 469 956 l 538 956 l 538 795 l 358 795 l 358 946 m 908 871 q 897 793 908 826 q 863 737 885 760 q 810 698 841 713 q 739 672 779 682 q 803 601 780 642 q 825 514 825 560 q 800 408 825 452 q 733 335 775 363 q 634 292 690 306 q 517 278 578 278 l 411 278 q 343 267 363 278 q 323 237 323 255 q 327 221 323 229 q 341 207 331 213 q 368 198 351 201 q 411 195 385 195 l 661 195 q 771 177 725 195 q 848 128 818 159 q 893 54 879 97 q 908 -40 908 11 q 883 -149 908 -102 q 815 -227 858 -195 q 717 -275 773 -259 q 600 -292 661 -292 l 192 -292 q 120 -278 154 -292 q 61 -240 86 -264 q 21 -183 36 -216 q 7 -113 7 -151 q 16 -59 7 -84 q 42 -12 26 -33 q 79 25 58 9 q 123 52 100 41 q 71 107 90 75 q 52 180 52 140 q 62 233 52 208 q 92 279 73 258 q 137 315 111 300 q 192 338 163 330 q 145 373 167 354 q 108 415 123 393 q 83 461 92 437 q 74 513 74 486 q 104 626 74 581 q 185 700 134 672 q 306 739 237 727 q 452 750 374 750 q 522 748 494 750 q 572 742 549 746 q 636 791 614 768 q 668 831 658 814 q 681 871 680 852 l 908 871 m 342 0 q 290 -17 311 0 q 269 -66 269 -34 q 290 -118 269 -99 q 342 -138 311 -138 l 558 -138 q 610 -119 589 -138 q 632 -68 632 -100 q 610 -18 632 -35 q 558 0 589 0 l 342 0 m 449 606 q 408 600 427 606 q 375 583 389 595 q 353 554 361 572 q 345 514 345 537 q 372 445 345 467 q 449 422 399 422 q 527 445 498 422 q 555 514 555 467 q 527 583 555 561 q 449 606 498 606 z "},"ġ":{"ha":926,"x_min":7,"x_max":908,"o":"m 908 871 q 897 793 908 826 q 863 737 885 760 q 810 698 841 713 q 739 672 779 682 q 803 601 780 642 q 825 514 825 560 q 800 408 825 452 q 733 335 775 363 q 634 292 690 306 q 517 278 578 278 l 411 278 q 343 267 363 278 q 323 237 323 255 q 327 221 323 229 q 341 207 331 213 q 368 198 351 201 q 411 195 385 195 l 661 195 q 771 177 725 195 q 848 128 818 159 q 893 54 879 97 q 908 -40 908 11 q 883 -149 908 -102 q 815 -227 858 -195 q 717 -275 773 -259 q 600 -292 661 -292 l 192 -292 q 120 -278 154 -292 q 61 -240 86 -264 q 21 -183 36 -216 q 7 -113 7 -151 q 16 -59 7 -84 q 42 -12 26 -33 q 79 25 58 9 q 123 52 100 41 q 71 107 90 75 q 52 180 52 140 q 62 233 52 208 q 92 279 73 258 q 137 315 111 300 q 192 338 163 330 q 145 373 167 354 q 108 415 123 393 q 83 461 92 437 q 74 513 74 486 q 104 626 74 581 q 185 700 134 672 q 306 739 237 727 q 452 750 374 750 q 522 748 494 750 q 572 742 549 746 q 636 791 614 768 q 668 831 658 814 q 681 871 680 852 l 908 871 m 342 0 q 290 -17 311 0 q 269 -66 269 -34 q 290 -118 269 -99 q 342 -138 311 -138 l 558 -138 q 610 -119 589 -138 q 632 -68 632 -100 q 610 -18 632 -35 q 558 0 589 0 l 342 0 m 449 606 q 408 600 427 606 q 375 583 389 595 q 353 554 361 572 q 345 514 345 537 q 372 445 345 467 q 449 422 399 422 q 527 445 498 422 q 555 514 555 467 q 527 583 555 561 q 449 606 498 606 m 526 814 l 315 814 l 315 1007 l 526 1007 l 526 814 z "},"ħ":{"ha":926,"x_min":-3,"x_max":844,"o":"m 359 928 l 456 928 l 456 799 l 359 799 l 359 657 q 463 726 404 701 q 589 750 523 750 q 702 731 654 750 q 782 677 750 713 q 829 591 813 642 q 844 475 844 540 l 844 0 l 568 0 l 568 441 q 545 517 568 488 q 475 546 522 546 q 428 537 449 546 q 391 512 406 528 q 368 475 376 496 q 359 431 359 454 l 359 0 l 83 0 l 83 799 l -3 799 l -3 928 l 83 928 l 83 1007 l 359 1007 l 359 928 z "},"ĥ":{"ha":926,"x_min":-60,"x_max":844,"o":"m 359 657 q 463 726 404 701 q 589 750 523 750 q 702 731 654 750 q 782 677 750 713 q 829 591 813 642 q 844 475 844 540 l 844 0 l 568 0 l 568 441 q 545 517 568 488 q 475 546 522 546 q 428 537 449 546 q 391 512 406 528 q 368 475 376 496 q 359 431 359 454 l 359 0 l 83 0 l 83 1007 l 359 1007 l 359 657 m 504 1028 l 323 1028 l 220 1135 l 117 1028 l -60 1028 l 133 1230 l 311 1230 l 504 1028 z "},"ĭ":{"ha":463,"x_min":-25,"x_max":488,"o":"m 370 0 l 93 0 l 93 733 l 370 733 l 370 0 m 488 1007 q 470 937 488 972 q 418 872 452 901 q 337 825 385 844 q 231 807 290 807 q 123 825 170 807 q 43 872 76 844 q -8 937 9 901 q -25 1007 -25 972 l 109 1007 q 120 984 111 996 q 146 961 130 972 q 183 944 162 951 q 231 937 205 937 q 278 944 256 937 q 317 961 300 951 q 343 984 333 972 q 355 1007 353 996 l 488 1007 z "},"ĳ":{"ha":928,"x_min":93,"x_max":835,"o":"m 835 -40 q 820 -155 835 -107 q 774 -233 805 -202 q 695 -277 743 -263 q 581 -292 647 -292 q 541 -290 564 -292 q 494 -285 518 -288 q 447 -277 470 -281 q 408 -267 425 -273 l 408 -102 l 481 -102 q 541 -78 523 -102 q 558 -12 558 -55 l 558 733 l 835 733 l 835 -40 m 370 0 l 93 0 l 93 733 l 370 733 l 370 0 m 370 819 l 93 819 l 93 1007 l 370 1007 l 370 819 m 835 819 l 558 819 l 558 1007 l 835 1007 l 835 819 z "},"ī":{"ha":463,"x_min":12,"x_max":451,"o":"m 370 0 l 93 0 l 93 733 l 370 733 l 370 0 m 451 840 l 12 840 l 12 979 l 451 979 l 451 840 z "},"į":{"ha":463,"x_min":93,"x_max":456,"o":"m 370 0 l 337 0 q 322 -43 330 -17 q 315 -96 315 -69 q 319 -122 315 -109 q 333 -145 323 -135 q 358 -161 342 -155 q 398 -167 374 -167 l 456 -167 l 456 -272 q 323 -293 393 -293 q 258 -284 290 -293 q 202 -257 227 -275 q 163 -208 178 -238 q 148 -135 148 -178 q 165 -59 148 -91 q 203 0 182 -26 l 93 0 l 93 733 l 370 733 l 370 0 m 337 814 l 125 814 l 125 1007 l 337 1007 l 337 814 z "},"ĩ":{"ha":463,"x_min":-77,"x_max":540,"o":"m 370 0 l 93 0 l 93 733 l 370 733 l 370 0 m 540 1007 q 526 933 540 969 q 486 870 512 898 q 425 825 460 842 q 345 808 389 808 q 281 817 312 808 q 220 836 250 826 q 161 855 190 846 q 105 864 133 864 q 61 848 79 864 q 35 808 43 832 l -77 808 q -63 881 -77 846 q -24 945 -50 917 q 38 990 2 973 q 117 1007 73 1007 q 182 998 151 1007 q 243 979 213 989 q 301 960 273 969 q 357 951 330 951 q 402 967 384 951 q 427 1007 420 983 l 540 1007 z "},"ĵ":{"ha":463,"x_min":-57,"x_max":515,"o":"m 370 -40 q 355 -155 370 -107 q 309 -233 340 -202 q 230 -277 278 -263 q 115 -292 182 -292 q 76 -290 98 -292 q 29 -285 53 -288 q -18 -277 5 -281 q -57 -267 -41 -273 l -57 -102 l 16 -102 q 75 -78 57 -102 q 93 -12 93 -55 l 93 733 l 370 733 l 370 -40 m 515 806 l 335 806 l 232 913 l 129 806 l -49 806 l 144 1007 l 322 1007 l 515 806 z "},"ķ":{"ha":926,"x_min":83,"x_max":924,"o":"m 359 453 l 595 733 l 917 733 l 646 437 l 924 0 l 610 0 l 456 252 l 359 158 l 359 0 l 83 0 l 83 1008 l 359 1008 l 359 453 m 553 -233 l 478 -370 l 385 -370 l 442 -243 l 373 -243 l 373 -82 l 553 -82 l 553 -233 z "},"ĸ":{"ha":926,"x_min":83,"x_max":924,"o":"m 646 437 l 924 0 l 610 0 l 456 252 l 359 158 l 359 0 l 83 0 l 83 733 l 359 733 l 359 453 l 595 733 l 917 733 l 646 437 z "},"ĺ":{"ha":463,"x_min":93,"x_max":496,"o":"m 93 0 l 93 1007 l 370 1007 l 370 0 l 93 0 m 275 1044 l 98 1044 l 226 1230 l 494 1230 l 496 1224 l 275 1044 z "},"ľ":{"ha":694,"x_min":93,"x_max":679,"o":"m 370 0 l 93 0 l 93 1007 l 370 1007 l 370 0 m 679 726 l 553 460 l 420 460 l 519 713 l 420 713 l 420 956 l 679 956 l 679 726 z "},"ļ":{"ha":463,"x_min":93,"x_max":370,"o":"m 370 0 l 93 0 l 93 1007 l 370 1007 l 370 0 m 321 -233 l 246 -370 l 153 -370 l 210 -243 l 141 -243 l 141 -82 l 321 -82 l 321 -233 z "},"ŀ":{"ha":742,"x_min":93,"x_max":711,"o":"m 370 0 l 93 0 l 93 1007 l 370 1007 l 370 0 m 711 541 l 499 541 l 499 734 l 711 734 l 711 541 z "},"ſ":{"ha":542,"x_min":11,"x_max":532,"o":"m 382 1023 q 417 1021 397 1023 q 458 1016 437 1019 q 498 1008 479 1013 q 532 999 517 1004 l 532 836 l 468 836 q 430 832 445 836 q 406 819 415 827 q 394 795 397 810 q 390 762 390 781 l 390 0 l 114 0 l 114 546 l 11 546 l 11 733 l 114 733 l 114 764 q 134 889 114 839 q 189 968 153 939 q 273 1011 224 998 q 382 1023 323 1023 z "},"ł":{"ha":463,"x_min":-20,"x_max":503,"o":"m 370 625 l 503 707 l 503 568 l 370 487 l 370 0 l 93 0 l 93 325 l -20 256 l -20 393 l 93 463 l 93 1007 l 370 1007 l 370 625 z "},"ń":{"ha":926,"x_min":83,"x_max":844,"o":"m 589 750 q 702 731 654 750 q 782 677 750 713 q 829 591 813 642 q 844 475 844 540 l 844 0 l 568 0 l 568 441 q 545 517 568 488 q 475 546 522 546 q 428 537 449 546 q 391 512 406 528 q 368 475 376 496 q 359 431 359 454 l 359 0 l 83 0 l 83 733 l 310 733 l 328 623 q 378 675 349 652 q 441 715 407 699 q 512 741 475 732 q 589 750 550 750 m 507 822 l 330 822 l 458 1007 l 726 1007 l 728 1002 l 507 822 z "},"ŉ":{"ha":1192,"x_min":112,"x_max":1109,"o":"m 292 804 l 217 667 l 124 667 l 181 795 l 112 795 l 112 956 l 292 956 l 292 804 m 854 750 q 967 731 919 750 q 1047 677 1015 713 q 1094 591 1078 642 q 1109 475 1109 540 l 1109 0 l 833 0 l 833 441 q 810 517 833 488 q 740 546 787 546 q 693 537 714 546 q 656 512 671 528 q 633 475 641 496 q 625 431 625 454 l 625 0 l 349 0 l 349 733 l 575 733 l 593 623 q 643 675 614 652 q 706 715 672 699 q 778 741 740 732 q 854 750 815 750 z "},"ň":{"ha":926,"x_min":83,"x_max":844,"o":"m 589 750 q 702 731 654 750 q 782 677 750 713 q 829 591 813 642 q 844 475 844 540 l 844 0 l 568 0 l 568 441 q 545 517 568 488 q 475 546 522 546 q 428 537 449 546 q 391 512 406 528 q 368 475 376 496 q 359 431 359 454 l 359 0 l 83 0 l 83 733 l 310 733 l 328 623 q 378 675 349 652 q 441 715 407 699 q 512 741 475 732 q 589 750 550 750 m 552 806 l 374 806 l 181 1007 l 359 1007 l 462 900 l 565 1007 l 745 1007 l 552 806 z "},"ņ":{"ha":926,"x_min":83,"x_max":844,"o":"m 589 750 q 702 731 654 750 q 782 677 750 713 q 829 591 813 642 q 844 475 844 540 l 844 0 l 568 0 l 568 441 q 545 517 568 488 q 475 546 522 546 q 428 537 449 546 q 391 512 406 528 q 368 475 376 496 q 359 431 359 454 l 359 0 l 83 0 l 83 733 l 310 733 l 328 623 q 378 675 349 652 q 441 715 407 699 q 512 741 475 732 q 589 750 550 750 m 553 -233 l 478 -370 l 385 -370 l 442 -243 l 373 -243 l 373 -82 l 553 -82 l 553 -233 z "},"ŏ":{"ha":926,"x_min":50,"x_max":876,"o":"m 463 750 q 633 726 556 750 q 763 655 709 703 q 847 535 817 607 q 876 367 876 463 q 847 198 876 271 q 763 78 817 126 q 633 7 709 31 q 463 -17 556 -17 q 293 7 369 -17 q 162 78 216 31 q 79 198 109 126 q 50 367 50 271 q 79 535 50 463 q 162 655 109 607 q 293 726 216 703 q 463 750 369 750 m 463 562 q 400 551 426 562 q 358 520 374 541 q 334 471 342 500 q 326 406 326 442 l 326 326 q 334 261 326 290 q 358 212 342 232 q 400 181 374 192 q 463 171 426 171 q 568 212 535 171 q 600 326 600 254 l 600 406 q 592 471 600 442 q 568 520 585 500 q 525 551 551 541 q 463 562 499 562 m 720 1007 q 702 937 720 972 q 650 872 684 901 q 569 825 617 844 q 463 807 522 807 q 355 825 402 807 q 275 872 308 844 q 224 937 241 901 q 207 1007 207 972 l 340 1007 q 352 984 342 996 q 378 961 362 972 q 415 944 394 951 q 463 937 437 937 q 510 944 488 937 q 549 961 532 951 q 575 984 565 972 q 587 1007 585 996 l 720 1007 z "},"ő":{"ha":926,"x_min":50,"x_max":876,"o":"m 463 750 q 633 726 556 750 q 763 655 709 703 q 847 535 817 607 q 876 367 876 463 q 847 198 876 271 q 763 78 817 126 q 633 7 709 31 q 463 -17 556 -17 q 293 7 369 -17 q 162 78 216 31 q 79 198 109 126 q 50 367 50 271 q 79 535 50 463 q 162 655 109 607 q 293 726 216 703 q 463 750 369 750 m 463 562 q 400 551 426 562 q 358 520 374 541 q 334 471 342 500 q 326 406 326 442 l 326 326 q 334 261 326 290 q 358 212 342 232 q 400 181 374 192 q 463 171 426 171 q 568 212 535 171 q 600 326 600 254 l 600 406 q 592 471 600 442 q 568 520 585 500 q 525 551 551 541 q 463 562 499 562 m 578 1002 l 385 821 l 222 821 l 328 1007 l 575 1007 l 578 1002 m 871 1002 l 677 821 l 515 821 l 621 1007 l 868 1007 l 871 1002 z "},"ō":{"ha":926,"x_min":50,"x_max":876,"o":"m 463 750 q 633 726 556 750 q 763 655 709 703 q 847 535 817 607 q 876 367 876 463 q 847 198 876 271 q 763 78 817 126 q 633 7 709 31 q 463 -17 556 -17 q 293 7 369 -17 q 162 78 216 31 q 79 198 109 126 q 50 367 50 271 q 79 535 50 463 q 162 655 109 607 q 293 726 216 703 q 463 750 369 750 m 463 562 q 400 551 426 562 q 358 520 374 541 q 334 471 342 500 q 326 406 326 442 l 326 326 q 334 261 326 290 q 358 212 342 232 q 400 181 374 192 q 463 171 426 171 q 568 212 535 171 q 600 326 600 254 l 600 406 q 592 471 600 442 q 568 520 585 500 q 525 551 551 541 q 463 562 499 562 m 683 840 l 243 840 l 243 979 l 683 979 l 683 840 z "},"ǿ":{"ha":926,"x_min":50,"x_max":876,"o":"m 765 653 q 847 533 819 604 q 876 367 876 462 q 847 198 876 271 q 763 78 817 126 q 633 7 709 31 q 463 -17 556 -17 q 352 -7 404 -17 q 257 20 301 2 l 192 -62 l 64 -62 l 171 71 q 82 193 113 119 q 50 367 50 266 q 79 535 50 463 q 162 655 109 607 q 293 726 216 703 q 463 750 369 750 q 681 707 589 750 l 736 777 l 864 777 l 765 653 m 390 186 q 423 175 405 178 q 463 171 441 171 q 568 212 535 171 q 600 326 600 254 l 600 406 q 600 425 600 416 q 597 444 599 435 l 390 186 m 463 562 q 400 551 426 562 q 358 520 374 541 q 334 471 342 500 q 326 406 326 442 l 326 326 q 330 271 326 296 l 546 541 q 509 556 530 551 q 463 562 488 562 m 507 822 l 330 822 l 458 1007 l 726 1007 l 729 1002 l 507 822 z "},"ŕ":{"ha":616,"x_min":74,"x_max":611,"o":"m 529 751 q 564 749 549 751 q 589 743 578 746 q 611 734 602 739 l 611 503 l 522 503 q 446 491 477 503 q 396 456 415 479 q 368 400 376 433 q 359 326 359 368 l 359 0 l 83 0 l 83 733 l 310 733 l 328 623 q 361 680 340 655 q 409 720 382 704 q 466 744 435 736 q 529 751 496 751 m 251 822 l 74 822 l 202 1007 l 470 1007 l 473 1002 l 251 822 z "},"ř":{"ha":616,"x_min":26,"x_max":611,"o":"m 529 751 q 564 749 549 751 q 589 743 578 746 q 611 734 602 739 l 611 503 l 522 503 q 446 491 477 503 q 396 456 415 479 q 368 400 376 433 q 359 326 359 368 l 359 0 l 83 0 l 83 733 l 310 733 l 328 623 q 361 680 340 655 q 409 720 382 704 q 466 744 435 736 q 529 751 496 751 m 397 806 l 220 806 l 26 1007 l 204 1007 l 307 900 l 410 1007 l 591 1007 l 397 806 z "},"ŗ":{"ha":616,"x_min":83,"x_max":611,"o":"m 529 751 q 564 749 549 751 q 589 743 578 746 q 611 734 602 739 l 611 503 l 522 503 q 446 491 477 503 q 396 456 415 479 q 368 400 376 433 q 359 326 359 368 l 359 0 l 83 0 l 83 733 l 310 733 l 328 623 q 361 680 340 655 q 409 720 382 704 q 466 744 435 736 q 529 751 496 751 m 399 -233 l 323 -370 l 231 -370 l 288 -243 l 218 -243 l 218 -82 l 399 -82 l 399 -233 z "},"ś":{"ha":848,"x_min":45,"x_max":802,"o":"m 432 750 q 560 738 497 750 q 673 697 623 725 q 753 624 722 669 q 783 514 783 579 l 526 514 q 515 550 526 536 q 491 571 505 564 q 459 582 476 579 q 428 585 442 585 q 402 584 419 585 q 369 579 385 583 q 340 565 352 574 q 328 538 328 555 q 348 507 328 518 q 401 489 368 496 q 477 477 435 482 q 565 463 520 471 q 652 440 609 454 q 728 400 694 425 q 781 337 761 375 q 802 243 802 299 q 771 117 802 168 q 688 37 740 67 q 567 -5 635 7 q 422 -17 498 -17 q 286 -3 353 -17 q 165 42 218 12 q 78 122 111 73 q 45 239 45 170 l 301 239 l 301 233 q 315 190 302 207 q 347 164 328 174 q 386 152 366 155 q 422 149 407 149 q 457 150 437 149 q 495 156 477 151 q 525 172 513 161 q 538 203 538 183 q 517 235 538 223 q 464 255 497 248 q 388 269 431 263 q 301 285 345 275 q 214 309 256 294 q 138 348 171 323 q 84 410 104 373 q 64 501 64 447 q 94 622 64 574 q 176 698 125 669 q 293 738 227 726 q 432 750 359 750 m 468 822 l 291 822 l 419 1007 l 687 1007 l 690 1002 l 468 822 z "},"ş":{"ha":848,"x_min":45,"x_max":802,"o":"m 432 750 q 560 738 497 750 q 673 697 623 725 q 753 624 722 669 q 783 514 783 579 l 526 514 q 515 550 526 536 q 491 571 505 564 q 459 582 476 579 q 428 585 442 585 q 402 584 419 585 q 369 579 385 583 q 340 565 352 574 q 328 538 328 555 q 348 507 328 518 q 401 489 368 496 q 477 477 435 482 q 565 463 520 471 q 652 440 609 454 q 728 400 694 425 q 781 337 761 375 q 802 243 802 299 q 775 125 802 173 q 703 47 749 77 q 597 2 658 17 q 469 -16 536 -12 l 465 -40 q 514 -51 490 -43 q 555 -73 537 -58 q 584 -109 573 -87 q 594 -164 594 -132 q 577 -229 594 -203 q 536 -268 561 -254 q 483 -288 511 -282 q 430 -293 454 -293 q 381 -292 406 -293 q 334 -287 357 -290 q 290 -280 311 -284 q 255 -271 270 -276 l 255 -196 q 309 -201 281 -199 q 361 -205 333 -203 q 418 -207 390 -207 q 458 -197 443 -207 q 473 -164 473 -188 q 462 -131 473 -143 q 420 -119 451 -119 l 368 -119 l 383 -16 q 258 5 319 -12 q 150 52 197 21 q 74 129 102 82 q 45 239 45 175 l 301 239 l 301 233 q 315 190 302 207 q 347 164 328 174 q 386 152 366 155 q 422 149 407 149 q 457 150 437 149 q 495 156 477 151 q 525 172 513 161 q 538 203 538 183 q 517 235 538 223 q 464 255 497 248 q 388 269 431 263 q 301 285 345 275 q 214 309 256 294 q 138 348 171 323 q 84 410 104 373 q 64 501 64 447 q 94 622 64 574 q 176 698 125 669 q 293 738 227 726 q 432 750 359 750 z "},"ŝ":{"ha":848,"x_min":45,"x_max":802,"o":"m 432 750 q 560 738 497 750 q 673 697 623 725 q 753 624 722 669 q 783 514 783 579 l 526 514 q 515 550 526 536 q 491 571 505 564 q 459 582 476 579 q 428 585 442 585 q 402 584 419 585 q 369 579 385 583 q 340 565 352 574 q 328 538 328 555 q 348 507 328 518 q 401 489 368 496 q 477 477 435 482 q 565 463 520 471 q 652 440 609 454 q 728 400 694 425 q 781 337 761 375 q 802 243 802 299 q 771 117 802 168 q 688 37 740 67 q 567 -5 635 7 q 422 -17 498 -17 q 286 -3 353 -17 q 165 42 218 12 q 78 122 111 73 q 45 239 45 170 l 301 239 l 301 233 q 315 190 302 207 q 347 164 328 174 q 386 152 366 155 q 422 149 407 149 q 457 150 437 149 q 495 156 477 151 q 525 172 513 161 q 538 203 538 183 q 517 235 538 223 q 464 255 497 248 q 388 269 431 263 q 301 285 345 275 q 214 309 256 294 q 138 348 171 323 q 84 410 104 373 q 64 501 64 447 q 94 622 64 574 q 176 698 125 669 q 293 738 227 726 q 432 750 359 750 m 707 806 l 526 806 l 423 913 l 320 806 l 142 806 l 336 1007 l 513 1007 l 707 806 z "},"ŧ":{"ha":616,"x_min":37,"x_max":572,"o":"m 416 733 l 572 733 l 572 546 l 416 546 l 416 430 l 543 430 l 543 291 l 416 291 l 416 267 q 420 225 416 243 q 432 195 423 208 q 456 177 441 183 q 494 171 471 171 l 572 171 l 572 8 q 532 -2 555 3 q 484 -10 509 -7 q 436 -15 460 -14 q 395 -17 413 -17 q 292 -7 338 -17 q 211 25 245 2 q 159 85 178 47 q 140 179 140 123 l 140 291 l 43 291 l 43 430 l 140 430 l 140 546 l 37 546 l 37 733 l 151 733 l 211 956 l 416 956 l 416 733 z "},"ť":{"ha":868,"x_min":37,"x_max":810,"o":"m 810 804 l 735 667 l 642 667 l 699 795 l 630 795 l 630 956 l 810 956 l 810 804 m 416 733 l 572 733 l 572 546 l 416 546 l 416 267 q 420 225 416 243 q 432 195 423 208 q 456 177 441 183 q 494 171 471 171 l 572 171 l 572 8 q 532 -2 555 3 q 484 -10 509 -7 q 436 -15 460 -14 q 395 -17 413 -17 q 292 -7 338 -17 q 211 25 245 2 q 159 85 178 47 q 140 179 140 123 l 140 546 l 37 546 l 37 733 l 151 733 l 211 956 l 416 956 l 416 733 z "},"ţ":{"ha":616,"x_min":37,"x_max":572,"o":"m 416 733 l 572 733 l 572 546 l 416 546 l 416 267 q 420 225 416 243 q 432 195 423 208 q 456 177 441 183 q 494 171 471 171 l 572 171 l 572 8 q 532 -2 555 3 q 484 -10 509 -7 q 436 -15 460 -14 q 395 -17 413 -17 q 292 -7 338 -17 q 211 25 245 2 q 159 85 178 47 q 140 179 140 123 l 140 546 l 37 546 l 37 733 l 151 733 l 211 956 l 416 956 l 416 733 m 459 -233 l 384 -370 l 291 -370 l 348 -243 l 279 -243 l 279 -82 l 459 -82 l 459 -233 z "},"ŭ":{"ha":926,"x_min":81,"x_max":842,"o":"m 842 0 l 615 0 l 597 111 q 547 58 576 81 q 484 17 518 34 q 413 -8 450 1 q 336 -17 375 -17 q 223 2 271 -17 q 143 56 175 20 q 96 142 112 91 q 81 258 81 193 l 81 733 l 357 733 l 357 292 q 380 216 357 245 q 450 187 404 187 q 497 196 476 187 q 534 221 519 205 q 557 258 549 237 q 566 302 566 279 l 566 733 l 842 733 l 842 0 m 720 1007 q 702 937 720 972 q 650 872 684 901 q 569 825 617 844 q 463 807 522 807 q 355 825 402 807 q 275 872 308 844 q 224 937 241 901 q 207 1007 207 972 l 340 1007 q 352 984 342 996 q 378 961 362 972 q 415 944 394 951 q 463 937 437 937 q 510 944 488 937 q 549 961 532 951 q 575 984 565 972 q 587 1007 585 996 l 720 1007 z "},"ű":{"ha":926,"x_min":81,"x_max":864,"o":"m 842 0 l 615 0 l 597 111 q 547 58 576 81 q 484 17 518 34 q 413 -8 450 1 q 336 -17 375 -17 q 223 2 271 -17 q 143 56 175 20 q 96 142 112 91 q 81 258 81 193 l 81 733 l 357 733 l 357 292 q 380 216 357 245 q 450 187 404 187 q 497 196 476 187 q 534 221 519 205 q 557 258 549 237 q 566 302 566 279 l 566 733 l 842 733 l 842 0 m 571 1002 l 378 821 l 215 821 l 321 1007 l 568 1007 l 571 1002 m 864 1002 l 671 821 l 509 821 l 614 1007 l 861 1007 l 864 1002 z "},"ū":{"ha":926,"x_min":81,"x_max":842,"o":"m 842 0 l 615 0 l 597 111 q 547 58 576 81 q 484 17 518 34 q 413 -8 450 1 q 336 -17 375 -17 q 223 2 271 -17 q 143 56 175 20 q 96 142 112 91 q 81 258 81 193 l 81 733 l 357 733 l 357 292 q 380 216 357 245 q 450 187 404 187 q 497 196 476 187 q 534 221 519 205 q 557 258 549 237 q 566 302 566 279 l 566 733 l 842 733 l 842 0 m 683 840 l 243 840 l 243 979 l 683 979 l 683 840 z "},"ⁿ":{"ha":606,"x_min":60,"x_max":557,"o":"m 390 1022 q 516 979 475 1022 q 557 857 557 935 l 557 572 l 376 572 l 376 838 q 361 882 376 865 q 315 900 346 900 q 284 895 298 900 q 261 880 271 889 q 245 858 251 870 q 240 831 240 845 l 240 572 l 60 572 l 60 1013 l 207 1013 l 220 946 q 253 977 234 963 q 293 1001 271 991 q 340 1017 315 1011 q 390 1022 364 1022 z "},"ų":{"ha":926,"x_min":81,"x_max":842,"o":"m 842 0 l 714 0 q 699 -43 707 -17 q 692 -96 692 -69 q 696 -122 692 -109 q 710 -145 701 -135 q 735 -161 720 -155 q 775 -167 751 -167 l 833 -167 l 833 -272 q 701 -293 770 -293 q 635 -284 667 -293 q 579 -257 604 -275 q 540 -208 555 -238 q 525 -135 525 -178 q 531 -88 525 -109 q 548 -48 538 -66 q 570 -14 558 -30 q 595 17 583 2 l 612 17 l 597 111 q 547 58 576 81 q 484 17 518 34 q 413 -8 450 1 q 336 -17 375 -17 q 223 2 271 -17 q 143 56 175 20 q 96 142 112 91 q 81 258 81 193 l 81 733 l 357 733 l 357 292 q 380 216 357 245 q 450 187 404 187 q 497 196 476 187 q 534 221 519 205 q 557 258 549 237 q 566 302 566 279 l 566 733 l 842 733 l 842 0 z "},"ů":{"ha":926,"x_min":81,"x_max":842,"o":"m 842 0 l 615 0 l 597 111 q 547 58 576 81 q 484 17 518 34 q 413 -8 450 1 q 336 -17 375 -17 q 223 2 271 -17 q 143 56 175 20 q 96 142 112 91 q 81 258 81 193 l 81 733 l 357 733 l 357 292 q 380 216 357 245 q 450 187 404 187 q 497 196 476 187 q 534 221 519 205 q 557 258 549 237 q 566 302 566 279 l 566 733 l 842 733 l 842 0 m 463 1103 q 521 1091 494 1103 q 569 1059 549 1079 q 602 1011 590 1038 q 614 951 614 983 q 603 893 614 921 q 570 846 591 866 q 522 813 549 825 q 463 802 494 802 q 405 813 433 802 q 357 845 378 825 q 324 893 336 865 q 312 951 312 920 q 324 1010 312 983 q 356 1058 336 1038 q 405 1091 377 1079 q 463 1103 432 1103 m 463 1007 q 423 991 438 1007 q 408 950 408 975 q 424 911 408 926 q 463 896 439 896 q 504 912 488 896 q 519 953 519 928 q 503 992 519 977 q 463 1007 487 1007 z "},"ũ":{"ha":926,"x_min":81,"x_max":842,"o":"m 842 0 l 615 0 l 597 111 q 547 58 576 81 q 484 17 518 34 q 413 -8 450 1 q 336 -17 375 -17 q 223 2 271 -17 q 143 56 175 20 q 96 142 112 91 q 81 258 81 193 l 81 733 l 357 733 l 357 292 q 380 216 357 245 q 450 187 404 187 q 497 196 476 187 q 534 221 519 205 q 557 258 549 237 q 566 302 566 279 l 566 733 l 842 733 l 842 0 m 772 1007 q 758 933 772 969 q 718 870 744 898 q 656 825 692 842 q 577 808 621 808 q 513 817 544 808 q 452 836 481 826 q 393 855 422 846 q 337 864 365 864 q 293 848 311 864 q 267 808 275 832 l 155 808 q 169 881 155 846 q 208 945 182 917 q 270 990 234 973 q 349 1007 305 1007 q 414 998 382 1007 q 475 979 445 989 q 533 960 505 969 q 589 951 562 951 q 634 967 616 951 q 659 1007 652 983 l 772 1007 z "},"ẃ":{"ha":1311,"x_min":0,"x_max":1311,"o":"m 772 0 l 659 408 l 653 408 l 538 0 l 268 0 l 0 733 l 297 733 l 408 300 l 418 300 l 533 733 l 808 733 l 920 300 l 929 300 l 1042 733 l 1311 733 l 1042 0 l 772 0 m 699 822 l 522 822 l 650 1007 l 918 1007 l 921 1002 l 699 822 z "},"ŵ":{"ha":1311,"x_min":0,"x_max":1311,"o":"m 1042 0 l 772 0 l 659 408 l 653 408 l 538 0 l 268 0 l 0 733 l 297 733 l 408 300 l 418 300 l 533 733 l 808 733 l 920 300 l 929 300 l 1042 733 l 1311 733 l 1042 0 m 938 806 l 758 806 l 654 913 l 551 806 l 374 806 l 567 1007 l 745 1007 l 938 806 z "},"ẅ":{"ha":1311,"x_min":0,"x_max":1311,"o":"m 1042 0 l 772 0 l 659 408 l 653 408 l 538 0 l 268 0 l 0 733 l 297 733 l 408 300 l 418 300 l 533 733 l 808 733 l 920 300 l 929 300 l 1042 733 l 1311 733 l 1042 0 m 914 814 l 703 814 l 703 1007 l 914 1007 l 914 814 m 608 814 l 397 814 l 397 1007 l 608 1007 l 608 814 z "},"ẁ":{"ha":1311,"x_min":0,"x_max":1311,"o":"m 772 0 l 659 408 l 653 408 l 538 0 l 268 0 l 0 733 l 297 733 l 408 300 l 418 300 l 533 733 l 808 733 l 920 300 l 929 300 l 1042 733 l 1311 733 l 1042 0 l 772 0 m 613 822 l 391 1002 l 393 1007 l 661 1007 l 789 822 l 613 822 z "},"ŷ":{"ha":848,"x_min":0,"x_max":848,"o":"m 587 22 q 531 -104 562 -46 q 457 -203 500 -161 q 355 -268 414 -245 q 216 -292 296 -292 q 124 -284 166 -292 q 57 -267 83 -276 l 57 -102 l 168 -102 q 228 -91 205 -102 q 264 -64 250 -80 q 283 -31 277 -49 q 292 0 289 -14 l 0 733 l 297 733 l 437 245 l 447 245 l 576 733 l 848 733 l 587 22 m 707 806 l 526 806 l 423 913 l 320 806 l 142 806 l 336 1007 l 513 1007 l 707 806 z "},"ỳ":{"ha":848,"x_min":0,"x_max":848,"o":"m 587 22 q 531 -104 562 -46 q 457 -203 500 -161 q 355 -268 414 -245 q 216 -292 296 -292 q 124 -284 166 -292 q 57 -267 83 -276 l 57 -102 l 168 -102 q 228 -91 205 -102 q 264 -64 250 -80 q 283 -31 277 -49 q 292 0 289 -14 l 0 733 l 297 733 l 437 245 l 447 245 l 576 733 l 848 733 l 587 22 m 382 822 l 159 1002 l 162 1007 l 430 1007 l 558 822 l 382 822 z "},"ź":{"ha":772,"x_min":28,"x_max":743,"o":"m 419 187 l 743 187 l 743 0 l 28 0 l 28 90 l 336 546 l 45 546 l 45 733 l 730 733 l 730 647 l 419 187 m 430 822 l 253 822 l 381 1007 l 649 1007 l 652 1002 l 430 822 z "},"ż":{"ha":772,"x_min":28,"x_max":743,"o":"m 730 647 l 419 187 l 743 187 l 743 0 l 28 0 l 28 90 l 336 546 l 45 546 l 45 733 l 730 733 l 730 647 m 492 814 l 281 814 l 281 1007 l 492 1007 l 492 814 z "},"ﬁ":{"ha":926,"x_min":11,"x_max":842,"o":"m 374 1023 q 405 1021 387 1023 q 441 1016 422 1019 q 476 1008 459 1013 q 507 999 494 1004 l 507 836 l 457 836 q 419 832 434 836 q 396 819 405 827 q 385 795 388 810 q 382 762 382 781 l 382 733 l 507 733 l 507 546 l 382 546 l 382 0 l 106 0 l 106 546 l 11 546 l 11 733 l 106 733 l 106 764 q 125 889 106 839 q 180 968 145 939 q 265 1011 216 998 q 374 1023 314 1023 m 842 0 l 566 0 l 566 733 l 842 733 l 842 0 m 842 819 l 566 819 l 566 1007 l 842 1007 l 842 819 z "},"ﬂ":{"ha":926,"x_min":11,"x_max":843,"o":"m 374 1023 q 405 1021 387 1023 q 441 1016 422 1019 q 476 1008 459 1013 q 507 999 494 1004 l 507 836 l 457 836 q 419 832 434 836 q 396 819 405 827 q 385 795 388 810 q 382 762 382 781 l 382 733 l 507 733 l 507 546 l 382 546 l 382 0 l 106 0 l 106 546 l 11 546 l 11 733 l 106 733 l 106 764 q 125 889 106 839 q 180 968 145 939 q 265 1011 216 998 q 374 1023 314 1023 m 843 0 l 567 0 l 567 1007 l 843 1007 l 843 0 z "},"∆":{"ha":1080,"x_min":37,"x_max":1050,"o":"m 37 97 l 361 956 l 724 956 l 1050 97 l 1050 0 l 37 0 l 37 97 m 372 213 l 695 213 l 540 728 l 534 728 l 372 213 z "},"Ω":{"ha":1157,"x_min":43,"x_max":1144,"o":"m 593 972 q 809 942 713 972 q 972 855 905 911 q 1075 718 1039 798 q 1110 536 1110 637 q 1099 436 1110 484 q 1068 347 1088 389 q 1021 269 1048 305 q 962 203 994 233 l 1128 231 l 1144 231 l 1144 0 l 678 0 l 678 204 q 767 281 738 227 q 797 411 797 336 l 797 522 q 784 612 797 571 q 746 682 771 652 q 682 727 720 711 q 593 743 644 743 q 506 727 543 743 q 443 682 468 711 q 405 612 418 652 q 393 522 393 571 l 393 411 q 421 282 393 336 q 509 204 450 228 l 509 0 l 43 0 l 43 231 l 59 231 l 224 203 q 166 269 193 233 q 120 347 139 305 q 90 436 100 389 q 79 536 79 484 q 114 718 79 637 q 216 855 150 798 q 378 942 283 911 q 593 972 473 972 z "},"π":{"ha":982,"x_min":31,"x_max":943,"o":"m 925 559 l 823 559 l 823 229 q 829 93 823 151 q 842 0 834 35 l 598 0 q 586 31 591 10 q 578 79 581 51 q 574 141 575 107 q 572 212 572 176 l 572 559 l 444 559 q 439 469 443 519 q 430 367 435 420 q 416 260 424 314 q 399 158 408 207 q 379 69 390 110 q 357 0 368 28 l 113 0 q 134 81 123 36 q 155 175 145 125 q 172 277 164 225 q 186 380 180 330 q 195 476 192 430 q 199 559 199 522 q 116 556 153 559 q 52 546 80 553 l 31 684 q 123 720 56 707 q 304 733 191 733 l 943 733 l 925 559 z "},"⁄":{"ha":232,"x_min":-248,"x_max":456,"o":"m -115 -17 l -248 -17 l 322 972 l 456 972 l -115 -17 z "},"⅛":{"ha":1389,"x_min":53,"x_max":1349,"o":"m 494 -17 l 363 -17 l 932 972 l 1065 972 l 494 -17 m 383 517 l 526 517 l 526 389 l 53 389 l 53 517 l 201 517 l 201 777 l 53 777 l 53 872 q 121 883 85 874 q 193 903 157 891 q 262 931 229 916 q 322 962 296 946 l 383 962 l 383 517 m 1082 232 q 1049 228 1065 232 q 1022 215 1034 223 q 1004 193 1010 206 q 997 164 997 180 q 1021 113 997 130 q 1082 96 1044 96 q 1143 113 1118 96 q 1168 164 1168 130 q 1161 193 1168 180 q 1142 215 1154 206 q 1114 228 1130 223 q 1082 232 1099 232 m 1082 575 q 1177 564 1133 575 q 1254 531 1221 553 q 1306 479 1287 510 q 1325 407 1325 448 q 1319 365 1325 382 q 1303 333 1314 347 q 1279 309 1293 319 q 1249 288 1265 298 l 1249 281 q 1290 257 1272 269 q 1321 230 1308 245 q 1342 195 1335 214 q 1349 150 1349 176 q 1330 78 1349 109 q 1276 26 1311 47 q 1192 -6 1241 5 q 1082 -17 1142 -17 q 972 -6 1021 -17 q 888 26 923 5 q 835 78 854 47 q 817 150 817 109 q 824 195 817 176 q 844 230 831 214 q 875 257 857 245 q 916 281 893 269 l 916 288 q 885 309 899 298 q 861 333 871 319 q 845 365 850 347 q 839 407 839 382 q 858 479 839 448 q 909 531 877 510 q 986 564 942 553 q 1082 575 1031 575 m 1082 463 q 1021 448 1044 463 q 997 400 997 433 q 1004 371 997 382 q 1022 352 1010 359 q 1049 341 1034 345 q 1082 338 1065 338 q 1114 341 1099 338 q 1142 352 1130 345 q 1161 371 1154 359 q 1168 400 1168 382 q 1143 448 1168 433 q 1082 463 1118 463 z "},"⅜":{"ha":1389,"x_min":45,"x_max":1360,"o":"m 494 -17 l 363 -17 l 932 972 l 1065 972 l 494 -17 m 315 974 q 419 961 374 974 q 495 927 464 949 q 542 878 526 906 q 558 818 558 850 q 551 777 558 796 q 533 741 545 758 q 504 712 521 725 q 467 693 487 700 l 467 688 q 548 636 519 672 q 576 547 576 600 q 561 483 576 513 q 512 430 545 452 q 429 395 479 408 q 311 382 379 382 q 193 395 243 382 q 110 430 142 408 q 61 482 77 452 q 45 546 45 512 l 45 564 l 205 564 q 210 537 205 549 q 225 516 214 525 q 254 501 236 507 q 300 496 272 496 q 373 517 352 496 q 395 572 395 538 q 376 617 395 603 q 330 632 358 632 l 264 632 l 264 734 l 317 734 q 361 749 342 734 q 380 794 380 763 q 375 819 380 807 q 359 840 370 831 q 334 854 349 849 q 300 860 319 860 q 238 841 259 860 q 216 798 216 823 l 65 798 l 65 818 q 82 878 65 850 q 130 927 98 906 q 209 961 162 949 q 315 974 255 974 m 1093 232 q 1060 228 1076 232 q 1034 215 1045 223 q 1015 193 1022 206 q 1008 164 1008 180 q 1032 113 1008 130 q 1093 96 1055 96 q 1127 100 1112 96 q 1154 113 1143 104 q 1173 134 1166 121 q 1179 164 1179 146 q 1172 193 1179 180 q 1153 215 1165 206 q 1125 228 1141 223 q 1093 232 1109 232 m 1093 575 q 1188 564 1143 575 q 1265 531 1232 553 q 1317 479 1298 510 q 1336 407 1336 448 q 1330 365 1336 382 q 1314 333 1324 347 q 1290 309 1304 319 q 1260 288 1276 298 l 1260 281 q 1301 257 1283 269 q 1333 230 1320 245 q 1353 195 1345 214 q 1360 150 1360 176 q 1341 78 1360 109 q 1287 26 1322 47 q 1203 -6 1252 5 q 1093 -17 1154 -17 q 983 -6 1032 -17 q 900 26 934 5 q 847 78 865 47 q 828 150 828 109 q 835 195 828 176 q 855 230 842 214 q 886 257 867 245 q 926 281 904 269 l 926 288 q 896 309 910 298 q 872 333 882 319 q 856 365 862 347 q 850 407 850 382 q 869 479 850 448 q 921 531 888 510 q 998 564 954 553 q 1093 575 1042 575 m 1093 463 q 1032 448 1055 463 q 1008 400 1008 433 q 1015 371 1008 382 q 1034 352 1022 359 q 1060 341 1045 345 q 1093 338 1076 338 q 1125 341 1109 338 q 1153 352 1141 345 q 1172 371 1165 359 q 1179 400 1179 382 q 1173 428 1179 416 q 1154 448 1166 440 q 1127 459 1143 456 q 1093 463 1112 463 z "},"⅝":{"ha":1389,"x_min":53,"x_max":1358,"o":"m 496 -17 l 364 -17 l 933 972 l 1067 972 l 496 -17 m 541 814 l 241 814 l 235 726 q 270 745 250 736 q 312 758 288 752 q 368 764 336 764 q 458 750 418 764 q 527 712 498 737 q 571 651 555 688 q 586 570 586 615 q 568 493 586 529 q 517 430 550 457 q 436 388 484 404 q 329 372 389 372 q 209 387 260 372 q 123 427 157 401 q 71 488 88 452 q 53 568 53 524 l 212 568 q 237 511 212 534 q 310 488 262 488 q 382 512 358 488 q 407 572 407 536 q 401 606 407 591 q 382 633 395 622 q 352 652 370 645 q 311 659 334 659 q 273 653 288 659 q 248 642 258 648 q 233 628 239 635 q 224 616 227 621 l 79 635 l 106 956 l 541 956 l 541 814 m 1092 232 q 1059 228 1074 232 q 1032 215 1044 223 q 1014 193 1021 206 q 1007 164 1007 180 q 1030 113 1007 130 q 1092 96 1054 96 q 1126 100 1110 96 q 1153 113 1141 104 q 1171 134 1164 121 q 1178 164 1178 146 q 1171 193 1178 180 q 1152 215 1164 206 q 1124 228 1139 223 q 1092 232 1108 232 m 1092 575 q 1186 564 1142 575 q 1264 531 1231 553 q 1316 479 1297 510 q 1335 407 1335 448 q 1329 365 1335 382 q 1313 333 1323 347 q 1289 309 1303 319 q 1258 288 1275 298 l 1258 281 q 1300 257 1281 269 q 1331 230 1318 245 q 1351 195 1344 214 q 1358 150 1358 176 q 1339 78 1358 109 q 1285 26 1320 47 q 1201 -6 1251 5 q 1092 -17 1152 -17 q 982 -6 1031 -17 q 898 26 932 5 q 845 78 864 47 q 827 150 827 109 q 834 195 827 176 q 853 230 841 214 q 884 257 866 245 q 925 281 903 269 l 925 288 q 895 309 909 298 q 870 333 881 319 q 854 365 860 347 q 848 407 848 382 q 867 479 848 448 q 919 531 886 510 q 997 564 952 553 q 1092 575 1041 575 m 1092 463 q 1030 448 1054 463 q 1007 400 1007 433 q 1014 371 1007 382 q 1032 352 1021 359 q 1059 341 1044 345 q 1092 338 1074 338 q 1124 341 1108 338 q 1152 352 1139 345 q 1171 371 1164 359 q 1178 400 1178 382 q 1171 428 1178 416 q 1153 448 1164 440 q 1126 459 1141 456 q 1092 463 1110 463 z "},"⅞":{"ha":1389,"x_min":79,"x_max":1304,"o":"m 414 -17 l 282 -17 l 851 972 l 985 972 l 414 -17 m 607 879 q 524 778 564 830 q 453 670 484 726 q 403 555 422 614 q 385 432 385 496 l 385 383 l 182 383 q 197 500 182 443 q 238 612 212 557 q 300 717 264 667 q 379 812 336 767 l 79 812 l 79 956 l 607 956 l 607 879 m 1038 232 q 1005 228 1020 232 q 978 215 989 223 q 960 193 966 206 q 953 164 953 180 q 976 113 953 130 q 1038 96 1000 96 q 1099 113 1074 96 q 1124 164 1124 130 q 1117 193 1124 180 q 1097 215 1109 206 q 1069 228 1085 223 q 1038 232 1054 232 m 1038 575 q 1133 564 1088 575 q 1210 531 1177 553 q 1261 479 1242 510 q 1280 407 1280 448 q 1275 365 1280 382 q 1259 333 1269 347 q 1235 309 1249 319 q 1204 288 1221 298 l 1204 281 q 1246 257 1227 269 q 1277 230 1264 245 q 1297 195 1290 214 q 1304 150 1304 176 q 1285 78 1304 109 q 1231 26 1266 47 q 1147 -6 1196 5 q 1038 -17 1098 -17 q 927 -6 977 -17 q 844 26 878 5 q 791 78 810 47 q 772 150 772 109 q 780 195 772 176 q 799 230 787 214 q 830 257 812 245 q 871 281 848 269 l 871 288 q 841 309 854 298 q 817 333 827 319 q 800 365 806 347 q 794 407 794 382 q 813 479 794 448 q 865 531 832 510 q 942 564 898 553 q 1038 575 987 575 m 1038 463 q 976 448 1000 463 q 953 400 953 433 q 960 371 953 382 q 978 352 966 359 q 1005 341 989 345 q 1038 338 1020 338 q 1069 341 1054 338 q 1097 352 1085 345 q 1117 371 1109 359 q 1124 400 1124 382 q 1099 448 1124 433 q 1038 463 1074 463 z "},"‼":{"ha":839,"x_min":65,"x_max":779,"o":"m 700 342 l 524 342 l 447 956 l 779 956 l 700 342 m 368 0 l 93 0 l 93 257 l 368 257 l 368 0 m 750 0 l 475 0 l 475 257 l 750 257 l 750 0 m 318 342 l 142 342 l 65 956 l 397 956 l 318 342 z "},"′":{"ha":422,"x_min":82,"x_max":354,"o":"m 354 1002 l 244 710 l 82 710 l 104 1007 l 351 1007 l 354 1002 z "},"‾":{"ha":694,"x_min":1,"x_max":696,"o":"m 696 1083 l 1 1083 l 1 1169 l 696 1169 l 696 1083 z "},"″":{"ha":728,"x_min":82,"x_max":647,"o":"m 647 1002 l 538 710 l 375 710 l 397 1007 l 644 1007 l 647 1002 m 354 1002 l 244 710 l 82 710 l 104 1007 l 351 1007 l 354 1002 z "},"‗":{"ha":694,"x_min":-1,"x_max":696,"o":"m 694 -307 l -1 -307 l -1 -221 l 694 -221 l 694 -307 m 696 -175 l 1 -175 l 1 -89 l 696 -89 l 696 -175 z "},"‛":{"ha":386,"x_min":61,"x_max":319,"o":"m 319 713 l 221 713 l 319 460 l 187 460 l 61 726 l 61 956 l 319 956 l 319 713 z "},"₣":{"ha":1158,"x_min":103,"x_max":1150,"o":"m 1150 385 l 1061 385 q 985 373 1017 385 q 935 338 954 361 q 907 282 916 315 q 899 208 899 250 l 899 0 l 623 0 l 623 343 l 410 343 l 410 0 l 103 0 l 103 956 l 850 956 l 850 726 l 410 726 l 410 562 l 623 562 l 623 615 l 848 615 l 867 504 q 900 561 880 536 q 947 602 921 585 q 1005 626 974 618 q 1068 633 1036 633 q 1103 631 1088 633 q 1128 625 1118 628 q 1150 616 1141 621 l 1150 385 z "},"₤":{"ha":926,"x_min":43,"x_max":886,"o":"m 529 972 q 684 950 617 972 q 796 889 751 928 q 864 798 841 850 q 886 686 886 745 l 886 653 l 610 653 l 610 686 q 603 717 610 703 q 586 743 597 732 q 561 760 575 753 q 529 766 546 766 q 498 760 513 766 q 472 743 483 753 q 454 717 460 732 q 447 686 447 703 l 447 590 l 610 590 l 610 473 l 447 473 l 439 414 l 610 414 l 610 298 l 422 298 l 410 204 l 811 204 l 811 0 l 85 0 l 85 204 l 174 204 l 174 298 l 43 298 l 43 414 l 174 414 l 174 475 l 43 475 l 43 590 l 174 590 l 174 685 q 194 797 174 745 q 259 889 215 850 q 369 950 302 928 q 529 972 436 972 z "},"₧":{"ha":2392,"x_min":83,"x_max":2367,"o":"m 618 956 q 743 932 686 956 q 839 866 799 908 q 902 767 880 824 q 924 642 924 709 l 924 624 q 902 498 924 556 q 839 398 880 441 q 743 332 799 356 q 618 309 686 309 l 389 309 l 389 0 l 83 0 l 83 956 l 618 956 m 389 729 l 389 532 l 516 532 q 589 557 565 532 q 613 625 613 583 l 613 636 q 590 704 613 679 q 516 729 566 729 l 389 729 m 1365 733 l 1521 733 l 1521 546 l 1365 546 l 1365 267 q 1369 225 1365 243 q 1381 195 1372 208 q 1404 177 1390 183 q 1443 171 1419 171 l 1521 171 l 1521 8 q 1480 -2 1503 3 q 1433 -10 1457 -7 q 1385 -15 1409 -14 q 1343 -17 1362 -17 q 1240 -7 1287 -17 q 1160 25 1194 2 q 1108 85 1126 47 q 1089 179 1089 123 l 1089 546 l 986 546 l 986 733 l 1100 733 l 1160 956 l 1365 956 l 1365 733 m 1997 750 q 2125 738 2062 750 q 2238 697 2188 725 q 2318 624 2287 669 q 2348 514 2348 579 l 2091 514 q 2081 550 2091 536 q 2056 571 2070 564 q 2024 582 2041 579 q 1993 585 2007 585 q 1967 584 1984 585 q 1934 579 1950 583 q 1905 565 1917 574 q 1893 538 1893 555 q 1913 507 1893 518 q 1967 489 1933 496 q 2043 477 2000 482 q 2130 463 2085 471 q 2217 440 2174 454 q 2293 400 2260 425 q 2346 337 2326 375 q 2367 243 2367 299 q 2336 117 2367 168 q 2253 37 2305 67 q 2132 -5 2201 7 q 1988 -17 2063 -17 q 1851 -3 1919 -17 q 1730 42 1784 12 q 1643 122 1676 73 q 1610 239 1610 170 l 1866 239 l 1866 233 q 1880 190 1867 207 q 1912 164 1893 174 q 1951 152 1931 155 q 1988 149 1972 149 q 2022 150 2002 149 q 2060 156 2042 151 q 2090 172 2078 161 q 2103 203 2103 183 q 2083 235 2103 223 q 2029 255 2062 248 q 1953 269 1996 263 q 1866 285 1910 275 q 1779 309 1822 294 q 1703 348 1736 323 q 1649 410 1670 373 q 1629 501 1629 447 q 1659 622 1629 574 q 1741 698 1690 669 q 1858 738 1792 726 q 1997 750 1925 750 z "},"≈":{"ha":917,"x_min":54,"x_max":863,"o":"m 863 510 q 797 454 833 479 q 723 416 766 433 q 629 399 680 399 q 570 406 599 399 q 514 423 542 413 q 460 446 487 433 q 405 469 433 458 q 348 486 377 479 q 288 493 319 493 q 194 476 236 493 q 120 437 151 458 q 54 382 83 413 l 54 562 q 120 618 83 593 q 194 656 151 639 q 288 673 236 673 q 374 659 333 673 q 456 626 416 644 q 539 594 497 608 q 629 579 582 579 q 723 596 680 579 q 797 635 766 614 q 863 690 833 659 l 863 510 m 863 184 q 797 129 833 153 q 723 91 766 108 q 629 74 680 74 q 570 81 599 74 q 514 98 542 88 q 460 121 487 109 q 405 144 433 134 q 348 161 377 154 q 288 168 319 168 q 194 151 236 168 q 120 113 151 134 q 54 57 83 88 l 54 237 q 120 293 83 269 q 194 331 151 314 q 288 349 236 349 q 374 334 333 349 q 456 301 416 319 q 539 269 497 283 q 629 254 582 254 q 723 272 680 254 q 797 310 766 289 q 863 366 833 334 l 863 184 z "},"≡":{"ha":833,"x_min":86,"x_max":746,"o":"m 746 547 l 86 547 l 86 703 l 746 703 l 746 547 m 746 31 l 86 31 l 86 186 l 746 186 l 746 31 m 746 289 l 86 289 l 86 444 l 746 444 l 746 289 z "},"≥":{"ha":917,"x_min":92,"x_max":825,"o":"m 825 681 l 825 482 l 92 227 l 92 424 l 608 581 l 92 739 l 92 937 l 825 681 m 825 0 l 92 0 l 92 183 l 825 183 l 825 0 z "},"∞":{"ha":810,"x_min":12,"x_max":798,"o":"m 604 742 q 678 727 643 742 q 740 685 713 713 q 782 617 766 657 q 798 526 798 577 q 781 429 798 471 q 738 357 765 387 q 676 312 711 328 q 604 297 641 297 q 561 301 585 297 q 511 319 537 305 q 457 359 485 333 q 403 428 430 385 q 359 375 381 399 q 314 333 338 351 q 262 307 290 316 q 201 297 234 297 q 131 312 165 297 q 70 356 96 328 q 28 425 43 385 q 12 517 12 466 q 27 609 12 568 q 70 680 43 650 q 133 726 96 709 q 212 742 170 742 q 324 710 276 742 q 412 616 372 678 q 444 655 427 633 q 485 696 462 677 q 537 729 508 715 q 604 742 566 742 m 215 628 q 183 621 199 628 q 157 600 168 614 q 139 566 146 586 q 132 518 132 545 q 139 477 132 496 q 157 444 145 458 q 184 421 169 429 q 218 412 200 412 q 257 421 239 412 q 291 444 275 430 q 320 476 307 458 q 346 513 334 494 l 342 521 q 315 564 328 544 q 288 597 302 583 q 256 620 273 612 q 215 628 238 628 m 593 628 q 557 620 574 628 q 526 597 541 611 q 497 564 511 583 q 469 526 484 546 l 465 521 q 505 465 488 486 q 538 432 523 444 q 569 416 554 420 q 599 412 583 412 q 632 422 618 412 q 657 448 647 433 q 672 481 667 463 q 677 517 677 500 q 671 561 677 541 q 654 596 665 581 q 628 620 644 611 q 593 628 612 628 z "},"∫":{"ha":376,"x_min":-1,"x_max":378,"o":"m 378 1160 q 344 1159 363 1160 q 307 1152 325 1158 q 277 1135 290 1147 q 265 1103 265 1124 q 283 643 275 857 q 290 458 286 551 q 295 281 293 365 q 299 129 298 197 q 301 20 301 60 q 284 -50 301 -20 q 239 -99 267 -79 q 176 -127 211 -118 q 106 -136 141 -136 l -1 -136 l -1 -41 q 32 -40 13 -41 q 69 -33 52 -39 q 99 -16 87 -28 q 111 16 111 -5 q 93 475 100 261 q 86 660 90 567 q 81 837 83 753 q 77 989 78 921 q 75 1099 75 1058 q 93 1168 75 1139 q 138 1217 110 1198 q 200 1245 165 1236 q 271 1254 235 1254 l 378 1254 l 378 1160 z "},"∩":{"ha":998,"x_min":96,"x_max":900,"o":"m 96 617 q 115 751 96 689 q 182 859 135 813 q 306 930 229 904 q 498 956 383 956 q 690 930 612 956 q 814 859 767 904 q 880 751 861 813 q 900 617 900 689 l 900 0 l 705 0 l 705 623 q 698 679 705 648 q 670 737 692 710 q 608 782 649 764 q 498 800 567 800 q 400 783 439 800 q 336 739 360 765 q 301 682 312 713 q 291 623 291 650 l 291 1 l 96 1 l 96 617 z "},"≤":{"ha":917,"x_min":92,"x_max":825,"o":"m 825 739 l 309 581 l 825 424 l 825 227 l 92 482 l 92 681 l 825 937 l 825 739 m 825 0 l 92 0 l 92 183 l 825 183 l 825 0 z "},"−":{"ha":917,"x_min":92,"x_max":825,"o":"m 825 275 l 92 275 l 92 458 l 825 458 l 825 275 z "},"≠":{"ha":917,"x_min":92,"x_max":825,"o":"m 697 615 l 825 615 l 825 432 l 579 432 l 494 301 l 825 301 l 825 118 l 376 118 l 300 0 l 143 0 l 220 118 l 92 118 l 92 301 l 338 301 l 422 432 l 92 432 l 92 615 l 541 615 l 616 733 l 774 733 l 697 615 z "},"∟":{"ha":1360,"x_min":245,"x_max":1114,"o":"m 416 156 l 1114 156 l 1114 0 l 245 0 l 245 868 l 416 868 l 416 156 z "},"∂":{"ha":694,"x_min":12,"x_max":668,"o":"m 296 972 q 441 939 374 972 q 560 843 509 906 q 639 691 610 781 q 668 490 668 602 q 645 286 668 379 q 576 125 621 193 q 466 20 532 58 q 314 -18 399 -18 q 181 8 237 -18 q 86 79 124 35 q 31 177 49 122 q 12 286 12 231 q 32 416 12 356 q 86 519 51 475 q 170 587 121 562 q 278 611 219 611 q 348 599 317 611 q 401 571 378 587 q 440 536 425 554 q 464 505 456 518 q 465 517 464 511 q 465 527 465 522 q 465 534 465 532 q 452 630 465 583 q 412 712 438 676 q 348 770 386 748 q 260 791 309 791 q 204 787 230 791 q 158 775 179 782 q 122 762 138 769 q 96 749 106 754 l 96 926 q 179 958 130 944 q 296 972 229 972 m 335 453 q 288 439 309 453 q 251 402 267 426 q 228 348 236 379 q 220 282 220 317 q 227 229 220 254 q 246 187 233 205 q 275 159 258 169 q 313 149 292 149 q 363 167 340 149 q 403 215 386 186 q 431 280 420 245 q 446 350 442 316 q 434 381 443 363 q 411 415 425 399 q 377 442 397 431 q 335 453 358 453 z "},"∏":{"ha":1143,"x_min":28,"x_max":1115,"o":"m 1115 804 l 952 804 l 952 -192 l 712 -192 l 712 804 l 431 804 l 431 -192 l 191 -192 l 191 804 l 28 804 l 28 1007 l 1115 1007 l 1115 804 z "},"√":{"ha":762,"x_min":-46,"x_max":832,"o":"m 539 -203 l 350 -203 l 109 396 l -7 350 l -46 468 l 249 589 l 410 154 q 430 90 421 123 q 446 31 438 58 l 454 31 q 463 91 458 56 q 476 163 468 125 l 685 1169 l 832 1169 l 539 -203 z "},"∑":{"ha":990,"x_min":40,"x_max":950,"o":"m 914 803 l 418 803 l 418 798 l 664 441 l 371 21 l 371 14 l 950 14 l 950 -192 l 40 -192 l 40 -74 l 372 407 l 58 854 l 58 1008 l 914 1008 l 914 803 z "},"∙":{"ha":463,"x_min":98,"x_max":364,"o":"m 364 326 l 98 326 l 98 581 l 364 581 l 364 326 z "},"↔":{"ha":1389,"x_min":58,"x_max":1332,"o":"m 1332 366 l 1332 336 l 1059 69 l 960 69 l 1020 262 l 370 262 l 431 69 l 332 69 l 58 336 l 58 366 l 332 632 l 431 632 l 370 439 l 1020 439 l 960 632 l 1059 632 l 1332 366 z "},"↓":{"ha":694,"x_min":64,"x_max":627,"o":"m 361 -286 l 332 -286 l 64 -13 l 64 86 l 258 26 l 258 987 l 434 987 l 434 26 l 627 86 l 627 -13 l 361 -286 z "},"←":{"ha":1389,"x_min":58,"x_max":1332,"o":"m 370 262 l 431 69 l 332 69 l 58 336 l 58 366 l 332 632 l 431 632 l 370 439 l 1332 439 l 1332 262 l 370 262 z "},"→":{"ha":1389,"x_min":58,"x_max":1332,"o":"m 58 439 l 1020 439 l 960 632 l 1059 632 l 1332 366 l 1332 336 l 1059 69 l 960 69 l 1020 262 l 58 262 l 58 439 z "},"↑":{"ha":694,"x_min":64,"x_max":627,"o":"m 258 675 l 64 615 l 64 714 l 332 987 l 361 987 l 627 714 l 627 615 l 434 675 l 434 -286 l 258 -286 l 258 675 z "},"↕":{"ha":694,"x_min":64,"x_max":627,"o":"m 361 -286 l 332 -286 l 64 -13 l 64 86 l 258 26 l 258 675 l 64 615 l 64 714 l 332 987 l 361 987 l 627 714 l 627 615 l 434 675 l 434 26 l 627 86 l 627 -13 l 361 -286 z "},"℮":{"ha":833,"x_min":61,"x_max":779,"o":"m 419 750 q 569 720 503 750 q 683 637 636 690 q 754 512 729 585 q 779 353 779 439 l 779 346 l 212 346 l 212 115 q 303 60 251 79 q 419 41 355 41 q 581 82 513 41 q 686 195 650 123 l 733 164 q 680 89 711 122 q 609 32 649 56 q 522 -4 570 8 q 419 -17 474 -17 q 270 12 336 -17 q 157 92 203 41 q 86 213 111 142 q 61 367 61 283 q 86 520 61 450 q 157 642 111 591 q 270 721 203 692 q 419 750 336 750 m 419 692 q 303 672 355 692 q 212 616 251 652 l 212 404 l 628 404 l 628 615 q 536 672 588 652 q 419 692 484 692 z "},"":{"ha":463,"x_min":140,"x_max":321,"o":"m 321 -233 l 245 -370 l 153 -370 l 210 -243 l 140 -243 l 140 -82 l 321 -82 l 321 -233 z "},"ˉ":{"ha":694,"x_min":0,"x_max":694,"o":"m 694 1083 l 0 1083 l 0 1169 l 694 1169 l 694 1083 z "},"˘":{"ha":463,"x_min":-25,"x_max":488,"o":"m 488 1007 q 470 937 488 972 q 418 872 452 901 q 337 825 385 844 q 231 807 290 807 q 123 825 170 807 q 43 872 76 844 q -8 937 9 901 q -25 1007 -25 972 l 109 1007 q 120 984 111 996 q 146 961 130 972 q 183 944 162 951 q 231 937 205 937 q 278 944 256 937 q 317 961 300 951 q 343 984 333 972 q 355 1007 353 996 l 488 1007 z "},"ˇ":{"ha":463,"x_min":-49,"x_max":515,"o":"m 322 806 l 144 806 l -49 1007 l 129 1007 l 232 900 l 335 1007 l 515 1007 l 322 806 z "},"˙":{"ha":463,"x_min":126,"x_max":338,"o":"m 338 814 l 126 814 l 126 1007 l 338 1007 l 338 814 z "},"˝":{"ha":463,"x_min":-18,"x_max":631,"o":"m 338 1002 l 144 821 l -18 821 l 87 1007 l 335 1007 l 338 1002 m 631 1002 l 437 821 l 275 821 l 380 1007 l 628 1007 l 631 1002 z "},"˛":{"ha":463,"x_min":100,"x_max":408,"o":"m 294 11 q 286 -8 290 3 q 276 -34 281 -20 q 269 -64 272 -48 q 267 -96 267 -80 q 271 -122 267 -109 q 285 -145 275 -135 q 310 -161 294 -155 q 350 -167 326 -167 l 408 -167 l 408 -272 q 275 -293 345 -293 q 210 -284 241 -293 q 154 -257 178 -275 q 115 -208 130 -238 q 100 -135 100 -178 q 106 -88 100 -109 q 123 -48 113 -66 q 145 -14 133 -30 q 170 17 157 2 l 294 17 l 294 11 z "},"˚":{"ha":463,"x_min":81,"x_max":383,"o":"m 232 1103 q 290 1091 262 1103 q 338 1059 317 1079 q 371 1011 359 1038 q 383 951 383 983 q 371 893 383 921 q 339 846 359 866 q 291 813 318 825 q 232 802 263 802 q 174 813 201 802 q 126 845 146 825 q 93 893 105 865 q 81 951 81 920 q 93 1010 81 983 q 125 1058 104 1038 q 173 1091 146 1079 q 232 1103 201 1103 m 232 1007 q 192 991 207 1007 q 176 950 176 975 q 192 911 176 926 q 232 896 208 896 q 272 912 257 896 q 288 953 288 928 q 272 992 288 977 q 232 1007 256 1007 z "},"Ǽ":{"ha":1389,"x_min":-21,"x_max":1336,"o":"m 831 1044 l 654 1044 l 782 1229 l 1050 1229 l 1053 1223 l 831 1044 m 665 135 l 340 135 l 293 0 l -21 0 l 383 956 l 1326 956 l 1326 726 l 819 726 l 850 595 l 1249 595 l 1249 375 l 901 375 l 935 229 l 1336 229 l 1336 0 l 696 0 l 665 135 m 416 349 l 618 349 l 543 689 l 538 689 l 416 349 z "},"―":{"ha":1042,"x_min":0,"x_max":1043,"o":"m 1043 272 l 0 272 l 0 464 l 1043 464 l 1043 272 z "},"℅":{"ha":1389,"x_min":64,"x_max":1324,"o":"m 475 -17 l 343 -17 l 913 972 l 1046 972 l 475 -17 m 336 971 q 440 960 391 971 q 525 923 489 948 q 582 860 561 899 q 603 765 603 821 l 427 765 q 403 827 427 808 q 336 847 379 847 q 267 820 288 847 q 245 745 245 793 l 245 692 q 267 616 245 644 q 340 589 289 589 q 409 609 385 589 q 433 673 433 629 l 603 673 q 582 579 603 618 q 525 514 561 539 q 440 477 489 489 q 336 465 391 465 q 224 481 274 465 q 138 528 174 496 q 83 607 102 559 q 64 718 64 654 q 83 829 64 782 q 138 908 102 877 q 224 956 174 940 q 336 971 274 971 m 1050 489 q 1162 473 1112 489 q 1249 426 1213 458 q 1304 347 1284 395 q 1324 236 1324 300 q 1304 125 1324 172 q 1249 46 1284 77 q 1162 -1 1213 14 q 1050 -17 1112 -17 q 938 -1 988 -17 q 852 46 888 14 q 797 125 817 77 q 778 236 778 172 q 797 347 778 300 q 852 426 817 395 q 938 473 888 458 q 1050 489 988 489 m 1050 366 q 981 338 1002 366 q 960 261 960 310 l 960 210 q 981 134 960 161 q 1050 107 1002 107 q 1120 134 1098 107 q 1141 210 1141 161 l 1141 261 q 1120 338 1141 310 q 1050 366 1098 366 z "}}}
